<svg width="26" height="26" viewBox="0 0 26 26" xmlns="http://www.w3.org/2000/svg">
    <g fill-rule="nonzero" fill="none">
        <path d="M25 13c0 6.627-5.373 12-12 12S1 19.627 1 13 6.373 1 13 1s12 5.373 12 12z" stroke="#FFF" opacity=".2"/>
        <path d="M17.9 9H9.1C8.492 9 8 9.504 8 10.125v6.75C8 17.496 8.492 18 9.1 18h8.8c.608 0 1.1-.504 1.1-1.125v-6.75C19 9.504 18.508 9 17.9 9zm0 3.938-3.492 2.503c-.546.39-1.27.39-1.815 0L9.1 12.937v-1.18l4.043 2.896c.214.153.5.153.714 0l4.043-2.897v1.181z" fill="#FFF"/>
    </g>
</svg>
