<svg width="12" height="12" viewBox="0 0 12 12" xmlns="http://www.w3.org/2000/svg">
    <g stroke="#CECDCD" fill="none" fill-rule="evenodd" stroke-linecap="round" stroke-linejoin="round">
        <path d="M5.782 4.5h3.936c.446 0 .607.046.77.134.163.087.291.215.378.378.088.163.134.324.134.77v3.936c0 .446-.046.607-.134.77a.909.909 0 0 1-.378.378c-.163.088-.324.134-.77.134H5.782c-.446 0-.607-.046-.77-.134a.909.909 0 0 1-.378-.378c-.088-.163-.134-.324-.134-.77V5.782c0-.446.046-.607.134-.77a.909.909 0 0 1 .378-.378c.163-.088.324-.134.77-.134z"/>
        <path d="M2.5 7.5H2a1 1 0 0 1-1-1V2a1 1 0 0 1 1-1h4.5a1 1 0 0 1 1 1v.5"/>
    </g>
</svg>
