<svg width="18" height="20" viewBox="0 0 18 20" xmlns="http://www.w3.org/2000/svg">
    <g stroke="#FFF" stroke-width="1.5" fill="none" fill-rule="evenodd" opacity=".504">
        <path d="m17.15 5.65-1.359 10.83c-.13 1.04-.253 1.418-.49 1.786a1.974 1.974 0 0 1-.816.72c-.395.19-.784.264-1.834.264H5.349c-1.05 0-1.44-.075-1.834-.265a1.974 1.974 0 0 1-.815-.719c-.238-.368-.36-.745-.491-1.787L.85 5.65h16.3z"/>
        <path stroke-linecap="square" d="M1.895 9.618h14.21"/>
        <path stroke-linecap="round" d="m5.828 13.354.611 2.765M6.63 1.196 5.033 4.869M11.002 1.196l1.599 3.673M12.124 13.354l-.612 2.765"/>
    </g>
</svg>
