<svg width="10" height="11" viewBox="0 0 10 11" xmlns="http://www.w3.org/2000/svg">
    <path d="M9.688 1.557H6.614V.83A.833.833 0 0 0 5.78 0H4.22a.833.833 0 0 0-.834.83v.727H.313a.311.311 0 1 0 0 .622h.729v6.953c0 1.03.84 1.868 1.875 1.868h4.166a1.874 1.874 0 0 0 1.875-1.868V2.18h.73a.312.312 0 1 0 0-.622zM4.01.83c0-.114.094-.207.209-.207H5.78c.115 0 .209.093.209.207v.727H4.01V.83zm4.323 8.302a1.25 1.25 0 0 1-1.25 1.245H2.917a1.25 1.25 0 0 1-1.25-1.245V2.18h6.666v6.953zm-4.948-.519v-4.67a.312.312 0 0 1 .625 0v4.67a.312.312 0 0 1-.625 0zm2.605 0v-4.67a.312.312 0 0 1 .625 0v4.67a.312.312 0 0 1-.625 0z" fill="#EB4343" fill-rule="nonzero"/>
</svg>
