<svg width="10" height="13" viewBox="0 0 10 13" xmlns="http://www.w3.org/2000/svg">
    <g fill="none" fill-rule="evenodd">
        <path d="M9 12.583a.42.42 0 0 1-.419.417H.417A.418.418 0 0 1 0 12.583V1.42A.42.42 0 0 1 .417 1h4.465c.11 0 .161.047.24.123l3.753 3.676c.08.077.125.149.125.259v7.525z" fill="#1F6BD3"/>
        <path d="M1.294 10.855V8.441h1.001c.29 0 .518.077.686.23a.789.789 0 0 1 .252.611c0 .27-.093.478-.28.626-.187.149-.423.223-.71.223h-.41v.724h-.539zm.539-1.197h.427a.448.448 0 0 0 .313-.103.347.347 0 0 0 .114-.27.33.33 0 0 0-.115-.27.494.494 0 0 0-.322-.095h-.417v.738zM3.432 10.855V8.441h.956c.382 0 .695.114.938.343.242.229.364.517.364.864 0 .345-.122.632-.366.862-.244.23-.556.345-.936.345h-.956zm.539-.48h.417c.221 0 .4-.067.535-.201a.71.71 0 0 0 .203-.526.707.707 0 0 0-.205-.525.724.724 0 0 0-.534-.203h-.416v1.456zM5.969 10.855V8.441h1.865v.482H6.508v.514h1.169v.483H6.508v.935z" fill="#FFF" fill-rule="nonzero"/>
        <path stroke="#FFF" stroke-linecap="round" stroke-linejoin="round" d="M5 1v3.942h4"/>
    </g>
</svg>
