<svg width="24" height="17" viewBox="0 0 24 17" xmlns="http://www.w3.org/2000/svg">
    <g stroke="#FFF" stroke-width="1.5" fill="none" fill-rule="evenodd" opacity=".504">
        <path d="M4.282 6h1.436c.446 0 .607.046.77.134.163.087.291.215.378.378.088.163.134.324.134.77V16H3V7.282c0-.446.046-.607.134-.77a.909.909 0 0 1 .378-.378c.163-.088.324-.134.77-.134zM11.282 1h1.436c.446 0 .607.046.77.134.163.087.291.215.378.378.088.163.134.324.134.77V16h-4V2.282c0-.446.046-.607.134-.77a.909.909 0 0 1 .378-.378c.163-.088.324-.134.77-.134zM18.282 8h1.436c.446 0 .607.046.77.134.163.087.291.215.378.378.088.163.134.324.134.77V16h-4V9.282c0-.446.046-.607.134-.77a.909.909 0 0 1 .378-.378c.163-.088.324-.134.77-.134z"/>
        <path stroke-linecap="round" d="M1 16h22"/>
    </g>
</svg>
