<svg width="18" height="20" viewBox="0 0 18 20" xmlns="http://www.w3.org/2000/svg">
    <g fill="none" fill-rule="evenodd" opacity=".299">
        <path d="m6.626 3.424.582-1.544A1.343 1.343 0 0 1 8.465 1h1.09c.553 0 1.05.349 1.25.88l.582 1.544 1.94 1.16 1.59-.248a1.33 1.33 0 0 1 1.357.676l.547.976c.275.494.23 1.11-.115 1.556L15.704 8.84v2.32l1.002 1.296c.345.445.39 1.062.115 1.556l-.547.976a1.33 1.33 0 0 1-1.357.676l-1.59-.248-1.94 1.16-.582 1.544c-.2.531-.697.88-1.25.88h-1.09c-.553 0-1.05-.349-1.251-.88l-.582-1.544-1.939-1.16-1.59.248a1.33 1.33 0 0 1-1.358-.676l-.566-.976a1.421 1.421 0 0 1 .115-1.556l1.002-1.296V8.84L1.294 7.544a1.421 1.421 0 0 1-.115-1.556l.547-.976a1.33 1.33 0 0 1 1.357-.676l1.59.248 1.953-1.16z" stroke="#FFF" stroke-width="1.5" stroke-linecap="round" stroke-linejoin="round"/>
        <path d="M7 10a2 2 0 1 0 4 0 2 2 0 0 0-4 0z" fill="#FFF"/>
    </g>
</svg>
