<svg width="26" height="26" viewBox="0 0 26 26" xmlns="http://www.w3.org/2000/svg">
    <g fill-rule="nonzero" fill="none">
        <path d="M25 13c0 6.627-5.373 12-12 12S1 19.627 1 13 6.373 1 13 1s12 5.373 12 12z" stroke="#FFF" opacity=".2"/>
        <path d="M19 10.065c-.405.181-.84.303-1.296.358.466-.281.824-.726.992-1.257-.436.26-.919.45-1.432.551A2.246 2.246 0 0 0 15.616 9a2.264 2.264 0 0 0-2.257 2.272c0 .178.02.351.058.518a6.393 6.393 0 0 1-4.651-2.374 2.274 2.274 0 0 0-.306 1.142c0 .788.399 1.484 1.004 1.891a2.233 2.233 0 0 1-1.022-.284v.029c0 1.1.778 2.02 1.81 2.227a2.23 2.23 0 0 1-1.019.04 2.26 2.26 0 0 0 2.108 1.577A4.505 4.505 0 0 1 8 16.979 6.362 6.362 0 0 0 11.46 18c4.15 0 6.42-3.462 6.42-6.465 0-.098-.002-.196-.006-.294.441-.32.824-.72 1.126-1.176z" fill="#FFF"/>
    </g>
</svg>
