<svg width="31" height="27" viewBox="0 0 31 27" xmlns="http://www.w3.org/2000/svg">
    <g fill="none" fill-rule="evenodd">
        <path d="M3.846 0h23.308c1.337 0 1.822.14 2.311.4.49.262.873.646 1.134 1.135.262.489.401.974.401 2.31v19.31c0 1.336-.14 1.821-.4 2.31a2.726 2.726 0 0 1-1.135 1.134c-.489.262-.974.401-2.31.401H3.844c-1.336 0-1.821-.14-2.31-.4A2.726 2.726 0 0 1 .4 25.464C.139 24.976 0 24.491 0 23.155V3.844c0-1.336.14-1.821.4-2.31A2.726 2.726 0 0 1 1.536.4C2.024.139 2.509 0 3.845 0z" fill="#F0F0F4"/>
        <g stroke="#232020" stroke-linecap="round" stroke-linejoin="round">
            <path d="M12.776 16.335 15.502 19l2.725-2.665M15.502 13.004V19"/>
            <path d="M21.553 17.061a3.291 3.291 0 0 0 1.288-3.73c-.45-1.386-1.765-2.327-3.25-2.326h-.86c-.56-2.138-2.413-3.717-4.656-3.97-2.243-.252-4.414.873-5.458 2.831a5.237 5.237 0 0 0 .752 5.996"/>
        </g>
    </g>
</svg>
