<svg width="26" height="26" viewBox="0 0 26 26" xmlns="http://www.w3.org/2000/svg">
    <g transform="translate(1 1)" fill="none" fill-rule="evenodd">
        <circle stroke="#FFF" opacity=".201" cx="12" cy="12" r="12"/>
        <path d="M16.165 8.754A10.002 10.002 0 0 0 13.69 8a6.94 6.94 0 0 0-.317.638 9.379 9.379 0 0 0-2.743 0A6.731 6.731 0 0 0 10.308 8c-.87.146-1.701.403-2.478.756-1.567 2.294-1.991 4.53-1.779 6.736a10.02 10.02 0 0 0 3.036 1.507c.245-.326.463-.672.65-1.038a6.483 6.483 0 0 1-1.023-.482c.085-.062.17-.127.25-.193 1.975.895 4.12.895 6.071 0 .082.066.166.13.251.193-.324.19-.668.352-1.026.483.188.365.405.712.65 1.038a10 10 0 0 0 3.039-1.508c.25-2.557-.426-4.773-1.784-6.738zm-6.158 5.381c-.593 0-1.08-.536-1.08-1.189 0-.652.476-1.19 1.08-1.19.603 0 1.089.537 1.078 1.19.001.653-.475 1.19-1.078 1.19zm3.986 0c-.592 0-1.078-.536-1.078-1.189 0-.652.475-1.19 1.078-1.19.603 0 1.09.537 1.08 1.19 0 .653-.477 1.19-1.08 1.19z" fill="#FFF" fill-rule="nonzero"/>
    </g>
</svg>
