<svg width="17" height="19" viewBox="0 0 17 19" xmlns="http://www.w3.org/2000/svg">
    <g stroke="#FFF" stroke-width="1.5" fill="none" fill-rule="evenodd" opacity=".301">
        <path d="M16.25 9.75v4.122c0 1.57-.137 2.151-.446 2.728-.277.52-.685.927-1.204 1.204-.577.309-1.157.446-2.728.446H5.128c-1.57 0-2.151-.137-2.728-.446A2.895 2.895 0 0 1 1.196 16.6C.887 16.023.75 15.443.75 13.872V9.75h15.5zM5.128.75h6.744c1.57 0 2.151.137 2.728.446.52.277.927.685 1.204 1.204.309.577.446 1.157.446 2.728V7.25H.75V5.128c0-1.57.137-2.151.446-2.728.277-.52.685-.927 1.204-1.204C2.977.887 3.557.75 5.128.75z"/>
        <path stroke-linecap="round" d="M4.636 3.864h.773M8.5 3.864h.773M4 14h1M8 14h1"/>
    </g>
</svg>
