<svg width="24" height="24" viewBox="0 0 24 24" xmlns="http://www.w3.org/2000/svg">
    <path d="M12 0c6.627 0 12 5.373 12 12s-5.373 12-12 12S0 18.627 0 12 5.373 0 12 0zm1.69 7.333a7.259 7.259 0 0 0-.318.659 9.09 9.09 0 0 0-2.743 0 7.038 7.038 0 0 0-.321-.659c-.87.15-1.701.416-2.478.78-1.567 2.368-1.991 4.677-1.779 6.953a9.898 9.898 0 0 0 3.036 1.556c.245-.337.463-.695.65-1.071a6.394 6.394 0 0 1-1.023-.499c.085-.063.17-.13.25-.198 1.975.923 4.12.923 6.071 0 .082.068.166.135.251.198a6.378 6.378 0 0 1-1.026.5c.188.375.405.734.65 1.07a9.878 9.878 0 0 0 3.039-1.556c.25-2.639-.426-4.926-1.784-6.955a9.774 9.774 0 0 0-2.476-.778zm-3.683 3.878c.603 0 1.089.553 1.078 1.228.001.674-.475 1.227-1.078 1.227-.593 0-1.08-.553-1.08-1.227s.476-1.228 1.08-1.228zm3.986 0c.603 0 1.09.553 1.08 1.228 0 .674-.477 1.227-1.08 1.227-.592 0-1.078-.553-1.078-1.227s.475-1.228 1.078-1.228z" fill="#FFF" fill-rule="evenodd"/>
</svg>
