<svg width="24" height="24" viewBox="0 0 24 24" xmlns="http://www.w3.org/2000/svg">
    <path d="M24 12c0 6.627-5.373 12-12 12S0 18.627 0 12 5.373 0 12 0s12 5.373 12 12zm-6.465-3.128a4.5 4.5 0 0 1-1.292.354c.465-.278.822-.719.99-1.244a4.503 4.503 0 0 1-1.428.546 2.248 2.248 0 0 0-3.832 2.05A6.383 6.383 0 0 1 7.339 8.23a2.247 2.247 0 0 0 .696 3.001 2.236 2.236 0 0 1-1.018-.281v.028a2.25 2.25 0 0 0 1.803 2.204 2.235 2.235 0 0 1-1.015.04 2.25 2.25 0 0 0 2.1 1.56 4.508 4.508 0 0 1-3.329.932 6.37 6.37 0 0 0 3.447 1.01c4.135 0 6.396-3.426 6.396-6.397a6.61 6.61 0 0 0-.006-.291c.44-.317.82-.713 1.122-1.164z" fill="#FFF" fill-rule="nonzero"/>
</svg>
