<svg width="24" height="24" viewBox="0 0 24 24" xmlns="http://www.w3.org/2000/svg">
    <path d="M12 0c6.627 0 12 5.373 12 12s-5.373 12-12 12S0 18.627 0 12 5.373 0 12 0zm-.184 8c-.766.004-3.693.033-4.507.25a1.516 1.516 0 0 0-1.058 1.092 15.818 15.818 0 0 0-.25 2.885c-.007.975.077 1.948.25 2.908.146.51.547.907 1.058 1.047.814.217 3.74.246 4.507.25h.369c.766-.004 3.693-.033 4.506-.25a1.516 1.516 0 0 0 1.059-1.091c.17-.945.254-1.903.25-2.864a15.818 15.818 0 0 0-.25-2.907 1.516 1.516 0 0 0-1.059-1.09c-.781-.192-3.518-.224-4.408-.229zm-1.043 2.444 3.136 1.783-3.136 1.784v-3.567z" fill="#FFF" fill-rule="nonzero"/>
</svg>
