<svg width="327" height="192" viewBox="0 0 327 192" xmlns="http://www.w3.org/2000/svg" xmlns:xlink="http://www.w3.org/1999/xlink">
    <defs>
        <filter x="-1.4%" y="-2.6%" width="105.4%" height="110.3%" filterUnits="objectBoundingBox" id="jhc2khyzya">
            <feOffset dx="5" dy="5" in="SourceAlpha" result="shadowOffsetOuter1"/>
            <feComposite in="shadowOffsetOuter1" in2="SourceAlpha" operator="out" result="shadowOffsetOuter1"/>
            <feColorMatrix values="0 0 0 0 0.945098039 0 0 0 0 0.952941176 0 0 0 0 0.97254902 0 0 0 1 0" in="shadowOffsetOuter1"/>
        </filter>
        <filter x="-5%" y="-5%" width="120.1%" height="120.1%" filterUnits="objectBoundingBox" id="alndsairbc">
            <feOffset dx="3" dy="3" in="SourceAlpha" result="shadowOffsetOuter1"/>
            <feComposite in="shadowOffsetOuter1" in2="SourceAlpha" operator="out" result="shadowOffsetOuter1"/>
            <feColorMatrix values="0 0 0 0 0.945098039 0 0 0 0 0.952941176 0 0 0 0 0.97254902 0 0 0 1 0" in="shadowOffsetOuter1"/>
        </filter>
        <filter x="-1.7%" y="-5.6%" width="106.7%" height="122.3%" filterUnits="objectBoundingBox" id="nkdfvhiw7e">
            <feOffset dx="5" dy="5" in="SourceAlpha" result="shadowOffsetOuter1"/>
            <feComposite in="shadowOffsetOuter1" in2="SourceAlpha" operator="out" result="shadowOffsetOuter1"/>
            <feColorMatrix values="0 0 0 0 0.920329353 0 0 0 0 0.929384126 0 0 0 0 0.95202106 0 0 0 1 0" in="shadowOffsetOuter1"/>
        </filter>
        <filter x="-2%" y="-2.6%" width="107.9%" height="107.7%" filterUnits="objectBoundingBox" id="5fvjkl8msg">
            <feOffset dx="6" dy="3" in="SourceAlpha" result="shadowOffsetOuter1"/>
            <feComposite in="shadowOffsetOuter1" in2="SourceAlpha" operator="out" result="shadowOffsetOuter1"/>
            <feColorMatrix values="0 0 0 0 0.945098039 0 0 0 0 0.952941176 0 0 0 0 0.97254902 0 0 0 1 0" in="shadowOffsetOuter1"/>
        </filter>
        <filter x="-8.4%" y="-8.4%" width="126.9%" height="126.8%" filterUnits="objectBoundingBox" id="bazvjsmcpi">
            <feMorphology radius="1" operator="dilate" in="SourceAlpha" result="shadowSpreadOuter1"/>
            <feOffset dx="3" dy="3" in="shadowSpreadOuter1" result="shadowOffsetOuter1"/>
            <feComposite in="shadowOffsetOuter1" in2="SourceAlpha" operator="out" result="shadowOffsetOuter1"/>
            <feColorMatrix values="0 0 0 0 0.847058824 0 0 0 0 0.945098039 0 0 0 0 0.874509804 0 0 0 1 0" in="shadowOffsetOuter1"/>
        </filter>
        <path d="M7.692 70.05H175.91c2.674 0 3.644.28 4.622.802a5.452 5.452 0 0 1 2.268 2.268c.523.978.801 1.948.801 4.623v81.641c0 2.675-.278 3.645-.801 4.622a5.452 5.452 0 0 1-2.268 2.269c-.978.522-1.948.8-4.622.8H7.692c-2.675 0-3.645-.278-4.623-.8a5.452 5.452 0 0 1-2.268-2.269C.278 163.03 0 162.06 0 159.384V77.743c0-2.675.278-3.645.801-4.623a5.452 5.452 0 0 1 2.268-2.268c.978-.523 1.948-.801 4.623-.801z" id="c8t86tvmub"/>
        <path d="M20.055 84.978h19.598c1.783 0 2.43.185 3.082.534.651.349 1.163.86 1.512 1.512.348.652.534 1.299.534 3.082v19.598c0 1.783-.186 2.43-.534 3.081a3.635 3.635 0 0 1-1.512 1.512c-.652.349-1.299.535-3.082.535H20.055c-1.783 0-2.43-.186-3.082-.535a3.635 3.635 0 0 1-1.512-1.512c-.348-.651-.534-1.298-.534-3.081V90.106c0-1.783.186-2.43.534-3.082a3.635 3.635 0 0 1 1.512-1.512c.652-.349 1.299-.534 3.082-.534z" id="0wqj2mepad"/>
        <path d="M7.692 0h133.886c2.674 0 3.644.278 4.622.801a5.452 5.452 0 0 1 2.268 2.268c.523.978.801 1.948.801 4.623v29.397c0 2.675-.278 3.645-.801 4.622a5.452 5.452 0 0 1-2.268 2.268c-.978.523-1.948.802-4.622.802H7.692c-2.675 0-3.645-.279-4.623-.802a5.452 5.452 0 0 1-2.268-2.268C.278 40.734 0 39.764 0 37.09V7.692c0-2.675.278-3.645.801-4.623A5.452 5.452 0 0 1 3.07.801C4.047.278 5.017 0 7.692 0z" id="rm84d7qdpf"/>
        <path d="M129.466.099a5.451 5.451 0 0 1 2.855 1.454c.8.768 1.363 1.603 2.191 4.143l16.242 49.825a6 6 0 0 1-3.845 7.564l-.01.003-62.793 20.336-19.24 33.85-10.818-24.115-27.824 9.012c-2.542.823-3.549.857-4.64.662a5.451 5.451 0 0 1-2.854-1.455c-.8-.767-1.363-1.602-2.191-4.142L.297 47.41a6 6 0 0 1 3.845-7.564l.01-.003L124.828.76c2.542-.823 3.549-.858 4.64-.662z" id="97bw8qugeh"/>
        <path d="M22.709 6.067c.93-.48 1.03-.337.228.318L6.639 19.74c-.71.513-1.144 1.511-1.144 2.345v6.793c0 1.008.528 1.277 1.316.603l6.627-5.739 4.793 4.5c.377.351.817.254 1.002-.218L29.8.591c.185-.472-.073-.71-.567-.531L.445 10.454c-.497.177-.592.606-.213.96l3.612 3.39c.375.352 1.056.445 1.519.204l17.346-8.94z" id="0ps18k5bgj"/>
    </defs>
    <g fill="none" fill-rule="evenodd">
        <g transform="translate(0 .057)">
            <use fill="#000" filter="url(#jhc2khyzya)" xlink:href="#c8t86tvmub"/>
            <path stroke="#D6DCEA" d="M175.91 70.55c2.533 0 3.458.247 4.386.743a4.959 4.959 0 0 1 2.063 2.063c.496.928.742 1.854.742 4.387v81.641c0 2.533-.246 3.459-.742 4.387a4.959 4.959 0 0 1-2.063 2.063c-.928.496-1.853.742-4.386.742H7.692c-2.533 0-3.459-.246-4.387-.742a4.959 4.959 0 0 1-2.063-2.063c-.496-.928-.742-1.854-.742-4.387V77.743c0-2.533.246-3.459.742-4.387a4.959 4.959 0 0 1 2.063-2.063c.928-.496 1.854-.742 4.387-.742z" stroke-linejoin="square" fill="#FFF"/>
        </g>
        <g transform="translate(0 .057)">
            <use fill="#000" filter="url(#alndsairbc)" xlink:href="#0wqj2mepad"/>
            <path stroke="#D6DCEA" d="M39.653 85.478c1.641 0 2.244.153 2.846.475a3.142 3.142 0 0 1 1.307 1.307c.322.602.475 1.204.475 2.846v19.598c0 1.641-.153 2.244-.475 2.846a3.142 3.142 0 0 1-1.307 1.306c-.602.322-1.205.476-2.846.476H20.055c-1.642 0-2.244-.154-2.846-.476a3.142 3.142 0 0 1-1.307-1.306c-.322-.602-.475-1.205-.475-2.846V90.106c0-1.642.153-2.244.475-2.846a3.142 3.142 0 0 1 1.307-1.307c.602-.322 1.204-.475 2.846-.475z" stroke-linejoin="square" fill="#FFF"/>
        </g>
        <path d="M18.997 129.045H69.1c.892 0 1.215.093 1.541.268.326.174.582.43.756.756.174.326.267.649.267 1.54v3.219c0 .891-.093 1.215-.267 1.54-.174.326-.43.582-.756.757-.326.174-.65.267-1.54.267H18.996c-.891 0-1.214-.093-1.54-.267a1.817 1.817 0 0 1-.756-.756c-.175-.326-.267-.65-.267-1.541v-3.219c0-.891.092-1.214.267-1.54.174-.326.43-.582.756-.756.326-.175.649-.268 1.54-.268z" fill="#FDE6B3"/>
        <path d="M18.997 143.651h40.255c.892 0 1.215.093 1.54.268.327.174.583.43.757.756.174.325.267.649.267 1.54v3.219c0 .891-.093 1.215-.267 1.54-.174.326-.43.582-.756.756-.326.175-.65.268-1.54.268H18.996c-.891 0-1.214-.093-1.54-.268a1.817 1.817 0 0 1-.756-.756c-.175-.325-.267-.649-.267-1.54v-3.219c0-.891.092-1.215.267-1.54.174-.326.43-.582.756-.756.326-.175.649-.268 1.54-.268z" fill="#FDE6B3" opacity=".402"/>
        <g transform="translate(92.547 141.757)">
            <use fill="#000" filter="url(#nkdfvhiw7e)" xlink:href="#rm84d7qdpf"/>
            <path stroke="#D6DCEA" d="M7.692.5h133.886c2.533 0 3.458.246 4.386.742a4.959 4.959 0 0 1 2.063 2.063c.496.928.742 1.854.742 4.387v29.397c0 2.533-.246 3.459-.742 4.387a4.959 4.959 0 0 1-2.063 2.063c-.928.496-1.853.742-4.386.742H7.692c-2.533 0-3.459-.246-4.387-.742a4.959 4.959 0 0 1-2.063-2.063C.746 40.548.5 39.622.5 37.089V7.692c0-2.533.246-3.459.742-4.387a4.959 4.959 0 0 1 2.063-2.063C4.233.746 5.16.5 7.692.5z" stroke-linejoin="square" fill="#FFF"/>
        </g>
        <path d="M107.263 155.192h88.49c.446 0 .608.046.771.133.163.087.29.215.378.378.087.163.134.325.134.77v3.407c0 .446-.047.608-.134.77a.909.909 0 0 1-.378.379c-.163.087-.325.133-.77.133h-88.49c-.447 0-.608-.046-.771-.133a.909.909 0 0 1-.378-.378c-.087-.163-.134-.325-.134-.77v-3.407c0-.446.047-.608.134-.77a.909.909 0 0 1 .378-.379c.163-.087.324-.133.77-.133zM107.263 167.133h57.144c.446 0 .607.047.77.134.163.087.291.215.378.378.088.163.134.324.134.77v3.407c0 .446-.046.607-.134.77a.909.909 0 0 1-.378.378c-.163.088-.324.134-.77.134h-57.144c-.446 0-.607-.046-.77-.134a.909.909 0 0 1-.378-.378c-.087-.163-.134-.324-.134-.77v-3.407c0-.446.047-.607.134-.77a.909.909 0 0 1 .378-.378c.163-.087.324-.134.77-.134z" fill="#F1F3F8"/>
        <g>
            <g transform="rotate(17 88.068 590.584)">
                <use fill="#000" filter="url(#5fvjkl8msg)" xlink:href="#97bw8qugeh"/>
                <path stroke="#D6DCEA" d="M124.981 1.237c2.407-.78 3.362-.831 4.397-.646.992.178 1.87.625 2.597 1.323.758.728 1.278 1.531 2.062 3.937l16.242 49.825a5.483 5.483 0 0 1-.327 4.196 5.482 5.482 0 0 1-3.197 2.737l-62.988 20.4-18.849 33.16-10.597-23.624-28.251 9.15c-2.407.78-3.362.831-4.397.646a4.958 4.958 0 0 1-2.597-1.323c-.758-.728-1.278-1.531-2.062-3.937L.772 47.256A5.483 5.483 0 0 1 1.1 43.06a5.482 5.482 0 0 1 3.197-2.736z" stroke-linejoin="square" fill="#FFF"/>
            </g>
            <g fill="#E7EAEF" fill-rule="nonzero">
                <path d="M199.262 68.57c2.544.044 4.895.109 7.054.194 1.207-4.54 2.367-7.687 3.477-9.444.738-1.02 1.471-1.75 2.199-2.194.291-.187.587-.278.887-.273.3.005.442.476.425 1.412a19.773 19.773 0 0 1-.285 2.947c-.174 1.03-.393 2.214-.656 3.553-.87 4.402-1.525 7.919-1.967 10.552a51.463 51.463 0 0 0-.727 7.62c-.012.672-.497 1-1.457.983-1.512-.027-2.539-.339-3.08-.936-.542-.598-.8-1.67-.772-3.218.027-1.548.381-3.984 1.063-7.309-2.637-.166-4.304-.255-5-.267l-1.475-.026a8.744 8.744 0 0 0-.793.023c-1.152 4.108-1.749 7.362-1.79 9.762-.025 1.416-1.417 2.1-4.177 2.051-.6-.01-.949-.322-1.046-.936-.097-.614-.134-1.61-.11-2.99.024-1.38.5-3.85 1.426-7.41-1.468.19-2.537.279-3.21.267-.311-.005-.465-.128-.46-.368.008-.528.409-1.121 1.2-1.78.792-.658 1.947-1.177 3.466-1.559.942-3.056 1.873-5.56 2.796-7.512-2.593.002-4.51.473-5.75 1.412-.389.28-.705.533-.95.757-.243.224-.455.334-.635.331-.18-.003-.352-.15-.515-.441-.162-.29-.24-.676-.231-1.156.03-1.752 1.53-3.058 4.497-3.918 2.364-.68 5.106-1.003 8.226-.973l.072.001c.168.003.4.103.697.3.296.198.44.512.433.944-.007.432-.094.917-.26 1.454-.164.537-.381.935-.65 1.195-.164 1.125-.804 3.442-1.922 6.951zM222.573 80.066c1.872.033 3.697-.68 5.474-2.137a15.132 15.132 0 0 0 1.61-1.502c.417-.46.733-.69.949-.686.336.006.498.345.486 1.017-.011.672-.204 1.419-.579 2.24-.374.822-.988 1.621-1.842 2.398-2.098 1.908-4.946 2.83-8.546 2.768-2.855-.05-4.78-1.116-5.777-3.198-.347-.726-.509-1.76-.486-3.105.024-1.343.312-2.736.866-4.179.553-1.443 1.277-2.684 2.17-3.725.895-1.04 1.923-1.844 3.085-2.412a8.003 8.003 0 0 1 3.705-.818c1.308.023 2.31.365 3.007 1.025.696.66 1.036 1.506 1.018 2.538-.018 1.032-.291 1.873-.818 2.524-.528.651-1.203 1.191-2.027 1.621-.824.43-1.736.81-2.738 1.14a36.42 36.42 0 0 0-2.954 1.119l-.016.9c.009.864.358 1.482 1.048 1.854.69.373 1.478.578 2.365.618zm-.434-10.161c-1.248-.022-2.137 1.415-2.668 4.31.51-.327.989-.619 1.437-.875.449-.256.843-.502 1.183-.736.73-.515 1.112-1.108 1.148-1.78.01-.6-.357-.906-1.1-.92z"/>
                <path d="M237.189 84.354c-3.432-.036-5.75-1.361-6.952-3.974-.416-.92-.612-2.07-.588-3.45.024-1.379.17-2.847.437-4.402.534-3.111 1.508-5.975 2.922-8.59.72-1.332 1.52-2.47 2.4-3.415 1.933-2.079 4.063-3.086 6.39-3.021 1.032.018 1.837.314 2.415.888.578.574.858 1.39.84 2.445-.02 1.056-.35 2.112-.992 3.17-.643 1.056-1.46 2.146-2.452 3.27a97.298 97.298 0 0 1-3.284 3.524 53.846 53.846 0 0 0-3.526 4.007l-.025 1.44c-.024 1.344.247 2.333.812 2.967.565.634 1.232.957 2 .97 2.063.037 3.905-.951 5.524-2.963.663-.829 1.162-1.24 1.498-1.234.336.006.497.417.482 1.232-.014.816-.25 1.646-.71 2.49a9.302 9.302 0 0 1-1.786 2.31 9.363 9.363 0 0 1-2.514 1.702c-.944.44-1.907.65-2.891.634zm2.28-19.296c.516-.615.921-1.172 1.218-1.67.297-.5.45-1.019.46-1.559.009-.54-.178-.813-.562-.82-.84-.014-1.785.833-2.835 2.543-1.05 1.71-1.852 3.965-2.405 6.763.838-1.233 1.606-2.264 2.305-3.092.698-.828 1.305-1.55 1.82-2.165z"/>
                <path d="M250.867 84.592c-3.432-.036-5.75-1.36-6.952-3.974-.416-.919-.612-2.069-.588-3.448.024-1.38.17-2.848.437-4.403.534-3.112 1.508-5.975 2.922-8.59.72-1.332 1.52-2.47 2.4-3.415 1.933-2.079 4.063-3.086 6.39-3.021 1.032.018 1.837.314 2.415.888.578.574.858 1.39.84 2.445-.02 1.056-.35 2.112-.992 3.17-.643 1.056-1.46 2.146-2.452 3.269a97.298 97.298 0 0 1-3.284 3.525 53.846 53.846 0 0 0-3.526 4.007l-.025 1.44c-.024 1.344.247 2.333.812 2.967.565.634 1.232.957 2 .97 2.063.037 3.905-.951 5.524-2.963.663-.829 1.162-1.24 1.498-1.234.336.005.497.416.482 1.232-.014.816-.25 1.646-.71 2.49a9.302 9.302 0 0 1-1.786 2.31 9.363 9.363 0 0 1-2.514 1.702c-.944.44-1.908.65-2.891.633zm2.28-19.295c.516-.615.921-1.172 1.218-1.67.297-.5.45-1.02.46-1.559.009-.54-.179-.813-.562-.82-.84-.015-1.785.833-2.835 2.543-1.05 1.71-1.852 3.964-2.405 6.763.838-1.234 1.606-2.264 2.305-3.092.698-.828 1.305-1.55 1.82-2.165z"/>
                <path d="M271.115 81.777c-1.935 2.199-4.228 3.275-6.88 3.229-2.651-.047-4.625-.76-5.921-2.138-1.296-1.379-1.915-3.076-1.856-5.091.026-2.856.969-5.3 2.829-7.332 1.86-2.032 4.265-3.022 7.217-2.97 1.344.023 2.42.21 3.23.56 1.406.6 2.105 1.153 2.096 1.657-.007.384-1 .565-2.98.542-1.98-.023-3.648.632-5.003 1.965-1.356 1.333-2.051 3.03-2.087 5.094-.02 1.08.283 1.992.906 2.735.623.743 1.517 1.124 2.68 1.145 1.164.02 2.134-.203 2.91-.67-1.683-1.181-2.506-2.864-2.468-5.048-.004-1.152.429-2.194 1.297-3.127.869-.933 1.969-1.394 3.3-1.383 1.333.011 2.28.394 2.843 1.148.563.754.834 1.713.814 2.876-.02 1.164-.318 2.39-.892 3.675l.216.004a4.005 4.005 0 0 0 2.755-1.068c.293-.283.543-.53.75-.743.209-.212.42-.317.636-.313.336.006.497.405.484 1.197-.026 1.463-.477 2.554-1.354 3.27-.876.717-1.837 1.067-2.88 1.048-1.044-.018-1.925-.105-2.642-.262zm-.251-4.18c.423-.857.641-1.694.656-2.51.014-.816-.243-1.228-.77-1.237-.217-.004-.4.149-.549.458-.15.31-.227.608-.232.896-.016.96.282 1.757.895 2.392z"/>
            </g>
        </g>
        <g fill-rule="nonzero">
            <g transform="translate(107.474 85.035)">
                <use fill="#000" filter="url(#bazvjsmcpi)" xlink:href="#0ps18k5bgj"/>
                <path stroke="#ACDAB9" d="m30.06-.771-10.358 28.97c-.168.434-.472.662-.792.731-.313.069-.682-.007-1.021-.323l-4.465-4.192-6.288 5.446c-.25.214-.483.349-.687.42-1.53-.739-1.454-1.06-1.454-1.403v-6.793c0-.976.512-2.137 1.338-2.741L19.276 8.738 5.588 15.455c-.317.163-.706.22-1.082.17a1.84 1.84 0 0 1-1.004-.456L-.11 11.78c-.357-.333-.437-.706-.368-1.02.068-.307.295-.612.753-.775L30.06-.771z" fill="#FFF" fill-rule="evenodd"/>
            </g>
        </g>
    </g>
</svg>
