<svg width="327" height="192" viewBox="0 0 327 192" xmlns="http://www.w3.org/2000/svg" xmlns:xlink="http://www.w3.org/1999/xlink">
    <defs>
        <filter x="-1.4%" y="-2.6%" width="105.4%" height="110.3%" filterUnits="objectBoundingBox" id="wxbb21vtxa">
            <feOffset dx="5" dy="5" in="SourceAlpha" result="shadowOffsetOuter1"/>
            <feComposite in="shadowOffsetOuter1" in2="SourceAlpha" operator="out" result="shadowOffsetOuter1"/>
            <feColorMatrix values="0 0 0 0 0.945098039 0 0 0 0 0.952941176 0 0 0 0 0.97254902 0 0 0 1 0" in="shadowOffsetOuter1"/>
        </filter>
        <filter x="-5%" y="-5%" width="120.1%" height="120.1%" filterUnits="objectBoundingBox" id="1zyuu9t9lc">
            <feOffset dx="3" dy="3" in="SourceAlpha" result="shadowOffsetOuter1"/>
            <feComposite in="shadowOffsetOuter1" in2="SourceAlpha" operator="out" result="shadowOffsetOuter1"/>
            <feColorMatrix values="0 0 0 0 0.945098039 0 0 0 0 0.952941176 0 0 0 0 0.97254902 0 0 0 1 0" in="shadowOffsetOuter1"/>
        </filter>
        <filter x="-1.7%" y="-5.6%" width="106.7%" height="122.3%" filterUnits="objectBoundingBox" id="ozbt0dbyoe">
            <feOffset dx="5" dy="5" in="SourceAlpha" result="shadowOffsetOuter1"/>
            <feComposite in="shadowOffsetOuter1" in2="SourceAlpha" operator="out" result="shadowOffsetOuter1"/>
            <feColorMatrix values="0 0 0 0 0.920329353 0 0 0 0 0.929384126 0 0 0 0 0.95202106 0 0 0 1 0" in="shadowOffsetOuter1"/>
        </filter>
        <filter x="-2%" y="-2.6%" width="107.9%" height="107.7%" filterUnits="objectBoundingBox" id="on7f1a78mg">
            <feOffset dx="6" dy="3" in="SourceAlpha" result="shadowOffsetOuter1"/>
            <feComposite in="shadowOffsetOuter1" in2="SourceAlpha" operator="out" result="shadowOffsetOuter1"/>
            <feColorMatrix values="0 0 0 0 0.945098039 0 0 0 0 0.952941176 0 0 0 0 0.97254902 0 0 0 1 0" in="shadowOffsetOuter1"/>
        </filter>
        <filter x="-8.4%" y="-8.4%" width="126.9%" height="126.8%" filterUnits="objectBoundingBox" id="b44aga7kmi">
            <feMorphology radius="1" operator="dilate" in="SourceAlpha" result="shadowSpreadOuter1"/>
            <feOffset dx="3" dy="3" in="shadowSpreadOuter1" result="shadowOffsetOuter1"/>
            <feComposite in="shadowOffsetOuter1" in2="SourceAlpha" operator="out" result="shadowOffsetOuter1"/>
            <feColorMatrix values="0 0 0 0 0.847058824 0 0 0 0 0.945098039 0 0 0 0 0.874509804 0 0 0 1 0" in="shadowOffsetOuter1"/>
        </filter>
        <path d="M7.692 70.05H175.91c2.674 0 3.644.28 4.622.802a5.452 5.452 0 0 1 2.268 2.268c.523.978.801 1.948.801 4.623v81.641c0 2.675-.278 3.645-.801 4.622a5.452 5.452 0 0 1-2.268 2.269c-.978.522-1.948.8-4.622.8H7.692c-2.675 0-3.645-.278-4.623-.8a5.452 5.452 0 0 1-2.268-2.269C.278 163.03 0 162.06 0 159.384V77.743c0-2.675.278-3.645.801-4.623a5.452 5.452 0 0 1 2.268-2.268c.978-.523 1.948-.801 4.623-.801z" id="tnzxgpl4xb"/>
        <path d="M20.055 84.978h19.598c1.783 0 2.43.185 3.082.534.651.349 1.163.86 1.512 1.512.348.652.534 1.299.534 3.082v19.598c0 1.783-.186 2.43-.534 3.081a3.635 3.635 0 0 1-1.512 1.512c-.652.349-1.299.535-3.082.535H20.055c-1.783 0-2.43-.186-3.082-.535a3.635 3.635 0 0 1-1.512-1.512c-.348-.651-.534-1.298-.534-3.081V90.106c0-1.783.186-2.43.534-3.082a3.635 3.635 0 0 1 1.512-1.512c.652-.349 1.299-.534 3.082-.534z" id="kdq764lbcd"/>
        <path d="M7.692 0h133.886c2.674 0 3.644.278 4.622.801a5.452 5.452 0 0 1 2.268 2.268c.523.978.801 1.948.801 4.623v29.397c0 2.675-.278 3.645-.801 4.622a5.452 5.452 0 0 1-2.268 2.268c-.978.523-1.948.802-4.622.802H7.692c-2.675 0-3.645-.279-4.623-.802a5.452 5.452 0 0 1-2.268-2.268C.278 40.734 0 39.764 0 37.09V7.692c0-2.675.278-3.645.801-4.623A5.452 5.452 0 0 1 3.07.801C4.047.278 5.017 0 7.692 0z" id="yph7ysfqxf"/>
        <path d="M129.466.099a5.451 5.451 0 0 1 2.855 1.454c.8.768 1.363 1.603 2.191 4.143l16.242 49.825a6 6 0 0 1-3.845 7.564l-.01.003-62.793 20.336-19.24 33.85-10.818-24.115-27.824 9.012c-2.542.823-3.549.857-4.64.662a5.451 5.451 0 0 1-2.854-1.455c-.8-.767-1.363-1.602-2.191-4.142L.297 47.41a6 6 0 0 1 3.845-7.564l.01-.003L124.828.76c2.542-.823 3.549-.858 4.64-.662z" id="25cixglphh"/>
        <path d="M22.709 6.067c.93-.48 1.03-.337.228.318L6.639 19.74c-.71.513-1.144 1.511-1.144 2.345v6.793c0 1.008.528 1.277 1.316.603l6.627-5.739 4.793 4.5c.377.351.817.254 1.002-.218L29.8.591c.185-.472-.073-.71-.567-.531L.445 10.454c-.497.177-.592.606-.213.96l3.612 3.39c.375.352 1.056.445 1.519.204l17.346-8.94z" id="qipsxmnkzj"/>
    </defs>
    <g fill="none" fill-rule="evenodd">
        <g transform="translate(0 .057)">
            <use fill="#000" filter="url(#wxbb21vtxa)" xlink:href="#tnzxgpl4xb"/>
            <path stroke="#D6DCEA" d="M175.91 70.55c2.533 0 3.458.247 4.386.743a4.959 4.959 0 0 1 2.063 2.063c.496.928.742 1.854.742 4.387v81.641c0 2.533-.246 3.459-.742 4.387a4.959 4.959 0 0 1-2.063 2.063c-.928.496-1.853.742-4.386.742H7.692c-2.533 0-3.459-.246-4.387-.742a4.959 4.959 0 0 1-2.063-2.063c-.496-.928-.742-1.854-.742-4.387V77.743c0-2.533.246-3.459.742-4.387a4.959 4.959 0 0 1 2.063-2.063c.928-.496 1.854-.742 4.387-.742z" stroke-linejoin="square" fill="#FFF"/>
        </g>
        <g transform="translate(0 .057)">
            <use fill="#000" filter="url(#1zyuu9t9lc)" xlink:href="#kdq764lbcd"/>
            <path stroke="#D6DCEA" d="M39.653 85.478c1.641 0 2.244.153 2.846.475a3.142 3.142 0 0 1 1.307 1.307c.322.602.475 1.204.475 2.846v19.598c0 1.641-.153 2.244-.475 2.846a3.142 3.142 0 0 1-1.307 1.306c-.602.322-1.205.476-2.846.476H20.055c-1.642 0-2.244-.154-2.846-.476a3.142 3.142 0 0 1-1.307-1.306c-.322-.602-.475-1.205-.475-2.846V90.106c0-1.642.153-2.244.475-2.846a3.142 3.142 0 0 1 1.307-1.307c.602-.322 1.204-.475 2.846-.475z" stroke-linejoin="square" fill="#FFF"/>
        </g>
        <path d="M18.997 129.045H69.1c.892 0 1.215.093 1.541.268.326.174.582.43.756.756.174.326.267.649.267 1.54v3.219c0 .891-.093 1.215-.267 1.54-.174.326-.43.582-.756.757-.326.174-.65.267-1.54.267H18.996c-.891 0-1.214-.093-1.54-.267a1.817 1.817 0 0 1-.756-.756c-.175-.326-.267-.65-.267-1.541v-3.219c0-.891.092-1.214.267-1.54.174-.326.43-.582.756-.756.326-.175.649-.268 1.54-.268z" fill="#FDE6B3"/>
        <path d="M18.997 143.651h40.255c.892 0 1.215.093 1.54.268.327.174.583.43.757.756.174.325.267.649.267 1.54v3.219c0 .891-.093 1.215-.267 1.54-.174.326-.43.582-.756.756-.326.175-.65.268-1.54.268H18.996c-.891 0-1.214-.093-1.54-.268a1.817 1.817 0 0 1-.756-.756c-.175-.325-.267-.649-.267-1.54v-3.219c0-.891.092-1.215.267-1.54.174-.326.43-.582.756-.756.326-.175.649-.268 1.54-.268z" fill="#FDE6B3" opacity=".402"/>
        <g transform="translate(92.547 141.757)">
            <use fill="#000" filter="url(#ozbt0dbyoe)" xlink:href="#yph7ysfqxf"/>
            <path stroke="#D6DCEA" d="M7.692.5h133.886c2.533 0 3.458.246 4.386.742a4.959 4.959 0 0 1 2.063 2.063c.496.928.742 1.854.742 4.387v29.397c0 2.533-.246 3.459-.742 4.387a4.959 4.959 0 0 1-2.063 2.063c-.928.496-1.853.742-4.386.742H7.692c-2.533 0-3.459-.246-4.387-.742a4.959 4.959 0 0 1-2.063-2.063C.746 40.548.5 39.622.5 37.089V7.692c0-2.533.246-3.459.742-4.387a4.959 4.959 0 0 1 2.063-2.063C4.233.746 5.16.5 7.692.5z" stroke-linejoin="square" fill="#FFF"/>
        </g>
        <path d="M107.263 155.192h88.49c.446 0 .608.046.771.133.163.087.29.215.378.378.087.163.134.325.134.77v3.407c0 .446-.047.608-.134.77a.909.909 0 0 1-.378.379c-.163.087-.325.133-.77.133h-88.49c-.447 0-.608-.046-.771-.133a.909.909 0 0 1-.378-.378c-.087-.163-.134-.325-.134-.77v-3.407c0-.446.047-.608.134-.77a.909.909 0 0 1 .378-.379c.163-.087.324-.133.77-.133zM107.263 167.133h57.144c.446 0 .607.047.77.134.163.087.291.215.378.378.088.163.134.324.134.77v3.407c0 .446-.046.607-.134.77a.909.909 0 0 1-.378.378c-.163.088-.324.134-.77.134h-57.144c-.446 0-.607-.046-.77-.134a.909.909 0 0 1-.378-.378c-.087-.163-.134-.324-.134-.77v-3.407c0-.446.047-.607.134-.77a.909.909 0 0 1 .378-.378c.163-.087.324-.134.77-.134z" fill="#F1F3F8"/>
        <g>
            <g transform="rotate(17 88.068 590.584)">
                <use fill="#000" filter="url(#on7f1a78mg)" xlink:href="#25cixglphh"/>
                <path stroke="#D6DCEA" d="M124.981 1.237c2.407-.78 3.362-.831 4.397-.646.992.178 1.87.625 2.597 1.323.758.728 1.278 1.531 2.062 3.937l16.242 49.825a5.483 5.483 0 0 1-.327 4.196 5.482 5.482 0 0 1-3.197 2.737l-62.988 20.4-18.849 33.16-10.597-23.624-28.251 9.15c-2.407.78-3.362.831-4.397.646a4.958 4.958 0 0 1-2.597-1.323c-.758-.728-1.278-1.531-2.062-3.937L.772 47.256A5.483 5.483 0 0 1 1.1 43.06a5.482 5.482 0 0 1 3.197-2.736z" stroke-linejoin="square" fill="#FFF"/>
            </g>
            <text transform="rotate(1 -947.546 9127.658)" font-family="LeckerliOne-Regular, Leckerli One" font-size="36" fill="#E7EAEF">
                        <tspan x="29.302" y="64.568">Hello</tspan>
                    </text>
        </g>
        <g fill-rule="nonzero">
            <g transform="translate(107.474 85.035)">
                <use fill="#000" filter="url(#b44aga7kmi)" xlink:href="#qipsxmnkzj"/>
                <path stroke="#ACDAB9" d="m30.06-.771-10.358 28.97c-.168.434-.472.662-.792.731-.313.069-.682-.007-1.021-.323l-4.465-4.192-6.288 5.446c-.25.214-.483.349-.687.42-1.53-.739-1.454-1.06-1.454-1.403v-6.793c0-.976.512-2.137 1.338-2.741L19.276 8.738 5.588 15.455c-.317.163-.706.22-1.082.17a1.84 1.84 0 0 1-1.004-.456L-.11 11.78c-.357-.333-.437-.706-.368-1.02.068-.307.295-.612.753-.775L30.06-.771z" fill="#FFF" fill-rule="evenodd"/>
            </g>
        </g>
    </g>
</svg>
