<svg width="245" height="173" viewBox="0 0 245 173" xmlns="http://www.w3.org/2000/svg" xmlns:xlink="http://www.w3.org/1999/xlink">
    <defs>
        <filter x="-25%" y="-20%" width="137.5%" height="130%" filterUnits="objectBoundingBox" id="1ktrlwmv5a">
            <feMorphology radius="1" operator="dilate" in="SourceAlpha" result="shadowSpreadOuter1"/>
            <feOffset dx="-2" dy="-2" in="shadowSpreadOuter1" result="shadowOffsetOuter1"/>
            <feComposite in="shadowOffsetOuter1" in2="SourceAlpha" operator="out" result="shadowOffsetOuter1"/>
            <feColorMatrix values="0 0 0 0 0.931467042 0 0 0 0 0.920739709 0 0 0 0 0.982421875 0 0 0 1 0" in="shadowOffsetOuter1"/>
        </filter>
        <filter x="-3.2%" y="-2.7%" width="110%" height="110.7%" filterUnits="objectBoundingBox" id="iplnau385c">
            <feMorphology radius=".5" operator="dilate" in="SourceAlpha" result="shadowSpreadOuter1"/>
            <feOffset dx="4" dy="6" in="shadowSpreadOuter1" result="shadowOffsetOuter1"/>
            <feComposite in="shadowOffsetOuter1" in2="SourceAlpha" operator="out" result="shadowOffsetOuter1"/>
            <feColorMatrix values="0 0 0 0 0.945098039 0 0 0 0 0.952941176 0 0 0 0 0.97254902 0 0 0 1 0" in="shadowOffsetOuter1"/>
        </filter>
        <filter x="-2.4%" y="-2%" width="108.5%" height="108.2%" filterUnits="objectBoundingBox" id="199vwvatme">
            <feMorphology radius=".5" operator="dilate" in="SourceAlpha" result="shadowSpreadOuter1"/>
            <feOffset dx="4" dy="4" in="shadowSpreadOuter1" result="shadowOffsetOuter1"/>
            <feComposite in="shadowOffsetOuter1" in2="SourceAlpha" operator="out" result="shadowOffsetOuter1"/>
            <feColorMatrix values="0 0 0 0 0.945098039 0 0 0 0 0.952941176 0 0 0 0 0.97254902 0 0 0 1 0" in="shadowOffsetOuter1"/>
        </filter>
        <path d="M11.164 74.269c1.1 0 2-.923 2-2.052h-4c0 1.129.89 2.052 2 2.052zm6-6.154v-5.128c0-3.15-1.64-5.785-4.5-6.482v-.698c0-.851-.67-1.538-1.5-1.538s-1.5.687-1.5 1.538v.698c-2.87.697-4.5 3.323-4.5 6.482v5.128l-2 2.051v1.026h16v-1.026l-2-2.051z" id="x0roztsjmb"/>
        <path d="M155 110c5.331 0 10.486-.759 15.36-2.174 1.435-.416 1.26 1.635 1.26 6.869v14.441C197.207 99.712 210 75 210 55c0-30.376-24.624-55-55-55s-55 24.624-55 55 24.624 55 55 55z" id="5fuvciu9qd"/>
        <path d="M72 146.89c12.816 0 21.363-6.957 22.273-2.147.607 3.207 1.42 10.28 2.44 21.22 15.567-24.55 24.709-43.055 27.427-55.51 1.184-5.426 1.86-9.473 1.86-14.508C126 67.257 100.719 44 72 44S20 67.257 20 95.945c0 28.689 16.445 50.945 52 50.945z" id="lh3c704v1f"/>
    </defs>
    <g fill="none" fill-rule="evenodd">
        <g fill-rule="nonzero" transform="rotate(22 10.591 75.058)">
            <use fill="#000" filter="url(#1ktrlwmv5a)" xlink:href="#x0roztsjmb"/>
            <path stroke="#CDC7EF" d="M13.616 71.717a2.582 2.582 0 0 1-.682 2.298 2.468 2.468 0 0 1-1.77.754c-.694 0-1.32-.287-1.772-.751a2.59 2.59 0 0 1-.682-2.3zM11.164 53.77c.554 0 1.056.229 1.419.6.358.368.58.876.58 1.438 1.346.735 2.422 1.564 3.185 2.664.853 1.227 1.316 2.799 1.316 4.516v4.924l2 2.052v1.729h-17v-1.73l2-2.05v-4.925c0-1.723.46-3.295 1.311-4.521a5.984 5.984 0 0 1 3.189-2.342c0-.88.222-1.387.58-1.754.363-.372.865-.601 1.42-.601z" fill="#FFF" fill-rule="evenodd"/>
        </g>
        <path d="M141.566 139.842a23.969 23.969 0 0 0-5.983-1.842c-.258.457-.559 1.07-.767 1.56a22.411 22.411 0 0 0-6.63 0 16.529 16.529 0 0 0-.776-1.56c-2.1.356-4.11.984-5.987 1.847-3.787 5.607-4.813 11.075-4.3 16.466 2.511 1.838 4.945 2.954 7.338 3.685a17.82 17.82 0 0 0 1.572-2.537 15.588 15.588 0 0 1-2.475-1.18c.207-.15.41-.308.606-.47 4.772 2.187 9.957 2.187 14.671 0 .199.162.402.32.607.47a15.55 15.55 0 0 1-2.48 1.183c.455.89.98 1.74 1.572 2.536a24.058 24.058 0 0 0 7.343-3.687c.602-6.249-1.029-11.667-4.311-16.47zm-14.883 13.156c-1.433 0-2.608-1.31-2.608-2.907 0-1.596 1.15-2.908 2.608-2.908 1.457 0 2.632 1.31 2.607 2.908.002 1.596-1.15 2.907-2.607 2.907zm9.634 0c-1.432 0-2.607-1.31-2.607-2.907 0-1.596 1.15-2.908 2.607-2.908 1.458 0 2.633 1.31 2.607 2.908 0 1.596-1.15 2.907-2.607 2.907z" fill="#B5D4FF" fill-rule="nonzero"/>
        <path d="M241 1h-24a4 4 0 0 0-4 4v16a4 4 0 0 0 4 4h24a4 4 0 0 0 4-4V5a4 4 0 0 0-4-4zm.853 5.173-10.293 8.56a4 4 0 0 1-5.12 0l-10.293-8.56a1.333 1.333 0 0 1 1.706-2.04l10.294 8.56a1.333 1.333 0 0 0 1.706 0l10.294-8.56a1.335 1.335 0 0 1 1.706 2.054v-.014z" fill="#FFD2D0" fill-rule="nonzero"/>
        <g transform="translate(4 1)">
            <use fill="#000" filter="url(#iplnau385c)" xlink:href="#5fuvciu9qd"/>
            <use stroke="#D6DCEA" fill="#FFF" xlink:href="#5fuvciu9qd"/>
        </g>
        <g transform="matrix(-1 0 0 1 150 1)">
            <use fill="#000" filter="url(#199vwvatme)" xlink:href="#lh3c704v1f"/>
            <use stroke="#D6DCEA" fill="#FFF" xlink:href="#lh3c704v1f"/>
        </g>
        <g fill-rule="nonzero">
            <path d="M143.25 66c0 8.698 7.052 15.75 15.75 15.75s15.75-7.052 15.75-15.75" stroke="#FFE19D" stroke-width="4" stroke-linecap="round"/>
            <g fill="#FFE19D">
                <path d="M148.476 48.363a4.275 4.275 0 0 1-6.045 0l-.053-.054a4.503 4.503 0 0 1-.045-.044l-3.623-3.623a4.413 4.413 0 0 1 6.24-6.241l.698.699.92-.92a4.275 4.275 0 1 1 6.045 6.046l-4.137 4.137zM165.26 38.401a4.413 4.413 0 0 1 6.24 0l.697.698.92-.919a4.275 4.275 0 1 1 6.046 6.046l-4.014 4.013a4.503 4.503 0 0 1-.025.026l-.027.026-.07.072a4.275 4.275 0 0 1-6.046 0l-.053-.054a4.502 4.502 0 0 1-.045-.044l-3.623-3.623a4.413 4.413 0 0 1 0-6.241z"/>
            </g>
        </g>
        <g fill-rule="nonzero">
            <path d="M61.25 106c0 8.698 7.052 15.75 15.75 15.75s15.75-7.052 15.75-15.75" stroke="#CEEAD6" stroke-linecap="round" stroke-width="4"/>
            <g fill="#CEEAD6" transform="translate(55.4 74.5)">
                <circle cx="8.325" cy="8.325" r="8.325"/>
                <path d="M39.284 3.798a1.575 1.575 0 0 1-.688 2.118L33.4 8.562l4.992 2.223a1.575 1.575 0 0 1-1.281 2.878l-8.222-3.661a1.575 1.575 0 0 1 .663-3.014l7.614-3.879a1.575 1.575 0 0 1 2.118.689z"/>
            </g>
        </g>
    </g>
</svg>
