<svg width="28" height="20" viewBox="0 0 28 20" xmlns="http://www.w3.org/2000/svg" xmlns:xlink="http://www.w3.org/1999/xlink">
    <defs>
        <rect id="c5fh2dbjwa" x="0" y="0" width="28" height="20" rx="2"/>
    </defs>
    <g fill="none" fill-rule="evenodd">
        <mask id="opi8tcdncb" fill="#fff">
            <use xlink:href="#c5fh2dbjwa"/>
        </mask>
        <use fill="#FFF" xlink:href="#c5fh2dbjwa"/>
        <path fill="#1F6BD3" mask="url(#opi8tcdncb)" d="M0 0h28v20H0z"/>
        <path d="M14 2.667a7.333 7.333 0 1 1 0 14.666 7.333 7.333 0 0 1 0-14.666zm1.986 8h-3.972c.098 2.249.685 4.237 1.601 5.322a6.77 6.77 0 0 0 .77-.001c.916-1.084 1.503-3.072 1.6-5.322zm3.977 0H17.32c-.073 1.861-.453 3.586-1.103 4.91a6.006 6.006 0 0 0 3.746-4.91zm-9.283 0H8.037a6.006 6.006 0 0 0 3.747 4.91c-.651-1.324-1.031-3.049-1.104-4.91zm1.103-6.245-.118.05a6.005 6.005 0 0 0-3.628 4.862h2.643c.073-1.862.453-3.588 1.103-4.912zm4.434 0 .043.09c.624 1.311.989 3.001 1.06 4.821h2.643a6.006 6.006 0 0 0-3.746-4.91zM14 4c-.13 0-.258.004-.385.012-.916 1.084-1.503 3.072-1.6 5.32h3.97c-.097-2.248-.684-4.236-1.6-5.32A6.457 6.457 0 0 0 14 4z" fill="#FFF" mask="url(#opi8tcdncb)"/>
    </g>
</svg>
