<svg width="110" height="40" viewBox="0 0 110 40" xmlns="http://www.w3.org/2000/svg">
    <g fill-rule="nonzero" fill="none">
        <path fill="#00B67A" d="M0 19.608h20.625V40H0zM22.344 19.608h20.625V40H22.344zM44.688 19.608h20.625V40H44.688zM67.031 19.608h20.625V40H67.031z"/>
        <path fill="#FFF" opacity=".103" d="M89.61 19.608H110V40H89.61z"/>
        <path fill="#00B67A" d="M89.375 19.608h10.313V40H89.375z"/>
        <path d="m10.313 33.351 3.136-.786 1.31 3.994-4.447-3.208zm7.218-5.161H12.01l-1.697-5.141-1.698 5.14H3.094l4.469 3.187-1.698 5.14 4.469-3.186 2.75-1.954 4.447-3.186zM32.656 33.351l3.137-.786 1.31 3.994-4.447-3.208zm7.219-5.161h-5.521l-1.698-5.141-1.697 5.14h-5.521l4.468 3.187-1.697 5.14 4.469-3.186 2.75-1.954 4.447-3.186zM55 33.351l3.137-.786 1.31 3.994L55 33.35zm7.219-5.161h-5.522L55 23.049l-1.697 5.14H47.78l4.469 3.187-1.697 5.14 4.468-3.186 2.75-1.954 4.448-3.186zM77.344 33.351l3.136-.786 1.311 3.994-4.447-3.208zm7.219-5.161H79.04l-1.697-5.141-1.698 5.14h-5.521l4.469 3.187-1.698 5.14 4.47-3.186 2.75-1.954 4.447-3.186zM99.688 33.351l3.136-.786 1.31 3.994-4.447-3.208zm7.218-5.161h-5.521l-1.698-5.141-1.697 5.14H92.47l4.469 3.187-1.698 5.14 4.469-3.186 2.75-1.954 4.447-3.186z" fill="#FFF"/>
        <g>
            <path d="M16.516 5.56h6.363v1.206h-2.502v6.783h-1.376V6.766h-2.49V5.56h.005zm6.091 2.204h1.177v1.117h.022c.039-.158.11-.31.216-.457a2.02 2.02 0 0 1 .383-.406c.15-.124.316-.22.5-.299.182-.073.371-.113.56-.113.144 0 .25.006.305.012.055.005.11.017.172.022v1.23a3.945 3.945 0 0 0-.272-.04 2.268 2.268 0 0 0-.272-.017 1.383 1.383 0 0 0-1.087.507c-.139.17-.25.373-.333.62-.083.249-.122.53-.122.852v2.752h-1.254v-5.78h.005zm9.099 5.785h-1.232v-.806h-.022a1.725 1.725 0 0 1-.688.7 1.86 1.86 0 0 1-.932.264c-.749 0-1.292-.186-1.625-.564-.333-.377-.5-.947-.5-1.708v-3.67h1.254v3.546c0 .507.094.868.289 1.077.188.208.46.316.804.316.266 0 .483-.04.66-.125.178-.084.322-.191.427-.332.111-.136.19-.305.239-.496.05-.192.072-.4.072-.626V7.77h1.254v5.78zm2.136-1.855c.039.372.177.632.416.784.244.147.533.226.871.226.116 0 .25-.012.4-.029.15-.017.293-.056.421-.107a.81.81 0 0 0 .327-.231.567.567 0 0 0 .117-.395.549.549 0 0 0-.178-.4 1.246 1.246 0 0 0-.421-.254 4.179 4.179 0 0 0-.588-.163c-.222-.045-.444-.096-.672-.147a6.291 6.291 0 0 1-.676-.192 2.055 2.055 0 0 1-.583-.304 1.333 1.333 0 0 1-.41-.485c-.106-.197-.156-.44-.156-.733 0-.316.078-.575.228-.79.15-.214.344-.383.571-.512.233-.13.488-.22.771-.277.283-.05.555-.079.81-.079.294 0 .577.034.843.096.267.062.51.164.727.31.217.141.394.327.538.553.145.225.233.502.272.823h-1.31c-.06-.304-.193-.513-.41-.615a1.659 1.659 0 0 0-.743-.157c-.089 0-.194.005-.316.022a1.708 1.708 0 0 0-.344.085.745.745 0 0 0-.272.18.44.44 0 0 0-.111.31c0 .158.055.282.16.378.106.096.245.175.417.243.172.062.366.118.588.163.222.045.45.096.682.147.228.05.45.118.672.191.222.074.416.175.588.305s.31.287.416.48c.105.19.16.433.16.715 0 .344-.077.632-.232.874a1.858 1.858 0 0 1-.6.58 2.79 2.79 0 0 1-.82.328 4.056 4.056 0 0 1-1.892-.023 2.413 2.413 0 0 1-.794-.372c-.222-.169-.4-.378-.527-.626s-.194-.547-.205-.89h1.265v-.012zm4.139-3.93h.948V6.028h1.254v1.736h1.132v.953h-1.132v3.09c0 .135.006.248.017.35a.65.65 0 0 0 .077.248c.04.067.1.118.183.152.084.034.19.05.333.05.09 0 .178 0 .267-.005.088-.006.177-.017.266-.04v.987c-.139.017-.277.028-.405.045a3.192 3.192 0 0 1-.405.023c-.333 0-.6-.034-.799-.096-.2-.062-.36-.158-.472-.282a.984.984 0 0 1-.233-.462 3.53 3.53 0 0 1-.072-.637V8.728h-.948v-.964h-.011zm4.221 0h1.188v.784h.022a1.56 1.56 0 0 1 .738-.722c.316-.146.654-.22 1.026-.22.45 0 .838.08 1.17.243.334.158.611.378.833.66.222.281.383.608.494.98.11.373.166.773.166 1.196 0 .389-.05.767-.15 1.128-.1.366-.25.688-.45.97-.199.281-.454.501-.765.67-.31.17-.67.254-1.093.254-.183 0-.366-.017-.549-.05a2.39 2.39 0 0 1-.527-.164 1.898 1.898 0 0 1-.826-.694h-.023v2.887h-1.254V7.764zm4.383 2.898c0-.259-.033-.513-.1-.76a2.068 2.068 0 0 0-.3-.655 1.536 1.536 0 0 0-.493-.457 1.367 1.367 0 0 0-.682-.174c-.527 0-.927.186-1.193.558-.266.372-.4.868-.4 1.488 0 .294.034.564.106.812.072.248.172.463.316.643.139.18.305.322.5.423.194.107.421.158.676.158.289 0 .527-.062.727-.18.2-.119.36-.277.488-.463.128-.192.222-.406.278-.648.05-.243.077-.49.077-.745zM48.8 5.56h1.254v1.206h-1.254V5.56zm0 2.204h1.254v5.785h-1.254V7.764zm2.374-2.204h1.254v7.99h-1.254V5.56zm5.099 8.147c-.455 0-.86-.079-1.215-.231a2.682 2.682 0 0 1-.904-.632 2.76 2.76 0 0 1-.56-.964 3.777 3.777 0 0 1-.195-1.229c0-.44.067-.846.194-1.218a2.76 2.76 0 0 1 .56-.964c.245-.27.55-.48.905-.632.355-.152.76-.23 1.215-.23.455 0 .86.078 1.215.23.355.153.654.367.904.632.244.27.433.592.56.964.128.372.195.778.195 1.218 0 .446-.067.857-.195 1.23a2.76 2.76 0 0 1-.56.963c-.244.271-.55.48-.904.632-.355.152-.76.231-1.215.231zm0-1.01c.277 0 .521-.061.727-.18.205-.118.371-.276.504-.468.134-.191.228-.411.295-.654a3.04 3.04 0 0 0 .094-.744c0-.248-.033-.49-.094-.739a1.944 1.944 0 0 0-.295-.654A1.54 1.54 0 0 0 57 8.796a1.435 1.435 0 0 0-.727-.18c-.278 0-.522.062-.727.18a1.603 1.603 0 0 0-.505.462 2.059 2.059 0 0 0-.294.654c-.06.249-.094.491-.094.74 0 .253.033.5.094.743s.161.463.294.654c.133.192.3.35.505.468.205.124.45.18.727.18zm3.24-4.933h.948V6.028h1.254v1.736h1.132v.953h-1.132v3.09c0 .135.006.248.017.35a.65.65 0 0 0 .078.248c.038.067.1.118.183.152.083.034.188.05.333.05.088 0 .177 0 .266-.005.089-.006.177-.017.266-.04v.987c-.139.017-.277.028-.405.045a3.192 3.192 0 0 1-.405.023c-.333 0-.599-.034-.799-.096-.2-.062-.36-.158-.471-.282a.984.984 0 0 1-.233-.462 3.53 3.53 0 0 1-.072-.637V8.728h-.95v-.964h-.01z" fill="#FFF"/>
            <path fill="#00B67A" d="M15.051 5.56H9.304L7.528 0l-1.78 5.56L0 5.554l4.655 3.44-1.781 5.553 4.654-3.434 4.65 3.434-1.776-5.554 4.65-3.433z"/>
            <path fill="#005128" d="m10.802 10.25-.4-1.257-2.874 2.12z"/>
        </g>
    </g>
</svg>
