<svg width="28" height="20" viewBox="0 0 28 20" xmlns="http://www.w3.org/2000/svg" xmlns:xlink="http://www.w3.org/1999/xlink">
    <defs>
        <rect id="15pduyoria" x="0" y="0" width="28" height="20" rx="2"/>
    </defs>
    <g fill="none" fill-rule="evenodd">
        <mask id="h4z0wyvb4b" fill="#fff">
            <use xlink:href="#15pduyoria"/>
        </mask>
        <use fill="#FFF" xlink:href="#15pduyoria"/>
        <path fill="#0A17A7" mask="url(#h4z0wyvb4b)" d="M0 0h28v20H0z"/>
        <path d="m29.282-1.916 1.492 2.21-9.449 6.373H28v6.666h-6.675l9.449 6.373-1.492 2.21-11.95-8.06.001 7.477h-6.666v-7.477l-11.95 8.06-1.49-2.21 9.447-6.373H0V6.667h6.674L-2.774.294l1.492-2.21 11.948 8.06v-7.477h6.667v7.477l11.95-8.06z" fill="#FFF" mask="url(#h4z0wyvb4b)"/>
        <path stroke="#DB1F35" stroke-width=".667" stroke-linecap="round" mask="url(#h4z0wyvb4b)" d="M18.668 6.332 31.333-2"/>
        <path stroke="#DB1F35" stroke-width=".667" stroke-linecap="round" mask="url(#h4z0wyvb4b)" transform="matrix(1 0 0 -1 0 35.048)" d="m20.013 21.35 11.354-7.652"/>
        <path stroke="#DB1F35" stroke-width=".667" stroke-linecap="round" mask="url(#h4z0wyvb4b)" d="M8.006 6.31-3.837-1.671"/>
        <path stroke="#DB1F35" stroke-width=".667" stroke-linecap="round" mask="url(#h4z0wyvb4b)" transform="matrix(1 0 0 -1 0 35.915)" d="m9.29 22.31-13.127-8.705"/>
        <path fill="#E6273E" mask="url(#h4z0wyvb4b)" d="M0 12h12v8h4v-8h12V8H16V0h-4v8H0z"/>
    </g>
</svg>
