<svg width="23" height="34" viewBox="0 0 23 34" xmlns="http://www.w3.org/2000/svg">
    <g fill="none" fill-rule="evenodd">
        <path d="M0 9h23v8.154c0 1.337-.14 1.822-.4 2.311a2.726 2.726 0 0 1-1.135 1.134c-.489.262-.974.401-2.31.401H3.844c-1.336 0-1.821-.14-2.31-.4A2.726 2.726 0 0 1 .4 19.464C.139 18.976 0 18.491 0 17.155V9z" fill="#1F6BD3"/>
        <path d="M3.282 11h16.436c.446 0 .607.046.77.134.163.087.291.215.378.378.088.163.134.324.134.77v5.436c0 .446-.046.607-.134.77a.909.909 0 0 1-.378.378c-.163.088-.324.134-.77.134H3.282c-.446 0-.607-.046-.77-.134a.909.909 0 0 1-.378-.378c-.088-.163-.134-.324-.134-.77v-5.436c0-.446.046-.607.134-.77a.909.909 0 0 1 .378-.378c.163-.088.324-.134.77-.134z" fill="#FFF"/>
        <path d="M3.846 0h15.308c1.337 0 1.822.14 2.311.4.49.262.873.646 1.134 1.135.262.489.401.974.401 2.31V15H0V3.846c0-1.337.14-1.822.4-2.311A2.726 2.726 0 0 1 1.536.4C2.024.139 2.509 0 3.845 0z" fill="#1F6BD3"/>
        <path d="M3.282 2h16.436c.446 0 .607.046.77.134.163.087.291.215.378.378.088.163.134.324.134.77V13H2V3.282c0-.446.046-.607.134-.77a.909.909 0 0 1 .378-.378c.163-.088.324-.134.77-.134z" fill="#FFF"/>
        <g transform="translate(0 22)">
            <path d="M3.846 0h15.308c1.337 0 1.822.14 2.311.4.49.262.873.646 1.134 1.135.262.489.401.974.401 2.31v4.31c0 1.336-.14 1.821-.4 2.31a2.726 2.726 0 0 1-1.135 1.134c-.489.262-.974.401-2.31.401H3.844c-1.336 0-1.821-.14-2.31-.4A2.726 2.726 0 0 1 .4 10.464C.139 9.976 0 9.491 0 8.155v-4.31c0-1.336.14-1.821.4-2.31A2.726 2.726 0 0 1 1.536.4C2.024.139 2.509 0 3.845 0z" fill="#1F6BD3"/>
            <path d="M3.282 2h16.436c.446 0 .607.046.77.134.163.087.291.215.378.378.088.163.134.324.134.77v5.436c0 .446-.046.607-.134.77a.909.909 0 0 1-.378.378c-.163.088-.324.134-.77.134H3.282c-.446 0-.607-.046-.77-.134a.909.909 0 0 1-.378-.378C2.046 9.325 2 9.164 2 8.718V3.282c0-.446.046-.607.134-.77a.909.909 0 0 1 .378-.378c.163-.088.324-.134.77-.134z" fill="#FFF"/>
            <path d="M9 5h8a1 1 0 0 1 0 2H9a1 1 0 1 1 0-2z" fill="#1F6BD3"/>
            <circle fill="#1F6BD3" cx="6" cy="6" r="1"/>
        </g>
        <path d="M2 7h3a1 1 0 1 1 0 2H2a1 1 0 1 1 0-2z" fill="#1F6BD3"/>
    </g>
</svg>
