<svg width="156" height="37" viewBox="0 0 156 37" xmlns="http://www.w3.org/2000/svg" xmlns:xlink="http://www.w3.org/1999/xlink">
    <defs>
        <linearGradient x1="42.406%" y1="93.591%" x2="57.767%" y2="20.015%" id="zx6k61xhmb">
            <stop stop-color="#176EFF" offset="0%"/>
            <stop stop-color="#17AFFF" offset="100%"/>
        </linearGradient>
        <path d="M16.71 0C11.045 0 5.642 4.603 4.643 10.282L.006 36.638c-.036.2.098.362.297.362h9.898l6.51-37z" id="wro5xmav1a"/>
    </defs>
    <g fill="none" fill-rule="evenodd">
        <g fill="#FFF" fill-rule="nonzero">
            <path d="M30.344 23V11.8h2.464v8.96h5.584V23zM41.36 23V11.8h2.464V23zM51.192 23.08 46.664 11.8h2.72l2.928 7.888L55.24 11.8h2.656l-4.528 11.28zM60.624 23V11.8h8.448v2.192h-6v2.272h5.28v2.192h-5.28v2.352h6.08V23zM78.144 23V11.8h4.576c1.323 0 2.368.357 3.136 1.072.768.715 1.152 1.659 1.152 2.832 0 1.248-.427 2.216-1.28 2.904-.853.688-1.936 1.032-3.248 1.032h-1.872V23h-2.464zm2.464-5.552h1.952c.608 0 1.085-.16 1.432-.48.347-.32.52-.736.52-1.248 0-.544-.176-.963-.528-1.256-.352-.293-.843-.44-1.472-.44h-1.904v3.424zM89.832 23V11.8h5.12c1.419 0 2.507.379 3.264 1.136.64.64.96 1.504.96 2.592 0 1.717-.8 2.875-2.4 3.472l2.736 4h-2.88L94.2 19.416h-1.904V23h-2.464zm2.464-5.76h2.496c.597 0 1.061-.147 1.392-.44.33-.293.496-.685.496-1.176 0-.523-.17-.92-.512-1.192-.341-.272-.816-.408-1.424-.408h-2.448v3.216zM112.096 21.512c-1.13 1.12-2.55 1.68-4.256 1.68-1.707 0-3.123-.56-4.248-1.68-1.125-1.12-1.688-2.49-1.688-4.112 0-1.61.568-2.979 1.704-4.104 1.136-1.125 2.557-1.688 4.264-1.688 1.707 0 3.123.56 4.248 1.68 1.125 1.12 1.688 2.49 1.688 4.112 0 1.61-.57 2.981-1.712 4.112zm-6.656-1.616c.64.683 1.45 1.024 2.432 1.024.981 0 1.787-.339 2.416-1.016.63-.677.944-1.512.944-2.504 0-.981-.32-1.813-.96-2.496-.64-.683-1.45-1.024-2.432-1.024-.981 0-1.787.339-2.416 1.016-.63.677-.944 1.512-.944 2.504 0 .981.32 1.813.96 2.496zM115.352 23l3.904-5.696-3.744-5.504h2.88l2.352 3.632 2.368-3.632h2.8l-3.744 5.472L126.072 23h-2.88l-2.512-3.84-2.528 3.84zM129.024 23V11.8h2.464V23zM135.288 23V11.8h8.448v2.192h-6v2.272h5.28v2.192h-5.28v2.352h6.08V23zM150.992 23.16c-1.835 0-3.419-.597-4.752-1.792l1.456-1.744c1.099.907 2.213 1.36 3.344 1.36.501 0 .896-.096 1.184-.288a.91.91 0 0 0 .432-.8c0-.32-.15-.579-.448-.776-.299-.197-.901-.413-1.808-.648-.64-.16-1.157-.317-1.552-.472a5.174 5.174 0 0 1-1.128-.616 2.262 2.262 0 0 1-.784-.968c-.165-.39-.248-.856-.248-1.4 0-1.013.365-1.83 1.096-2.448.73-.619 1.672-.928 2.824-.928 1.59 0 2.976.475 4.16 1.424l-1.28 1.856c-1.056-.736-2.027-1.104-2.912-1.104-.459 0-.813.093-1.064.28a.868.868 0 0 0-.376.728c0 .363.155.635.464.816.31.181.96.4 1.952.656 1.216.32 2.112.73 2.688 1.232.576.501.864 1.221.864 2.16 0 1.088-.376 1.939-1.128 2.552-.752.613-1.747.92-2.984.92z"/>
        </g>
        <path d="M27.86 37H11.424l1.58-8.978h7.477c4.948 0 8.252 4.02 7.38 8.978" fill="#FFF"/>
        <g>
            <mask id="tu6s4g11uc" fill="#fff">
                <use xlink:href="#wro5xmav1a"/>
            </mask>
            <path d="M16.71 0C11.045 0 5.642 4.603 4.643 10.282L.006 36.638c-.036.2.098.362.297.362h9.898l6.51-37z" fill="url(#zx6k61xhmb)" mask="url(#tu6s4g11uc)"/>
        </g>
    </g>
</svg>
