<svg width="21" height="32" viewBox="0 0 21 32" xmlns="http://www.w3.org/2000/svg">
    <g fill="none" fill-rule="evenodd">
        <path d="M5.128 0h10.744c1.783 0 2.43.186 3.082.534.652.349 1.163.86 1.512 1.512.348.652.534 1.299.534 3.082V26.43c0 1.783-.186 2.43-.534 3.081a3.635 3.635 0 0 1-1.512 1.512c-.652.349-1.299.534-3.082.534H5.128c-1.783 0-2.43-.185-3.082-.534a3.635 3.635 0 0 1-1.512-1.512C.186 28.86 0 28.213 0 26.43V5.128c0-1.783.186-2.43.534-3.082A3.635 3.635 0 0 1 2.046.534C2.698.186 3.345 0 5.128 0z" fill="#B869AC"/>
        <path d="M4.314 1.803h12.372c.892 0 1.215.093 1.54.267.327.175.583.43.757.756.174.326.267.65.267 1.541V27.19c0 .892-.093 1.215-.267 1.54-.174.327-.43.583-.756.757-.326.174-.65.267-1.54.267H4.313c-.892 0-1.215-.093-1.54-.267a1.817 1.817 0 0 1-.757-.756c-.174-.326-.267-.65-.267-1.54V4.366c0-.891.093-1.215.267-1.54.174-.326.43-.582.756-.757.326-.174.65-.267 1.54-.267z" fill="#FFF"/>
        <circle fill="#B869AC" fill-rule="nonzero" cx="6.75" cy="6.91" r="1.5"/>
        <circle fill="#B869AC" fill-rule="nonzero" cx="6.75" cy="15.926" r="1.5"/>
        <circle fill="#B869AC" fill-rule="nonzero" cx="6.75" cy="25.943" r="1.5"/>
        <path fill="#B869AC" d="M.75 10.369h19.5v1.803H.75zM.75 19.385h19.5v1.803H.75z"/>
    </g>
</svg>
