<svg width="21" height="36" viewBox="0 0 21 36" xmlns="http://www.w3.org/2000/svg">
    <g fill="none" fill-rule="evenodd">
        <path d="M17.154.385c1.337 0 1.822.14 2.311.4.49.262.873.646 1.134 1.135.262.489.401.974.401 2.311V31.36c0 1.337-.14 1.822-.4 2.311a2.726 2.726 0 0 1-1.135 1.134c-.489.262-.974.4-2.31.4H3.844c-1.336 0-1.821-.138-2.31-.4A2.726 2.726 0 0 1 .4 33.67C.139 33.181 0 32.696 0 31.36V4.23C0 2.894.14 2.41.4 1.92A2.726 2.726 0 0 1 1.536.786c.489-.262.974-.4 2.31-.4h13.31zM6.22 1.754H4.35c-.891 0-1.215.093-1.54.267-.327.174-.582.43-.757.756-.174.326-.267.65-.267 1.54v26.547c0 .891.093 1.214.267 1.54.175.326.43.582.756.756.326.175.65.268 1.541.268H16.65c.891 0 1.215-.093 1.54-.268.327-.174.582-.43.757-.756.174-.326.267-.649.267-1.54V4.318c0-.892-.093-1.215-.267-1.541a1.817 1.817 0 0 0-.756-.756c-.326-.174-.65-.267-1.541-.267h-1.424l-.004.111a1.705 1.705 0 0 1-1.551 1.552l-.147.006H7.924c-.93 0-1.685-.744-1.704-1.67z" fill="#2D77DB"/>
        <path d="M5.604 28.434h9.792a1.209 1.209 0 0 1 0 2.418H5.604a1.209 1.209 0 0 1 0-2.418z" fill="#2D77DB"/>
        <path d="M8.241 12.475h4.518c1.337 0 1.822.14 2.31.401.49.262.873.645 1.135 1.134.261.489.4.974.4 2.311v5.366c0 1.337-.139 1.822-.4 2.311a2.726 2.726 0 0 1-1.134 1.134c-.489.262-.974.4-2.311.4H8.24c-1.337 0-1.822-.138-2.31-.4a2.726 2.726 0 0 1-1.135-1.134c-.261-.489-.4-.974-.4-2.311v-5.366c0-1.337.139-1.822.4-2.31a2.726 2.726 0 0 1 1.134-1.135c.489-.261.974-.4 2.311-.4z" fill="#D1DFF3"/>
        <path d="M6.832 8.123h7.336a.484.484 0 1 1 0 .967H6.832a.484.484 0 1 1 0-.967z" fill="#2D77DB"/>
        <path d="M8.786 6.189h3.428a.484.484 0 0 1 0 .967H8.786a.484.484 0 1 1 0-.967z" fill="#80ADE9" opacity=".604"/>
        <path d="M11.969 18.313v-.548c0-.699-.611-1.265-1.366-1.265-.754 0-1.365.566-1.365 1.265v.548c-.431.062-.647.323-.647.783v1.598a.675.675 0 0 0 .216.6.8.8 0 0 0 .647.199h2.3a.8.8 0 0 0 .646-.2c.17-.157.25-.379.216-.599v-1.598c0-.461-.216-.722-.647-.783zm-1.15 1.579v.536c0 .11-.096.2-.216.2-.119 0-.215-.09-.215-.2v-.543a.32.32 0 0 1-.14-.256.32.32 0 0 1 .105-.235.373.373 0 0 1 .253-.098h.003c.199 0 .36.15.36.333a.32.32 0 0 1-.15.263zm.719-1.595H9.669v-.532c0-.478.419-.866.934-.866.516 0 .935.388.935.866v.532z" fill="#2D77DB" fill-rule="nonzero"/>
    </g>
</svg>
