<svg width="31" height="31" viewBox="0 0 31 31" xmlns="http://www.w3.org/2000/svg">
    <g fill="#4DC18B" fill-rule="evenodd">
        <path d="M5.314 7.086h1.772v21.7H5.314zm21 21.7c0 .978-.793 1.771-1.771 1.771H7.086a1.771 1.771 0 0 1-1.772-1.771h21z"/>
        <path d="M24.8 7.529h1.772v21.257c0 .978-.794 1.771-1.772 1.771V7.53zM15.398 0l.936 1.499-14.646 9.157a.883.883 0 0 1-1.217-.28v-.001a.884.884 0 0 1 .28-1.218L15.399 0z"/>
        <path d="m15.553 0-.936 1.499 14.646 9.157a.883.883 0 0 0 1.217-.28v-.001a.884.884 0 0 0-.28-1.218L15.552 0z"/>
        <path d="M18.381 15.267a.71.71 0 0 1 .133.986.689.689 0 0 1-.973.135 2.788 2.788 0 0 0-3.327 0 .688.688 0 0 1-.716.128.707.707 0 0 1-.118-1.25 4.182 4.182 0 0 1 5.001 0z" fill-rule="nonzero"/>
        <path d="M20.501 13.33a7.021 7.021 0 0 0-9.24 0 .71.71 0 0 0-.065.984.688.688 0 0 0 .97.083 5.647 5.647 0 0 1 7.43 0 .688.688 0 0 0 .97-.083.71.71 0 0 0-.065-.985z" fill-rule="nonzero"/>
        <path d="M16 19a1 1 0 1 1 0 2 1 1 0 0 1 0-2z"/>
    </g>
</svg>
