<svg width="16" height="11" viewBox="0 0 16 11" xmlns="http://www.w3.org/2000/svg" xmlns:xlink="http://www.w3.org/1999/xlink">
    <defs>
        <path d="M1.282 0h13.436c.446 0 .607.046.77.134.163.087.291.215.378.378.088.163.134.324.134.77v8.436c0 .446-.046.607-.134.77a.909.909 0 0 1-.378.378c-.163.088-.324.134-.77.134H1.282c-.446 0-.607-.046-.77-.134a.909.909 0 0 1-.378-.378C.046 10.325 0 10.164 0 9.718V1.282C0 .836.046.675.134.512A.909.909 0 0 1 .512.134C.675.046.836 0 1.282 0z" id="hj2d65aixa"/>
    </defs>
    <g fill="none" fill-rule="evenodd">
        <mask id="35aveekd6b" fill="#fff">
            <use xlink:href="#hj2d65aixa"/>
        </mask>
        <use fill="#FFF" xlink:href="#hj2d65aixa"/>
        <path fill="#1F6BD3" mask="url(#35aveekd6b)" d="M0 0h16v11H0z"/>
        <path d="M8 1.467c2.314 0 4.19 1.805 4.19 4.033 0 2.228-1.876 4.033-4.19 4.033-2.314 0-4.19-1.805-4.19-4.033 0-2.228 1.876-4.033 4.19-4.033zm1.135 4.4h-2.27c.056 1.237.391 2.329.914 2.925a3.087 3.087 0 0 0 .441.001c.524-.597.859-1.69.915-2.925zm2.273 0h-1.51c-.043 1.024-.26 1.972-.63 2.7 1.153-.442 1.998-1.469 2.14-2.7zm-5.305 0h-1.51c.141 1.231.986 2.258 2.139 2.7-.37-.728-.587-1.676-.63-2.7zm.63-3.434-.149.06c-1.077.471-1.856 1.462-1.992 2.64h1.51c.043-1.024.26-1.972.63-2.7zm2.535 0c.37.729.587 1.677.63 2.7h1.51c-.142-1.23-.987-2.258-2.14-2.7zM8 2.2c-.074 0-.147.002-.22.007l.108-.114c-.585.563-.963 1.72-1.023 3.04h2.27c-.06-1.32-.438-2.477-1.023-3.04l.108.114A3.616 3.616 0 0 0 8 2.2z" fill="#FFF" mask="url(#35aveekd6b)"/>
    </g>
</svg>
