<svg width="16" height="11" viewBox="0 0 16 11" xmlns="http://www.w3.org/2000/svg" xmlns:xlink="http://www.w3.org/1999/xlink">
    <defs>
        <path d="M1.282 0h13.436c.446 0 .607.046.77.134.163.087.291.215.378.378.088.163.134.324.134.77v8.436c0 .446-.046.607-.134.77a.909.909 0 0 1-.378.378c-.163.088-.324.134-.77.134H1.282c-.446 0-.607-.046-.77-.134a.909.909 0 0 1-.378-.378C.046 10.325 0 10.164 0 9.718V1.282C0 .836.046.675.134.512A.909.909 0 0 1 .512.134C.675.046.836 0 1.282 0z" id="04f7tlkvoa"/>
        <path d="M1.143 1.467c.21 0 .38-.164.38-.367a.374.374 0 0 0-.38-.367.374.374 0 0 0-.381.367c0 .203.17.367.38.367zm2.286 0c.21 0 .38.164.38.366 0 .203-.17.367-.38.367a.374.374 0 0 1-.381-.367c0-.202.17-.366.38-.366zM2.667.733c.21 0 .38.164.38.367 0 .203-.17.367-.38.367a.374.374 0 0 1-.381-.367c0-.203.17-.367.38-.367zm1.523.734c.21 0 .381-.164.381-.367a.374.374 0 0 0-.38-.367.374.374 0 0 0-.381.367c0 .203.17.367.38.367zm1.524 0c.21 0 .381-.164.381-.367a.374.374 0 0 0-.38-.367.374.374 0 0 0-.382.367c0 .203.17.367.381.367zm-3.81.733c.211 0 .382-.164.382-.367a.374.374 0 0 0-.381-.366.374.374 0 0 0-.381.366c0 .203.17.367.38.367zm3.048 0c.21 0 .381-.164.381-.367a.374.374 0 0 0-.38-.366.374.374 0 0 0-.382.366c0 .203.171.367.381.367zm.762.733c.21 0 .381-.164.381-.366a.374.374 0 0 0-.38-.367.374.374 0 0 0-.382.367c0 .202.17.366.381.366zm-1.524 0c.21 0 .381-.164.381-.366a.374.374 0 0 0-.38-.367.374.374 0 0 0-.381.367c0 .202.17.366.38.366zm-.761 0c.21 0 .38.164.38.367 0 .203-.17.367-.38.367a.374.374 0 0 1-.381-.367c0-.203.17-.367.38-.367zM2.667 2.2c.21 0 .38.164.38.367 0 .202-.17.366-.38.366a.374.374 0 0 1-.381-.366c0-.203.17-.367.38-.367zm-1.524.733c.21 0 .38-.164.38-.366a.374.374 0 0 0-.38-.367.374.374 0 0 0-.381.367c0 .202.17.366.38.366zm.762.734c.21 0 .38-.164.38-.367a.374.374 0 0 0-.38-.367.374.374 0 0 0-.381.367c0 .203.17.367.38.367zm3.047 0c.21 0 .381-.164.381-.367a.374.374 0 0 0-.38-.367.374.374 0 0 0-.382.367c0 .203.171.367.381.367zm.762.733c.21 0 .381-.164.381-.367a.374.374 0 0 0-.38-.366.374.374 0 0 0-.382.366c0 .203.17.367.381.367zm-1.524 0c.21 0 .381-.164.381-.367a.374.374 0 0 0-.38-.366.374.374 0 0 0-.381.366c0 .203.17.367.38.367zm-1.523 0c.21 0 .38-.164.38-.367a.374.374 0 0 0-.38-.366.374.374 0 0 0-.381.366c0 .203.17.367.38.367zm-1.524 0c.21 0 .38-.164.38-.367a.374.374 0 0 0-.38-.366.374.374 0 0 0-.381.366c0 .203.17.367.38.367z" id="kkt19uowfd"/>
        <linearGradient x1="50%" y1="0%" x2="50%" y2="100%" id="224a99rlme">
            <stop stop-color="#FFF" offset="0%"/>
            <stop stop-color="#F0F0F0" offset="100%"/>
        </linearGradient>
        <filter x="-9.4%" y="-13.6%" width="118.8%" height="154.5%" filterUnits="objectBoundingBox" id="19fuq5sesc">
            <feOffset dy="1" in="SourceAlpha" result="shadowOffsetOuter1"/>
            <feColorMatrix values="0 0 0 0 0 0 0 0 0 0 0 0 0 0 0 0 0 0 0.06 0" in="shadowOffsetOuter1"/>
        </filter>
    </defs>
    <g fill="none" fill-rule="evenodd">
        <mask id="k1p23re61b" fill="#fff">
            <use xlink:href="#04f7tlkvoa"/>
        </mask>
        <use fill="#FFF" xlink:href="#04f7tlkvoa"/>
        <path d="M0 0h16v.733H0V0zm0 1.467h16V2.2H0v-.733zm0 1.466h16v.734H0v-.734zM0 4.4h16v.733H0V4.4zm0 1.467h16V6.6H0v-.733zm0 1.466h16v.734H0v-.734zM0 8.8h16v.733H0V8.8zm0 1.467h16V11H0v-.733z" fill="#D02F44" mask="url(#k1p23re61b)"/>
        <path fill="#46467F" mask="url(#k1p23re61b)" d="M0 0h6.857v5.133H0z"/>
        <g mask="url(#k1p23re61b)">
            <use fill="#000" filter="url(#19fuq5sesc)" xlink:href="#kkt19uowfd"/>
            <use fill="url(#224a99rlme)" xlink:href="#kkt19uowfd"/>
        </g>
    </g>
</svg>
