<svg width="16" height="11" viewBox="0 0 16 11" xmlns="http://www.w3.org/2000/svg" xmlns:xlink="http://www.w3.org/1999/xlink">
    <defs>
        <path d="M1.282 0h13.436c.446 0 .607.046.77.134.163.087.291.215.378.378.088.163.134.324.134.77v8.436c0 .446-.046.607-.134.77a.909.909 0 0 1-.378.378c-.163.088-.324.134-.77.134H1.282c-.446 0-.607-.046-.77-.134a.909.909 0 0 1-.378-.378C.046 10.325 0 10.164 0 9.718V1.282C0 .836.046.675.134.512A.909.909 0 0 1 .512.134C.675.046.836 0 1.282 0z" id="a9s8qx27oa"/>
    </defs>
    <g fill="none" fill-rule="evenodd">
        <mask id="4yru7jzi9b" fill="#fff">
            <use xlink:href="#a9s8qx27oa"/>
        </mask>
        <path stroke="#F5F5F5" stroke-width=".5" d="M1.282.25h13.436c.375 0 .515.03.653.104.349.413.379.553.379.928v8.436c0 .375-.03.515-.104.653-.413.349-.553.379-.928.379H1.282c-.375 0-.515-.03-.653-.104-.349-.413-.379-.553-.379-.928V1.282C.25.907.28.767.354.629.767.28.907.25 1.282.25z"/>
        <path fill="#FF3131" mask="url(#4yru7jzi9b)" d="M11.429 0H16v11h-4.571zM0 0h4.571v11H0zM9.003 5.268c-.133.128-.211.088-.175-.087l.315-1.514-.762.366L8 2.933l-.381 1.1-.762-.366.315 1.514c.036.176-.04.217-.175.087l-.28-.27a.348.348 0 0 0-.484.003l-.138.132-.762-.366.381.733-.137.132a.32.32 0 0 0-.001.468l.9.867H7.62l.19 1.1h.381l.191-1.1h1.143l.9-.867a.318.318 0 0 0 0-.468l-.138-.132.38-.733-.761.366-.138-.132a.35.35 0 0 0-.484-.002l-.28.269z"/>
    </g>
</svg>
