<svg width="15" height="15" viewBox="0 0 15 15" xmlns="http://www.w3.org/2000/svg">
    <g fill="none" fill-rule="evenodd">
        <path d="M12.286 14H2.714a1 1 0 0 1-.87-.508L1 12v-2h13v2l-.843 1.492a1 1 0 0 1-.87.508z" stroke="#232020"/>
        <path stroke="#232020" stroke-linecap="round" d="M3.08 3.441H1.609v6M13.391 9.441v-6h-1.377M5 12h.5M7 12h.5M9 12h.5"/>
        <path d="M8.487 6.27a.878.878 0 1 1-1.757 0 .878.878 0 0 1 1.757 0" fill="#232020"/>
        <path d="M4 2.503a5.084 5.084 0 0 1 7.217 0M5.123 3.625A3.59 3.59 0 0 1 7.609 2.61a3.59 3.59 0 0 1 2.486 1.015M6.272 4.774a1.904 1.904 0 0 1 1.337-.561c.508 0 .989.187 1.336.56" stroke="#232020"/>
    </g>
</svg>
