<svg width="81" height="15" viewBox="0 0 81 15" xmlns="http://www.w3.org/2000/svg">
    <g fill-rule="nonzero" fill="none">
        <path fill="#00B67A" d="M0 0h15.188v15H0zM16.453 0h15.188v15H16.453zM32.906 0h15.188v15H32.906zM49.359 0h15.188v15H49.359z"/>
        <path fill="#DCDCE6" d="M65.986 0H81v15H65.987z"/>
        <path fill="#00B67A" d="M65.813 0h7.593v15h-7.594z"/>
        <path d="m7.594 10.11 2.31-.579.965 2.938-3.275-2.36zm5.315-3.797H8.844L7.594 2.53l-1.25 3.781H2.278l3.29 2.344-1.25 3.781 3.292-2.343 2.025-1.438 3.274-2.344zM24.047 10.11l2.31-.579.965 2.938-3.275-2.36zm5.316-3.797h-4.066l-1.25-3.782-1.25 3.781h-4.066l3.29 2.344-1.249 3.781 3.29-2.343 2.026-1.438 3.274-2.344zM40.5 10.11l2.31-.579.965 2.938-3.275-2.36zm5.316-3.797H41.75L40.5 2.53l-1.25 3.781h-4.066l3.291 2.344-1.25 3.781 3.29-2.343 2.026-1.438 3.275-2.344zM56.953 10.11l2.31-.579.965 2.938-3.275-2.36zm5.316-3.797h-4.066l-1.25-3.782-1.25 3.781h-4.066l3.291 2.344-1.25 3.781 3.29-2.343 2.026-1.438 3.275-2.344zM73.406 10.11l2.31-.579.965 2.938-3.275-2.36zm5.316-3.797h-4.066l-1.25-3.782-1.25 3.781h-4.065l3.29 2.344-1.25 3.781 3.291-2.343 2.025-1.438 3.275-2.344z" fill="#FFF"/>
    </g>
</svg>
