<svg width="68" height="17" viewBox="0 0 68 17" xmlns="http://www.w3.org/2000/svg">
    <g fill-rule="nonzero" fill="none">
        <path d="M17.867 6.025h6.884v1.308h-2.707v7.351h-1.488V7.333h-2.695V6.025h.006zm6.59 2.39h1.273v1.21h.024c.042-.172.12-.337.234-.496.114-.158.252-.311.414-.44.162-.134.342-.238.54-.323.198-.08.402-.123.606-.123.156 0 .27.006.33.013.06.006.12.018.186.024v1.332a4.26 4.26 0 0 0-.294-.043 2.449 2.449 0 0 0-.294-.018 1.497 1.497 0 0 0-1.176.55 2.09 2.09 0 0 0-.36.672c-.09.27-.132.575-.132.923v2.982H24.45V8.414h.006zm9.843 6.269h-1.332v-.874h-.024a1.868 1.868 0 0 1-.745.758c-.33.19-.666.287-1.008.287-.81 0-1.398-.202-1.758-.61-.36-.41-.54-1.028-.54-1.852V8.414h1.356v3.844c0 .55.102.941.312 1.167.204.226.498.342.87.342.288 0 .522-.042.714-.134.193-.092.349-.208.463-.36.12-.147.204-.33.258-.538.054-.208.078-.434.078-.679V8.421H34.3v6.263zm2.31-2.01c.043.403.193.684.45.849.265.159.577.244.943.244.126 0 .27-.012.432-.03.162-.018.318-.061.456-.116a.877.877 0 0 0 .355-.25c.09-.11.132-.251.126-.429a.595.595 0 0 0-.192-.433 1.347 1.347 0 0 0-.457-.275 4.514 4.514 0 0 0-.636-.178c-.24-.048-.48-.103-.726-.158a6.797 6.797 0 0 1-.732-.208 2.221 2.221 0 0 1-.63-.33 1.444 1.444 0 0 1-.445-.526c-.114-.214-.168-.476-.168-.794 0-.342.084-.623.246-.856.163-.232.373-.415.619-.556.252-.14.528-.238.834-.3.306-.054.6-.085.876-.085.318 0 .624.037.912.104.289.067.553.177.787.336.234.153.426.355.582.6.156.244.252.543.294.891H39.12c-.067-.33-.21-.556-.445-.666a1.792 1.792 0 0 0-.804-.17c-.096 0-.21.005-.342.024a1.845 1.845 0 0 0-.372.091.806.806 0 0 0-.294.196.478.478 0 0 0-.12.336c0 .171.06.305.174.41.114.103.264.189.45.262.186.067.396.128.636.177.24.05.486.104.738.16.246.054.487.127.727.207.24.08.45.19.636.33s.336.312.45.52c.114.207.174.47.174.775 0 .373-.084.685-.252.948-.168.256-.384.47-.648.629a3.016 3.016 0 0 1-.889.354 4.38 4.38 0 0 1-2.046-.024 2.609 2.609 0 0 1-.858-.403 1.99 1.99 0 0 1-.57-.679c-.139-.269-.21-.592-.223-.965h1.369v-.012zm4.478-4.26h1.026V6.532h1.357v1.882h1.224v1.033h-1.224v3.349c0 .146.006.269.018.379a.706.706 0 0 0 .084.269.387.387 0 0 0 .198.165c.09.036.204.055.36.055.096 0 .192 0 .288-.007.096-.006.192-.018.288-.042v1.069c-.15.018-.3.03-.438.049a3.447 3.447 0 0 1-.438.024c-.36 0-.648-.036-.864-.104a1.118 1.118 0 0 1-.51-.305 1.067 1.067 0 0 1-.253-.501 3.833 3.833 0 0 1-.078-.69V9.458H41.1V8.414h-.012zm4.567 0h1.285v.85h.024a1.69 1.69 0 0 1 .798-.782 2.59 2.59 0 0 1 1.11-.239c.487 0 .907.086 1.267.263.36.171.66.41.9.715.24.306.414.66.534 1.063.12.404.18.837.18 1.296 0 .421-.054.83-.162 1.222-.108.397-.27.745-.486 1.051a2.4 2.4 0 0 1-.828.727c-.336.183-.726.275-1.183.275-.198 0-.396-.018-.594-.055a2.581 2.581 0 0 1-.57-.177 2.052 2.052 0 0 1-.894-.752h-.024V17h-1.357V8.414zm4.742 3.141c0-.28-.036-.556-.108-.825a2.243 2.243 0 0 0-.324-.708 1.663 1.663 0 0 0-.534-.495 1.476 1.476 0 0 0-.739-.19c-.57 0-1.002.202-1.29.605-.288.403-.432.941-.432 1.613 0 .318.036.611.114.88.078.27.186.501.342.697.15.195.33.348.54.458.21.116.456.171.732.171.312 0 .57-.067.787-.195.216-.129.39-.3.528-.501.138-.208.24-.44.3-.703.054-.263.084-.532.084-.807zm2.395-5.53h1.356v1.308h-1.356V6.025zm0 2.39h1.356v6.269h-1.356v-6.27zm2.568-2.39h1.357v8.659H55.36V6.025zm5.516 8.83c-.492 0-.93-.085-1.314-.25a2.901 2.901 0 0 1-.979-.685 2.992 2.992 0 0 1-.606-1.045 4.1 4.1 0 0 1-.21-1.332c0-.477.072-.916.21-1.32.138-.403.342-.751.606-1.045.264-.293.594-.52.979-.684.384-.165.822-.25 1.314-.25.492 0 .93.085 1.314.25.384.165.708.397.979.684.264.294.468.642.606 1.045.138.404.21.843.21 1.32a4.1 4.1 0 0 1-.21 1.332 2.992 2.992 0 0 1-.606 1.045c-.264.294-.595.52-.979.685-.384.165-.822.25-1.314.25zm0-1.094c.3 0 .564-.067.786-.195.222-.129.402-.3.546-.507.144-.208.246-.446.318-.71a3.3 3.3 0 0 0 .102-.806c0-.269-.036-.531-.102-.8a2.109 2.109 0 0 0-.318-.71 1.666 1.666 0 0 0-.546-.5 1.55 1.55 0 0 0-.786-.196c-.3 0-.564.067-.786.196-.222.128-.402.3-.546.5-.145.209-.247.44-.319.71a3.327 3.327 0 0 0-.102.8c0 .275.036.544.102.807s.174.5.319.709c.144.207.324.378.546.507.222.134.486.195.786.195zm3.505-5.347h1.026V6.532h1.357v1.882h1.224v1.033h-1.224v3.349c0 .146.006.269.018.379a.706.706 0 0 0 .084.269.387.387 0 0 0 .198.165c.09.036.204.055.36.055.096 0 .192 0 .288-.007.096-.006.192-.018.288-.042v1.069c-.15.018-.3.03-.438.049a3.447 3.447 0 0 1-.438.024c-.36 0-.648-.036-.865-.104a1.118 1.118 0 0 1-.51-.305 1.067 1.067 0 0 1-.252-.501 3.833 3.833 0 0 1-.078-.69V9.458h-1.026V8.414h-.012z" fill="#191919"/>
        <path fill="#00B67A" d="M16.283 6.025h-6.218L8.145 0 6.217 6.025 0 6.02l5.035 3.728-1.926 6.019 5.035-3.722 5.03 3.722-1.92-6.02 5.029-3.72z"/>
        <path fill="#005128" d="m11.685 11.11-.432-1.363-3.109 2.297z"/>
    </g>
</svg>
