<svg width="22" height="23" viewBox="0 0 22 23" xmlns="http://www.w3.org/2000/svg">
    <g fill-rule="nonzero" fill="none">
        <path d="M22 11.759c0-.757-.066-1.476-.178-2.176H11.24v4.322h6.06a5.346 5.346 0 0 1-2.248 3.431v2.875h3.615C20.782 18.208 22 15.257 22 11.76z" fill="#4285F4"/>
        <path d="M11.239 23c3.034 0 5.572-1.035 7.427-2.789l-3.615-2.875c-1.012.69-2.295 1.112-3.812 1.112-2.932 0-5.414-2.022-6.303-4.753H1.208v2.96C3.053 20.414 6.846 23 11.238 23z" fill="#34A853"/>
        <path d="M4.936 13.695A6.814 6.814 0 0 1 4.58 11.5c0-.767.13-1.505.356-2.195v-2.96H1.208A11.581 11.581 0 0 0 0 11.5c0 1.86.44 3.603 1.208 5.156l3.728-2.961z" fill="#FBBC05"/>
        <path d="M11.239 4.552c1.658 0 3.137.585 4.308 1.725L18.75 3c-1.939-1.86-4.477-3-7.511-3-4.393 0-8.186 2.587-10.03 6.344l3.727 2.961c.89-2.73 3.371-4.753 6.303-4.753z" fill="#EA4335"/>
    </g>
</svg>
