<svg width="24" height="17" viewBox="0 0 24 17" xmlns="http://www.w3.org/2000/svg">
    <path d="m17.712 17-.125-.148a87.347 87.347 0 0 1-1.231-1.491c2.692-.75 3.72-2.409 3.72-2.409a11.997 11.997 0 0 1-2.364 1.194 13.676 13.676 0 0 1-2.98.87c-1.972.365-3.78.264-5.321-.02a17.461 17.461 0 0 1-3.02-.87 12.146 12.146 0 0 1-1.587-.736l-.006-.003c-.031-.015-.062-.03-.093-.05a.283.283 0 0 1-.082-.06 8.016 8.016 0 0 1-.537-.32l-.038-.025s.062.101.195.265c.4.492 1.444 1.546 3.4 2.123-.616.77-1.376 1.68-1.376 1.68C1.726 16.858 0 13.924 0 13.924 0 7.407 2.959 2.125 2.959 2.125 5.178.485 7.316.11 8.247.025c.31-.029.486-.025.486-.025l.205.243C5.24 1.295 3.534 2.894 3.534 2.894s.397-.213 1.074-.523l.138-.064c1.65-.713 3.044-1.04 3.942-1.184.3-.048.543-.075.723-.09l.043-.008h.001c.105-.018.197-.033.305-.033a17.65 17.65 0 0 1 4.151-.04c1.952.222 4.048.789 6.185 1.942 0 0-1.427-1.334-4.484-2.368-.21-.07-.42-.138-.633-.202L15.267 0h.032c.3.001 2.625.066 5.19 1.741.187.123.372.251.552.384 0 0 2.6 4.643 2.926 10.592.021.397.033.8.033 1.207 0 0-1.747 2.934-6.288 3.076zM8.157 7.549c-1.098 0-1.979.89-2.085 2.018a2.45 2.45 0 0 0-.01.228c0 1.235.945 2.247 2.095 2.247 1.172 0 2.096-1.012 2.096-2.247.02-1.234-.924-2.246-2.095-2.246zm7.5 0c-1.098 0-1.979.89-2.085 2.018a2.45 2.45 0 0 0-.01.228c0 1.235.945 2.247 2.096 2.247 1.17 0 2.095-1.012 2.095-2.247 0-1.234-.924-2.246-2.095-2.246z" fill="#FFF" fill-rule="evenodd"/>
</svg>
