<svg width="42" height="50" viewBox="0 0 42 50" xmlns="http://www.w3.org/2000/svg">
    <path d="M15.96 31.253c2.125.713 3.31 1.007 4.84 3.044a.743.743 0 0 1-.297 1.128c-8.716 3.824-6.848 3.404-12.288 3.404-2.729 0-5.768-.549-5.768-3.269 0-.583.225-1.196.669-1.822l.719-1.113M18.8 36.172c1.454.877 2.223 1.131 3.374 2.441.292.372.598.651.481 1.094a.748.748 0 0 1-.42.492c-8.529 3.773-7.29 3.539-11.25 3.539-2.724 0-5.573-.555-5.573-3.247l.573-1.814m14.119 2.465c1.257 1.258 4.648 3.828 3.006 4.561l-5.982 2.674c-1.45.648-4.418.589-5.866-.397-1.57-1.067-1.339-2.471-1.242-4.27M6.842 27.795l1.464-.066c1.363-.553 3.294-1.312 4.773-1.312 3.691 0 6.197 3.356 4.848 3.958l-6.089 2.722c-3.02 1.35-9.511 1.118-10.703-4.503-.57-2.687.664-4.65 3.642-5.82 2.28-.884 5.682-1.33 10.113-1.33h.709s-1.062-6.744-3.127-10.144l-.006-.008c-1.078-1.835-2.038-3.407-2.038-5.598 0-5.894 5.557-5.693 6.275-2.389h0c1.155 5.322 3.978 7.556 9.075 12.937l.042.049c.714.884 5.81 7.63 6.848 8.102.443.204 6.703.544 6.703.544.987 2.709 1.629 5.317 1.629 8.618 0 2.905-.623 5.348-1.496 7.855h-5.117c-.455 0-.88.21-1.167.559-2.205 2.676-4.847 4.852-8.238 6.793-2.252.65-4.966-.169-7.076-.731" stroke="#232020" stroke-width="2" fill="none" fill-rule="evenodd" stroke-linecap="round" stroke-linejoin="round"/>
</svg>
