<svg width="26" height="32" viewBox="0 0 26 32" xmlns="http://www.w3.org/2000/svg">
    <g fill="none" fill-rule="evenodd">
        <path d="M16.872 0c1.783 0 2.43.186 3.082.534.652.349 1.163.86 1.512 1.512.154.289.276.577.365.962a7.15 7.15 0 0 0-1.794.137 1.885 1.885 0 0 0-.137-.319 1.817 1.817 0 0 0-.757-.756c-.325-.174-.649-.267-1.54-.267H4.397c-.891 0-1.215.093-1.54.267-.326.175-.582.43-.757.756-.174.326-.267.65-.267 1.541V27.19c0 .892.093 1.215.267 1.54.175.327.43.583.756.757.326.174.65.267 1.541.267h13.206c.891 0 1.215-.093 1.54-.267.326-.174.582-.43.757-.756.174-.326.267-.65.267-1.54V15.88a7.16 7.16 0 0 0 1.832.101L22 26.43c0 1.783-.186 2.43-.534 3.081a3.635 3.635 0 0 1-1.512 1.512c-.652.349-1.299.534-3.082.534H5.128c-1.783 0-2.43-.185-3.082-.534a3.635 3.635 0 0 1-1.512-1.512C.186 28.86 0 28.213 0 26.43V5.128c0-1.783.186-2.43.534-3.082A3.635 3.635 0 0 1 2.046.534C2.698.186 3.345 0 5.128 0h11.744z" fill="#4DC18B"/>
        <path d="M13.242 18.344a.844.844 0 0 1-.844.843H6.344a.844.844 0 1 1 0-1.687h6.054c.466 0 .844.378.844.844zM11.952 22a.844.844 0 0 1-.844.844H6.344a.844.844 0 0 1 0-1.688h4.764c.466 0 .844.378.844.844zM15.5 25.656a.844.844 0 0 1-.844.844H6.344a.844.844 0 1 1 0-1.688h8.312c.466 0 .844.378.844.844z" fill="#4DC18B"/>
        <g transform="translate(16 5)" stroke="#4DC18B" stroke-linecap="round" stroke-linejoin="round" stroke-width="1.5">
            <circle cx="4.444" cy="4.444" r="4.444"/>
            <path d="m6.072 3.67-2.014 2-.986-.979"/>
        </g>
    </g>
</svg>
