<svg width="43" height="72" viewBox="0 0 43 72" xmlns="http://www.w3.org/2000/svg">
    <g fill="#2D77DB" fill-rule="evenodd">
        <path d="M32.744 0c3.567 0 4.86.371 6.163 1.069a7.27 7.27 0 0 1 3.024 3.024C42.63 5.396 43 6.689 43 10.256v51.488c0 3.567-.371 4.86-1.069 6.163a7.27 7.27 0 0 1-3.024 3.024C37.604 71.63 36.311 72 32.744 72H10.256c-3.567 0-4.86-.371-6.163-1.069a7.27 7.27 0 0 1-3.024-3.024C.37 66.604 0 65.311 0 61.744V10.256c0-3.567.371-4.86 1.069-6.163a7.27 7.27 0 0 1 3.024-3.024C5.396.37 6.689 0 10.256 0h22.488zM12.736 2.83H10.07c-2.229 0-3.037.232-3.852.668a4.543 4.543 0 0 0-1.89 1.89c-.435.815-.667 1.623-.667 3.852v52.675c0 2.229.232 3.037.667 3.852a4.543 4.543 0 0 0 1.89 1.89c.815.436 1.623.668 3.852.668h22.862c2.229 0 3.037-.232 3.852-.668a4.543 4.543 0 0 0 1.89-1.89c.435-.815.667-1.623.667-3.852V9.24c0-2.23-.232-3.037-.667-3.852a4.543 4.543 0 0 0-1.89-1.89c-.815-.436-1.623-.668-3.852-.668l-1.754-.001-.003.12a3.525 3.525 0 0 1-3.326 3.327l-.193.005H16.26a3.525 3.525 0 0 1-3.524-3.451z"/>
        <path d="M11.5 58h20a2.5 2.5 0 1 1 0 5h-20a2.5 2.5 0 1 1 0-5z"/>
        <path d="M14.128 25h14.744c1.783 0 2.43.186 3.082.534.652.349 1.163.86 1.512 1.512.348.652.534 1.299.534 3.082v16.744c0 1.783-.186 2.43-.534 3.082a3.635 3.635 0 0 1-1.512 1.512c-.652.348-1.299.534-3.082.534H14.128c-1.783 0-2.43-.186-3.082-.534a3.635 3.635 0 0 1-1.512-1.512C9.186 49.302 9 48.655 9 46.872V30.128c0-1.783.186-2.43.534-3.082a3.635 3.635 0 0 1 1.512-1.512c.652-.348 1.299-.534 3.082-.534z" opacity=".197"/>
        <path d="M14 16h15a1 1 0 0 1 0 2H14a1 1 0 0 1 0-2z"/>
        <path d="M18 12h7a1 1 0 0 1 0 2h-7a1 1 0 0 1 0-2z" opacity=".604"/>
        <path d="M23.704 36.988v-1.205C23.704 34.246 22.494 33 21 33c-1.493 0-2.704 1.246-2.704 2.783v1.205c-.854.137-1.28.712-1.28 1.724v3.515c-.068.484.09.972.426 1.318.336.346.81.508 1.28.44h4.555c.47.068.945-.094 1.28-.44.337-.346.495-.834.428-1.318v-3.515c0-1.016-.427-1.59-1.281-1.724zm-2.277 3.474v1.18c0 .242-.191.438-.427.438a.433.433 0 0 1-.427-.439v-1.194a.725.725 0 0 1-.276-.563c0-.194.074-.38.207-.518a.7.7 0 0 1 .502-.215h.005c.393 0 .712.328.712.733a.724.724 0 0 1-.296.578zm1.423-3.508h-3.7v-1.171c0-1.052.828-1.904 1.85-1.904 1.022 0 1.85.852 1.85 1.904v1.171z" fill-rule="nonzero"/>
    </g>
</svg>
