<svg width="48" height="70" viewBox="0 0 48 70" xmlns="http://www.w3.org/2000/svg">
    <g fill="none" fill-rule="evenodd">
        <path d="M7.692 0h32.616c2.675 0 3.645.278 4.623.801a5.452 5.452 0 0 1 2.268 2.268c.523.978.801 1.948.801 4.623v54.616c0 2.675-.278 3.645-.801 4.623a5.452 5.452 0 0 1-2.268 2.268c-.978.523-1.948.801-4.623.801H7.692c-2.675 0-3.645-.278-4.623-.801A5.452 5.452 0 0 1 .801 66.93C.278 65.953 0 64.983 0 62.308V7.692c0-2.675.278-3.645.801-4.623A5.452 5.452 0 0 1 3.07.801C4.047.278 5.017 0 7.692 0z" fill="#B869AC"/>
        <path d="M7.846 4h32.308c1.337 0 1.822.14 2.311.4.49.262.873.646 1.134 1.135.262.489.401.974.401 2.31v54.31c0 1.336-.14 1.821-.4 2.31a2.726 2.726 0 0 1-1.135 1.134c-.489.262-.974.401-2.31.401H7.844c-1.336 0-1.821-.14-2.31-.4A2.726 2.726 0 0 1 4.4 64.464c-.262-.489-.401-.974-.401-2.31V7.844c0-1.336.14-1.821.4-2.31A2.726 2.726 0 0 1 5.536 4.4C6.024 4.139 6.509 4 7.845 4z" fill="#FFF"/>
        <circle fill="#B869AC" fill-rule="nonzero" cx="15" cy="15" r="3"/>
        <circle fill="#B869AC" fill-rule="nonzero" cx="15" cy="35" r="3"/>
        <circle fill="#B869AC" fill-rule="nonzero" cx="15" cy="55" r="3"/>
        <path fill="#B869AC" d="M3 23h42v4H3zM3 43h42v4H3z"/>
    </g>
</svg>
