<svg width="71" height="70" viewBox="0 0 71 70" xmlns="http://www.w3.org/2000/svg">
    <g fill="#4DC18B" fill-rule="evenodd">
        <path d="M15.24 69.748a4 4 0 0 1-3.995-3.8l-.005-.2v-49h4v49h40v-49h4v49a4 4 0 0 1-3.8 3.995l-.2.005h-40z"/>
        <path d="m35.24 0 1.12.748 33.072 20.677a1.996 1.996 0 0 1 .635 2.75l-.093.136a1.994 1.994 0 0 1-2.655.498L35.185 4.72 3.05 24.809a1.994 1.994 0 0 1-2.655-.498l-.092-.135a1.996 1.996 0 0 1 .634-2.75L34.01.747 35.24 0z"/>
        <path d="M41.554 36.088c.764.664.912 1.909.332 2.781-.581.873-1.671 1.042-2.435.379-2.478-2.07-5.843-2.07-8.32 0-.49.496-1.18.636-1.79.362-.608-.273-1.03-.913-1.093-1.657-.062-.744.246-1.464.798-1.865 3.722-3.12 8.786-3.12 12.508 0z" fill-rule="nonzero"/>
        <path d="M46.666 31.43c-6.572-6.243-16.28-6.243-22.852 0-.698.69-.769 1.872-.158 2.657.61.785 1.677.885 2.398.224 5.285-5.017 13.088-5.017 18.372 0 .721.66 1.788.561 2.399-.224.61-.785.54-1.967-.159-2.657z" fill-rule="nonzero"/>
        <path d="M35.24 47.748a3 3 0 1 1 0 6 3 3 0 0 1 0-6z"/>
    </g>
</svg>
