<svg width="100" height="92" viewBox="0 0 100 92" xmlns="http://www.w3.org/2000/svg">
    <defs>
        <linearGradient x1="83.937%" y1="50.141%" x2="2.467%" y2="50.142%" id="fa2fudy76a">
            <stop stop-color="#F3F3F3" offset="0%"/>
            <stop stop-color="#B1B1B1" offset="35%"/>
            <stop stop-color="#A6A6A6" offset="100%"/>
        </linearGradient>
        <linearGradient x1="83.937%" y1="50.09%" x2="2.467%" y2="50.091%" id="u1jbwp7lhb">
            <stop stop-color="#F3F3F3" offset="0%"/>
            <stop stop-color="#B1B1B1" offset="35%"/>
            <stop stop-color="#A6A6A6" offset="100%"/>
        </linearGradient>
        <linearGradient x1="83.937%" y1="50.036%" x2="2.467%" y2="50.037%" id="0rzqgqj3tc">
            <stop stop-color="#F3F3F3" offset="0%"/>
            <stop stop-color="#B1B1B1" offset="35%"/>
            <stop stop-color="#A6A6A6" offset="100%"/>
        </linearGradient>
        <linearGradient x1="83.937%" y1="49.983%" x2="2.467%" y2="49.983%" id="hmz5p5k7ad">
            <stop stop-color="#F3F3F3" offset="0%"/>
            <stop stop-color="#B1B1B1" offset="35%"/>
            <stop stop-color="#A6A6A6" offset="100%"/>
        </linearGradient>
        <linearGradient x1="83.937%" y1="49.929%" x2="2.467%" y2="49.93%" id="lqq8ppeo7e">
            <stop stop-color="#F3F3F3" offset="0%"/>
            <stop stop-color="#B1B1B1" offset="35%"/>
            <stop stop-color="#A6A6A6" offset="100%"/>
        </linearGradient>
        <linearGradient x1="83.937%" y1="49.875%" x2="2.467%" y2="49.876%" id="8325top97f">
            <stop stop-color="#F3F3F3" offset="0%"/>
            <stop stop-color="#B1B1B1" offset="35%"/>
            <stop stop-color="#A6A6A6" offset="100%"/>
        </linearGradient>
        <linearGradient x1="83.937%" y1="49.822%" x2="2.467%" y2="49.822%" id="pvorwadnzg">
            <stop stop-color="#F3F3F3" offset="0%"/>
            <stop stop-color="#B1B1B1" offset="35%"/>
            <stop stop-color="#A6A6A6" offset="100%"/>
        </linearGradient>
    </defs>
    <g fill="none" fill-rule="evenodd">
        <path d="M0 0h100v1.864H0z" fill="url(#fa2fudy76a)" transform="matrix(-1 0 0 1 100 73.121)"/>
        <path d="M0 0h100v1.9H0z" transform="matrix(-1 0 0 1 100 75.938)" fill="url(#u1jbwp7lhb)"/>
        <path d="M0 0h100v1.878H0z" transform="matrix(-1 0 0 1 100 78.773)" fill="url(#0rzqgqj3tc)"/>
        <path d="M0 0h100v1.892H0z" transform="matrix(-1 0 0 1 100 81.614)" fill="url(#hmz5p5k7ad)"/>
        <path d="M0 0h100v1.892H0z" transform="matrix(-1 0 0 1 100 84.434)" fill="url(#lqq8ppeo7e)"/>
        <path d="M0 0h100v1.895H0z" transform="matrix(-1 0 0 1 100 87.272)" fill="url(#8325top97f)"/>
        <path d="M0 0h100v1.895H0z" transform="matrix(-1 0 0 1 100 90.105)" fill="url(#pvorwadnzg)"/>
        <g>
            <path d="M19.648 5.162a5.16 5.16 0 0 1 1.51-3.654A5.195 5.195 0 0 1 24.82 0h31.815c1.373 0 2.69.543 3.661 1.508a5.167 5.167 0 0 1 1.518 3.654v47.23c0 1.369-.546 2.682-1.518 3.653a5.195 5.195 0 0 1-3.661 1.509H24.82a5.195 5.195 0 0 1-3.662-1.509 5.16 5.16 0 0 1-1.51-3.653V5.162z" fill="#F5B705"/>
            <path d="M26.573 12.915a5.16 5.16 0 0 1 1.51-3.654 5.195 5.195 0 0 1 3.662-1.508H63.56c1.373 0 2.69.543 3.661 1.508a5.167 5.167 0 0 1 1.518 3.654v47.23c0 1.369-.546 2.681-1.518 3.653a5.195 5.195 0 0 1-3.661 1.509H31.745a5.195 5.195 0 0 1-3.662-1.509 5.16 5.16 0 0 1-1.51-3.654V12.915z" fill="#27B95A"/>
            <path d="M14.613 8.687a5.16 5.16 0 0 1 1.51-3.654 5.195 5.195 0 0 1 3.662-1.509H51.6a5.167 5.167 0 0 1 5.18 5.162v47.23c0 1.37-.547 2.682-1.519 3.654a5.195 5.195 0 0 1-3.661 1.508H19.785a5.195 5.195 0 0 1-3.662-1.508 5.16 5.16 0 0 1-1.51-3.654V8.686z" fill="#4180EF"/>
            <path d="M37.357 9.492a5.175 5.175 0 0 1 6.652-3.047l29.842 11.056a5.156 5.156 0 0 1 3.052 6.623l-16.41 44.293a5.167 5.167 0 0 1-2.694 2.9 5.207 5.207 0 0 1-3.967.144L24 60.408a5.15 5.15 0 0 1-3.053-6.623L37.357 9.492z" fill="#F7F7F7"/>
            <path d="M54.32 38.398c.162-1.244.296-2.286.369-3.422.43-1.202.902-2.635 1.419-3.96-.525-.024-1.058.077-1.578.021a32.423 32.423 0 0 1-2.257 1.858c-.135.101-.2.262-.218.403.159.205.298.527.156 1.094l-1.027 3.845-.073.028a.241.241 0 0 0-.252.179c-.4 1.438-.846 2.873-1.418 3.894-.53.944-.827 2.004-.73 3.22.1 1.237-.794 3.251-1.506 5.125-.312.822.227 1.546-.199 2.244-.34.557-1.053.915-1.427 1.879-.348.893-.534 1.346-.5 1.658.02.177-.258.305-.345.571-.116.358-.04 1.076-.562 2.147-.36.739-1.46 1.148-1.875.858-.667-.467-.413-1.277.107-1.999.707-.978 1.022-1.497 1.492-2.12-.136-.5-.063-.773.196-.845.316-.492.326-1.169.328-2.009-.002-.709.158-1.259.565-1.376.026-.383.087-.784.168-1.192-.527-1.096-1.044-2.267-1.333-3.615-.233-1.095-.526-1.717-.631-2.707-.22-2.067-.455-4.228-.216-5.97l-.762-.47c.385-1.125.3-2.464.522-4.026.131-.937.75-1.906 1.782-2.962.167-.344.64-.46 1.14-.553l.259-.462c-.344-.163-.709-.343-1.014-.592-.395-.321-.039-.77-.024-1.089.014-.265.113-.533.461-.827.766-.887 2.014-1.682 3.25-2.538a9.816 9.816 0 0 1 2.806-1.97c1.027-.628 1.827-.5 3.143.295l.083-.142c.571.344 1.26.89 1.768.204l.736-.991c-.299-.083-.124-.307-.048-.536.184-.555.4-1.025.879-.619.254-.5.63-1.082.949-1.344 1.005-.825 2.976.12 2.914 1.556.553.645-.318 1.837-1.16 2.29.12.172.055.385-.204.526-.38.205-.694.558-.98.41-.532.32-.954.73-1.59.703l-.222.367.674 1.231-.105.181c1.1 2.162 1.26 3.027-.54 6.114l-.769 2.252-.3 2.208c-.294.794-.674 1.502-.75 2.034.025.035.053.071.078.109.27.235.396.416.355.664l.035.094c.236.197.29.477.174.782a3.465 3.465 0 0 1-.207 1.568c-.643 1.71-2.472 2.61-4.082 2.005-1.61-.605-2.394-2.486-1.75-4.197.612-1.63 2.297-2.522 3.846-2.084z" fill="#C4C5C8"/>
            <ellipse cx="2.477" cy="2.447" rx="2.477" ry="2.447" transform="matrix(-1 0 0 1 24.537 7.516)" fill="#3767BB"/>
            <ellipse cx="2.477" cy="2.447" rx="2.477" ry="2.447" transform="matrix(-1 0 0 1 46.555 11.887)" fill="#DBDCE0"/>
            <ellipse cx="2.477" cy="2.447" rx="2.477" ry="2.447" transform="matrix(-1 0 0 1 57.582 60.812)" fill="#DBDCE0"/>
        </g>
    </g>
</svg>
