<svg width="35" height="24" viewBox="0 0 35 24" xmlns="http://www.w3.org/2000/svg">
    <g transform="translate(1 1)" fill="#232020" fill-rule="evenodd">
        <path d="M25.925-.75H6.654A3.749 3.749 0 0 0 3.11 1.78l-.367 1.077C.416 9.751-.75 14.627-.75 17.539c0 5.222 7.023 6.925 9.023 2.962.528-1.046.702-1.624.891-2.724l.048-.286c.084-.513.145-.68.328-.877.144-.154.37-.321.711-.514 2.02-1.143 11.725-.919 13.03.425.46.474.686.854.851 1.371l.077.266.064.25c.305 1.23.581 1.865 1.406 2.83 2.225 2.605 6.549 1.749 7.84-1.774.806-2.198-.561-7.984-4.068-17.736A3.748 3.748 0 0 0 25.925-.75zm-.001 1.5c.949 0 1.795.596 2.115 1.49l.512 1.44c2.974 8.462 4.15 13.66 3.56 15.272-.902 2.459-3.821 3.037-5.291 1.317-.598-.7-.805-1.125-1.034-1.992l-.148-.577c-.235-.856-.577-1.494-1.282-2.22-1.838-1.894-12.282-2.135-14.843-.685-.464.262-.81.517-1.07.796-.393.422-.554.803-.676 1.454l-.126.728c-.148.796-.3 1.247-.707 2.052C5.648 22.373.75 21.185.75 17.54c0-2.845 1.258-7.956 3.779-15.27A2.25 2.25 0 0 1 6.655.75h19.269z" fill-rule="nonzero"/>
        <circle cx="15" cy="11" r="1"/>
        <path d="M9.5 3a3.5 3.5 0 1 1 0 7 3.5 3.5 0 0 1 0-7zm0 1.5a2 2 0 1 0 0 4 2 2 0 0 0 0-4z" fill-rule="nonzero"/>
        <circle cx="19" cy="11" r="1"/>
        <path d="m24.246 3.718 1.896 1.914c.312.315.392.462.445.638a.908.908 0 0 1 0 .531c-.053.176-.133.323-.445.638l-1.896 1.914a1 1 0 0 1-1.414.007L20.929 7.44c-.312-.315-.392-.462-.445-.638a.908.908 0 0 1 0-.531c.053-.176.133-.323.445-.638l1.896-1.914a1 1 0 0 1 1.327-.085l.094.085zm-.71 1.413-1.39 1.404 1.39 1.403 1.389-1.403-1.39-1.404z" fill-rule="nonzero"/>
    </g>
</svg>
