<svg width="25" height="27" viewBox="0 0 25 27" xmlns="http://www.w3.org/2000/svg">
    <g fill="#1F6BD3" fill-rule="nonzero">
        <path d="M24.75 6.306 12.5.161.25 6.306V20.82l12.25 6.015 12.25-6.015V6.306zM12.5 1.84l10.75 5.393v12.653L12.5 25.163 1.75 19.885V7.231L12.5 1.839z"/>
        <path d="m.617 16.274 6.143-3.653 8.055 5.05a.75.75 0 1 1-.797 1.272l-7.279-4.566-5.356 3.186a.75.75 0 0 1-.97-.177l-.058-.084a.75.75 0 0 1 .262-1.028z"/>
        <path d="m11.105 15.774 7.048-5.051 6.136 2.565-.578 1.384-5.365-2.244-6.368 4.565zM11.542 5.808a2.88 2.88 0 0 1 2.875 2.884 2.88 2.88 0 0 1-2.875 2.885 2.88 2.88 0 0 1-2.875-2.885 2.88 2.88 0 0 1 2.875-2.884zm0 1.5a1.38 1.38 0 0 0-1.375 1.384 1.38 1.38 0 0 0 1.375 1.385 1.38 1.38 0 0 0 1.375-1.385 1.38 1.38 0 0 0-1.375-1.384z"/>
    </g>
</svg>
