<svg width="397" height="197" viewBox="0 0 397 197" xmlns="http://www.w3.org/2000/svg" xmlns:xlink="http://www.w3.org/1999/xlink">
    <defs>
        <filter x="-1.8%" y="-2.1%" width="106.6%" height="107.5%" filterUnits="objectBoundingBox" id="hgclzu9kra">
            <feMorphology radius=".5" operator="dilate" in="SourceAlpha" result="shadowSpreadOuter1"/>
            <feOffset dx="5" dy="5" in="shadowSpreadOuter1" result="shadowOffsetOuter1"/>
            <feComposite in="shadowOffsetOuter1" in2="SourceAlpha" operator="out" result="shadowOffsetOuter1"/>
            <feColorMatrix values="0 0 0 0 0.945098039 0 0 0 0 0.952941176 0 0 0 0 0.97254902 0 0 0 1 0" in="shadowOffsetOuter1"/>
        </filter>
        <filter x="-1.4%" y="-10%" width="105.3%" height="136.7%" filterUnits="objectBoundingBox" id="w04a8ca2vc">
            <feMorphology radius=".5" operator="dilate" in="SourceAlpha" result="shadowSpreadOuter1"/>
            <feOffset dx="5" dy="5" in="shadowSpreadOuter1" result="shadowOffsetOuter1"/>
            <feComposite in="shadowOffsetOuter1" in2="SourceAlpha" operator="out" result="shadowOffsetOuter1"/>
            <feColorMatrix values="0 0 0 0 0.945098039 0 0 0 0 0.952941176 0 0 0 0 0.97254902 0 0 0 1 0" in="shadowOffsetOuter1"/>
        </filter>
        <filter x="-3%" y="-8.3%" width="111.9%" height="133.3%" filterUnits="objectBoundingBox" id="sbcfb11one">
            <feOffset dx="5" dy="5" in="SourceAlpha" result="shadowOffsetOuter1"/>
            <feComposite in="shadowOffsetOuter1" in2="SourceAlpha" operator="out" result="shadowOffsetOuter1"/>
            <feColorMatrix values="0 0 0 0 0.945098039 0 0 0 0 0.952941176 0 0 0 0 0.97254902 0 0 0 1 0" in="shadowOffsetOuter1"/>
        </filter>
        <filter x="-4.7%" y="-8.3%" width="118.9%" height="133.3%" filterUnits="objectBoundingBox" id="ylpg8zvdvg">
            <feOffset dx="5" dy="5" in="SourceAlpha" result="shadowOffsetOuter1"/>
            <feComposite in="shadowOffsetOuter1" in2="SourceAlpha" operator="out" result="shadowOffsetOuter1"/>
            <feColorMatrix values="0 0 0 0 0.945098039 0 0 0 0 0.952941176 0 0 0 0 0.97254902 0 0 0 1 0" in="shadowOffsetOuter1"/>
        </filter>
        <path d="M5.128 0h156.744c1.783 0 2.43.186 3.082.534.652.349 1.163.86 1.512 1.512.348.652.534 1.299.534 3.082v135.744c0 1.783-.186 2.43-.534 3.082a3.635 3.635 0 0 1-1.512 1.512c-.652.348-1.299.534-3.082.534H5.128c-1.783 0-2.43-.186-3.082-.534a3.635 3.635 0 0 1-1.512-1.512c-.348-.652-.534-1.299-.534-3.082V5.128c0-1.783.186-2.43.534-3.082A3.635 3.635 0 0 1 2.046.534C2.698.186 3.345 0 5.128 0z" id="53ef3jql3b"/>
        <path d="M187.128 0h197.744c1.783 0 2.43.186 3.082.534.652.349 1.163.86 1.512 1.512.348.652.534 1.299.534 3.082v19.744c0 1.783-.186 2.43-.534 3.082a3.635 3.635 0 0 1-1.512 1.512c-.652.348-1.299.534-3.082.534H187.128c-1.783 0-2.43-.186-3.082-.534a3.635 3.635 0 0 1-1.512-1.512c-.348-.652-.534-1.299-.534-3.082V5.128c0-1.783.186-2.43.534-3.082a3.635 3.635 0 0 1 1.512-1.512c.652-.348 1.299-.534 3.082-.534z" id="nwqoge5znd"/>
        <path d="M86.846 161h76.308c1.337 0 1.822.14 2.311.4.49.262.873.646 1.134 1.135.262.489.401.974.401 2.31v22.31c0 1.336-.14 1.821-.4 2.31a2.726 2.726 0 0 1-1.135 1.134c-.489.262-.974.401-2.31.401h-76.31c-1.336 0-1.821-.14-2.31-.4a2.726 2.726 0 0 1-1.134-1.135c-.262-.489-.401-.974-.401-2.31v-22.31c0-1.336.14-1.821.4-2.31a2.726 2.726 0 0 1 1.135-1.134c.489-.262.974-.401 2.31-.401z" id="xgkc9atypf"/>
        <path d="M13.846 161h45.308c1.337 0 1.822.14 2.311.4.49.262.873.646 1.134 1.135.262.489.401.974.401 2.31v22.31c0 1.336-.14 1.821-.4 2.31a2.726 2.726 0 0 1-1.135 1.134c-.489.262-.974.401-2.31.401h-45.31c-1.336 0-1.821-.14-2.31-.4a2.726 2.726 0 0 1-1.134-1.135c-.262-.489-.401-.974-.401-2.31v-22.31c0-1.336.14-1.821.4-2.31a2.726 2.726 0 0 1 1.135-1.134c.489-.262.974-.401 2.31-.401z" id="r5ik16zdmh"/>
    </defs>
    <g fill="none" fill-rule="evenodd">
        <g transform="translate(1 1)">
            <use fill="#000" filter="url(#hgclzu9kra)" xlink:href="#53ef3jql3b"/>
            <use stroke="#D6DCEA" fill="#FFF" xlink:href="#53ef3jql3b"/>
        </g>
        <path d="M48 134h14a2 2 0 0 1 0 4H48a2 2 0 0 1 0-4zM106 134h14a2 2 0 0 1 0 4h-14a2 2 0 0 1 0-4z" fill="#F1F3F8"/>
        <path d="M70 134h28a2 2 0 0 1 0 4H70a2 2 0 0 1 0-4z" fill="#D6DCEA"/>
        <g transform="translate(1 1)">
            <use fill="#000" filter="url(#w04a8ca2vc)" xlink:href="#nwqoge5znd"/>
            <use stroke="#D6DCEA" fill="#FFF" xlink:href="#nwqoge5znd"/>
        </g>
        <path d="M383.872 45.5c1.925 0 2.616.218 3.317.593.74.396 1.322.977 1.718 1.718.375.701.593 1.392.593 3.317v135.744c0 1.925-.218 2.616-.593 3.317a4.128 4.128 0 0 1-1.718 1.718c-.701.375-1.392.593-3.317.593H188.128c-1.925 0-2.616-.218-3.317-.593a4.128 4.128 0 0 1-1.718-1.718c-.375-.701-.593-1.392-.593-3.317V51.128c0-1.925.218-2.616.593-3.317a4.128 4.128 0 0 1 1.718-1.718c.701-.375 1.392-.593 3.317-.593z" stroke="#D6DCEA" fill="#FFF"/>
        <g transform="translate(1 1)">
            <use fill="#000" filter="url(#sbcfb11one)" xlink:href="#xgkc9atypf"/>
            <path stroke="#D6DCEA" d="M163.154 161.5c1.196 0 1.636.107 2.075.342.4.214.715.528.93.929.234.439.341.88.341 2.075v22.308c0 1.196-.107 1.636-.342 2.075-.214.4-.528.715-.929.93-.439.234-.88.341-2.075.341H86.846c-1.196 0-1.636-.107-2.075-.342a2.233 2.233 0 0 1-.93-.929c-.234-.439-.341-.88-.341-2.075v-22.308c0-1.196.107-1.636.342-2.075.214-.4.528-.715.929-.93.439-.234.88-.341 2.075-.341z" stroke-linejoin="square" fill="#FFF"/>
        </g>
        <g transform="translate(1 1)">
            <use fill="#000" filter="url(#ylpg8zvdvg)" xlink:href="#r5ik16zdmh"/>
            <path stroke="#D6DCEA" d="M59.154 161.5c1.196 0 1.636.107 2.075.342.4.214.715.528.93.929.234.439.341.88.341 2.075v22.308c0 1.196-.107 1.636-.342 2.075-.214.4-.528.715-.929.93-.439.234-.88.341-2.075.341H13.846c-1.196 0-1.636-.107-2.075-.342a2.233 2.233 0 0 1-.93-.929c-.234-.439-.341-.88-.341-2.075v-22.308c0-1.196.107-1.636.342-2.075.214-.4.528-.715.929-.93.439-.234.88-.341 2.075-.341z" stroke-linejoin="square" fill="#FFF"/>
        </g>
        <path d="M34.25 183.248a1.25 1.25 0 1 1-.002 2.5 1.25 1.25 0 0 1 .001-2.5zm-2.5 1.25a2.5 2.5 0 1 0 5 0 2.5 2.5 0 0 0-5 0zm1.25-3.75c-.69 0-1.25-.56-1.25-1.25 0 0 14.373-1.25 14.355-1.189.319-1.185 1.88-8.045 1.893-8.184.033-.344-.28-.625-.625-.625H31.75v-1.25h.624a.624.624 0 1 0 0-1.25h-3.75a.625.625 0 1 0 0 1.25H30.5v11.248a2.5 2.5 0 0 0 2.5 2.5h14.373c.019 0 0-.62 0-1.25H32.999zm8.748 2.5a1.25 1.25 0 1 1 0 2.5 1.25 1.25 0 0 1 0-2.5zm-2.5 1.25a2.5 2.5 0 1 0 5 0 2.5 2.5 0 0 0-5 0z" fill="#18BF66" fill-rule="nonzero"/>
        <path d="m106.629 170.444 1.136 3.4a.937.937 0 0 0 .894.63h3.679c.64 0 .906.796.388 1.161l-2.977 2.101a.899.899 0 0 0-.34 1.021l1.136 3.4c.198.591-.498 1.083-1.016.718l-2.977-2.102a.961.961 0 0 0-1.104 0l-2.977 2.102c-.517.365-1.214-.127-1.016-.718l1.137-3.4a.9.9 0 0 0-.342-1.02l-2.977-2.102c-.517-.365-.251-1.16.389-1.16h3.68a.937.937 0 0 0 .893-.632l1.137-3.4c.198-.59 1.059-.59 1.257 0M126.629 170.444l1.136 3.4a.937.937 0 0 0 .894.63h3.679c.64 0 .906.796.388 1.161l-2.977 2.101a.899.899 0 0 0-.34 1.021l1.136 3.4c.198.591-.498 1.083-1.016.718l-2.977-2.102a.961.961 0 0 0-1.104 0l-2.977 2.102c-.517.365-1.214-.127-1.016-.718l1.137-3.4a.9.9 0 0 0-.342-1.02l-2.977-2.102c-.517-.365-.251-1.16.389-1.16h3.68a.937.937 0 0 0 .893-.632l1.137-3.4c.198-.59 1.059-.59 1.257 0M146.629 170.444l1.136 3.4a.937.937 0 0 0 .894.63h3.679c.64 0 .906.796.388 1.161l-2.977 2.101a.899.899 0 0 0-.34 1.021l1.136 3.4c.198.591-.498 1.083-1.016.718l-2.977-2.102a.961.961 0 0 0-1.104 0l-2.977 2.102c-.517.365-1.214-.127-1.016-.718l1.137-3.4a.9.9 0 0 0-.342-1.02l-2.977-2.102c-.517-.365-.251-1.16.389-1.16h3.68a.937.937 0 0 0 .893-.632l1.137-3.4c.198-.59 1.059-.59 1.257 0" fill="#FABD05" fill-rule="nonzero"/>
        <path d="M375.886 18.743a1.118 1.118 0 0 1-.236-1.35 7.793 7.793 0 0 0 .826-4.639c-.426-3.345-3.063-6.1-6.39-6.646a7.782 7.782 0 0 0-8.98 8.976c.543 3.324 3.286 5.963 6.625 6.398a7.767 7.767 0 0 0 4.63-.812 1.115 1.115 0 0 1 1.336.232l4.202 4.54c.734.792 2.046.735 2.738-.133.597-.75.427-1.86-.283-2.504l-4.468-4.062zm-12.885-4.968a5.771 5.771 0 0 1 5.77-5.773 5.771 5.771 0 0 1 5.769 5.773 5.771 5.771 0 0 1-5.77 5.773 5.771 5.771 0 0 1-5.77-5.773z" fill="#1F6BD3" fill-rule="nonzero"/>
        <path d="M229 174v18h-40.872c-1.783 0-2.43-.186-3.082-.534a3.635 3.635 0 0 1-1.512-1.512c-.33-.618-.514-1.23-.532-2.81L183 174h46z" fill="#F1F3F4"/>
        <path d="M389 101v85.872c0 1.783-.186 2.43-.534 3.082a3.635 3.635 0 0 1-1.512 1.512c-.652.348-1.299.534-3.082.534H358v-91h31z" fill="#CEEAD6"/>
        <path fill="#F1F3F4" d="M285 174v18h-48v-18z"/>
        <path d="M263 97.191c9.377 12.062 21.044 24.736 35 38.022 16.303 15.52 26.647 34.45 31.031 56.787H293v-26h-56v-65h26v-3.809zM326.082 163H350v29h-12.969c-3.138-10.56-6.788-20.227-10.949-29zM197 101v34a4 4 0 1 0 8 0v-34h24v65h-46v-65h14zM290 62v14h8V62h37V46h15v34h-15.736c-4.65 0-8.122.835-11.056 2.404a16.356 16.356 0 0 0-6.804 6.804c-1.569 2.934-2.404 6.406-2.404 11.056v1.472c0 4.65.835 8.122 2.404 11.056a16.356 16.356 0 0 0 6.804 6.804c2.934 1.569 6.406 2.404 11.056 2.404H350v33h-27.989c-6.405-11.735-13.854-21.646-22.348-29.732l-1.572-1.502c-25.495-24.463-42-45.051-49.515-61.766H290z" fill="#F1F3F4"/>
        <path d="M350 88v26h-15c-7.18 0-13-5.82-13-13l.004-.307C322.167 93.655 327.923 88 335 88h15zM290 46v8h-44.423c-.758-2.583-1.265-5.057-1.52-7.422L244 46h46zM358 46h25.872c1.783 0 2.43.186 3.082.534.652.349 1.163.86 1.512 1.512.348.652.534 1.299.534 3.082V93h-31V46zM327 46v8h-29v-8z" fill="#F1F3F4"/>
        <path d="M236 46c3.34 14.438 11.278 30.104 23.815 47H183V51.128c0-1.783.186-2.43.534-3.082a3.635 3.635 0 0 1 1.512-1.512c.618-.33 1.23-.514 2.81-.532L236 46z" fill="#CEEAD6" opacity=".504"/>
        <g fill-rule="nonzero">
            <path d="M284.5 73c-15.736 0-28.5 12.853-28.5 28.7 0 21.525 28.5 53.3 28.5 53.3s28.5-31.775 28.5-53.3c0-15.847-12.764-28.7-28.5-28.7z" fill="#EA4336"/>
            <path d="M284.5 111.95c-5.619 0-10.179-4.592-10.179-10.25s4.56-10.25 10.179-10.25c5.619 0 10.179 4.592 10.179 10.25s-4.56 10.25-10.179 10.25z" fill="#B31512"/>
        </g>
    </g>
</svg>
