<svg width="16" height="13" viewBox="0 0 16 13" xmlns="http://www.w3.org/2000/svg">
    <path d="M10.249.06a3.712 3.712 0 0 1 1.2-.02c.712.119 1.37.444 1.89.932.34.008.674-.058.97-.152a4.03 4.03 0 0 0 .816-.367l.007-.004a.566.566 0 0 1 .703.067.542.542 0 0 1 .073.691c-.155.23-.37.642-.61 1.103l-.115.22c-.138.264-.28.53-.41.758a5.39 5.39 0 0 1-.261.415v.2a8.883 8.883 0 0 1-.688 3.496 9.02 9.02 0 0 1-2.01 2.965 9.198 9.198 0 0 1-3.02 1.969A9.323 9.323 0 0 1 5.236 13a9.283 9.283 0 0 1-4.982-1.442.544.544 0 0 1-.221-.648.559.559 0 0 1 .593-.357 5.639 5.639 0 0 0 3.002-.47 3.63 3.63 0 0 1-.656-.38 3.559 3.559 0 0 1-1.286-1.758.542.542 0 0 1 .116-.536 3.512 3.512 0 0 1-1.207-2.63V4.74a.547.547 0 0 1 .41-.53 3.492 3.492 0 0 1-.38-1.593C.624 1.991.79 1.375 1.107.831a.563.563 0 0 1 .918-.073A8.08 8.08 0 0 0 4.65 2.84a8.19 8.19 0 0 0 2.59.792 3.496 3.496 0 0 1 .314-1.547A3.573 3.573 0 0 1 9.146.41 3.821 3.821 0 0 1 10.25.06z" fill="#8FBEFF" fill-rule="evenodd"/>
</svg>
