<svg width="115" height="105" viewBox="0 0 115 105" xmlns="http://www.w3.org/2000/svg">
    <g fill="none" fill-rule="evenodd">
        <path d="M82.902 40.755c-.631-.37-1.285-.641-2.494-.641-1.208 0-2.51.847-2.51.847L59.116 51.664l.56.342 18.713-10.652s1.136-.732 2.02-.732c1.155 0 1.91.507 1.91.507l9.373 5.92v-.674l-8.79-5.62z" fill="#DDDDFC"/>
        <path d="M87.385 49.823c1.757 1.196 5.174 2.155 11.86 7.43 5.07 3.999 12.003 3.95 15.181.391.397-.505.604-1.019.554-1.508-.299-2.914-11.404-12.475-20.23-11.622-1.367.132-3.187.703-4.813 1.484 0 0-4.31 2.63-2.552 3.825" fill="#F6F6FF"/>
        <path d="M86.88 49.98c1.167 2.542 15.448 10.394 19.275 11.086 5.13.928 8.825-3.092 8.825-4.93 0 0-.324.993-1.381 1.9-5.153 3.527-9.147 1.226-14.753-2.519-6.993-4.557-9.704-4.498-11.461-5.693-1.758-1.196 2.552-3.826 2.552-3.826-2.136 1.025-3.569 2.867-3.057 3.981" fill="#DDDDFC"/>
        <g>
            <path d="M94.95 74.64c-.048.802-1.075 1.36-1.075 1.36l-47.488 27.432s-1.358.894-2.993 0c-1.756-.96-37.953-23.055-37.953-23.055s-1.493-.713-1.599-1.986a2.92 2.92 0 0 0-.006.167v2.012c0 1.361 1.605 2.126 1.605 2.126s36.197 20.862 37.953 21.822c1.635.894 2.993 0 2.993 0l47.488-27.431s1.08-.586 1.08-1.418v-.775l-.003-.39-.001.137" fill="#DDDDFC"/>
            <path d="M94.03 73.01 54.657 49c-1.42-.802-2.438 0-2.438 0L5.441 76.06s-1.605.894-1.605 2.189c0 .048.002.095.006.141.106 1.273 1.599 1.985 1.599 1.985s36.197 22.096 37.953 23.056c1.635.894 2.993 0 2.993 0L93.875 76s1.027-.558 1.076-1.359l.001-.136.003-.37c0-.642-.925-1.124-.925-1.124" fill="#F6F6FF"/>
            <path d="M2.03 76.228a1.71 1.71 0 0 1-.118-.08c-1.033-.752-.863-2.396-.863-2.396s-.001-41.14.094-43.138c.09-1.86 1.56-2.551 1.56-2.551L50.9.656S51.91.073 52.62.448l.117.07.11.066c-.195-.13-.584-.325-.709-.4a21.19 21.19 0 0 0-.117-.069c-.71-.376-1.988.294-1.988.294L1.839 27.816s-1.471.691-1.56 2.551C.183 32.365.185 73.505.185 73.505s-.17 1.644.863 2.397c.037.028.076.054.117.08 1.106.674 2.188.473 2.188.473-.438.056-.915.022-1.324-.227" fill="#DDDDFC"/>
            <path d="M53.055.708 52.85.584l-.111-.066a13.173 13.173 0 0 0-.117-.07c-.71-.376-1.722.208-1.722.208L2.704 28.063s-1.471.691-1.56 2.55c-.096 1.998-.095 43.138-.095 43.138s-.17 1.645.863 2.398c.038.027.077.054.117.079.41.25.886.283 1.324.227.747-.096 1.382-.454 1.382-.454l47.509-27.594s1.215-.45 1.271-2.077l.018-44.247s.07-1.04-.478-1.375" fill="#F6F6FF"/>
            <path d="m17.022 77.235.008-.06c0 .02-.004.04-.008.06M17.03 77.172v.004-.004zM10.651 77.608 13.079 79c.438.252.722.228 1.085.03l2.613-1.488c.148-.091.222-.198.245-.306l-.027.215c-.019.11-.112.2-.228.272l-2.613 1.488c-.363.198-.647.222-1.086-.03l-2.427-1.39c-.15-.087-.293-.147-.308-.319l-.02-.315h.002c.007.173.128.333.336.452M21.814 74.471l.008-.06a.378.378 0 0 1-.008.06M21.822 74.408v.004-.004zM15.443 74.844l2.427 1.391c.439.252.723.227 1.086.03l2.613-1.489c.148-.09.222-.197.245-.305l-.028.215c-.018.11-.111.2-.227.272l-2.613 1.488c-.363.198-.648.222-1.086-.03l-2.428-1.39c-.15-.087-.293-.147-.307-.319l-.02-.315h.001c.008.173.13.333.337.452M20.183 72.04l2.427 1.391c.438.251.723.227 1.086.03l2.613-1.489c.147-.09.222-.197.245-.305l-.028.215c-.018.11-.112.2-.228.271l-2.612 1.49c-.363.197-.648.22-1.086-.03l-2.428-1.392c-.15-.086-.293-.146-.307-.318l-.02-.315h.001c.008.172.129.333.337.452M31.177 68.761l.008-.06c-.001.02-.004.04-.008.06M31.185 68.698v.003-.003zM24.806 69.134l2.428 1.391c.438.251.722.227 1.085.03l2.613-1.488c.148-.091.222-.198.245-.306l-.027.215c-.019.11-.112.2-.228.272l-2.613 1.488c-.363.197-.648.222-1.086-.03l-2.427-1.39c-.15-.087-.293-.147-.308-.32l-.02-.314h.002c.007.172.128.333.336.452M35.969 65.997l.008-.06a.379.379 0 0 1-.008.06M35.977 65.934v.003-.003zM29.598 66.37l2.427 1.391c.439.251.723.227 1.086.03l2.613-1.489c.148-.09.222-.197.245-.305l-.028.214c-.018.11-.112.201-.228.272l-2.612 1.49c-.363.196-.648.22-1.086-.03l-2.428-1.392c-.15-.086-.293-.146-.307-.318l-.02-.316h.001c.008.173.129.334.337.453M34.338 63.566l2.427 1.39c.438.252.723.228 1.086.03l2.613-1.488c.147-.09.222-.197.245-.305l-.028.214c-.018.11-.112.201-.228.272l-2.613 1.489c-.363.197-.647.221-1.086-.03l-2.427-1.391c-.15-.086-.293-.146-.308-.318L34 63.113h.001c.008.173.129.334.337.453M45.445 60.367v.003-.003zM39.065 60.802l2.428 1.391c.438.252.722.228 1.086.03l2.613-1.488c.147-.091.221-.197.244-.306l-.027.215c-.019.11-.112.2-.228.272l-2.613 1.489c-.363.197-.647.221-1.086-.03l-2.427-1.391c-.15-.086-.293-.147-.308-.319l-.02-.315h.002c.007.173.129.333.336.452M50.228 57.665l.008-.06a.4.4 0 0 1-.008.06M50.236 57.602v.004-.004zM43.857 58.038l2.427 1.391c.439.252.723.228 1.087.03l2.612-1.488c.148-.091.222-.197.245-.306l-.028.215c-.018.11-.111.2-.227.272L47.36 59.64c-.363.197-.647.221-1.086-.03l-2.427-1.391c-.15-.086-.293-.147-.308-.319l-.02-.315h.002c.007.173.128.333.336.452M48.597 55.234l2.427 1.391c.439.252.723.228 1.086.03l2.613-1.489c.148-.09.222-.197.245-.305l-.028.215c-.018.11-.112.2-.227.272L52.1 56.836c-.363.198-.648.222-1.086-.03l-2.428-1.39c-.15-.087-.292-.147-.307-.319l-.02-.315h.002c.007.172.128.333.336.452M21.736 80.04l.008-.06a.395.395 0 0 1-.008.06M21.744 79.977v.003-.003zM15.365 80.412l2.427 1.391c.439.252.723.228 1.086.03l2.613-1.488c.148-.091.222-.197.245-.306l-.028.215c-.018.11-.111.2-.227.272l-2.613 1.489c-.363.197-.648.221-1.086-.03l-2.427-1.392c-.15-.085-.293-.146-.308-.318l-.02-.315h.001c.008.173.13.333.337.452M26.528 77.275l.008-.06a.454.454 0 0 1-.008.06M26.536 77.213v.003-.003zM20.157 77.648l2.427 1.391c.438.252.723.228 1.086.03l2.613-1.488c.148-.09.222-.197.245-.306l-.028.215c-.018.11-.112.2-.227.272L23.66 79.25c-.363.197-.648.221-1.086-.03l-2.428-1.391c-.15-.086-.292-.147-.307-.319l-.02-.315h.001c.008.173.129.333.337.452M24.897 74.844l2.427 1.391c.438.252.723.228 1.086.03l2.613-1.489c.147-.09.221-.197.245-.305l-.028.215c-.018.11-.112.2-.228.272L28.4 76.446c-.363.198-.648.222-1.086-.03l-2.428-1.39c-.15-.087-.293-.147-.307-.319l-.02-.315h.001c.008.173.129.333.337.452M35.891 71.565l.008-.06a.392.392 0 0 1-.008.06M35.9 71.502l-.001.004v-.004zM29.52 71.938l2.427 1.391c.439.251.723.228 1.086.03l2.613-1.488c.148-.091.222-.198.245-.306l-.028.215c-.018.11-.112.2-.227.272l-2.613 1.488c-.363.198-.648.222-1.086-.03l-2.427-1.39c-.15-.087-.293-.147-.308-.319l-.02-.315h.001c.008.173.13.333.337.452M40.683 68.801l.008-.06a.401.401 0 0 1-.008.06M40.691 68.738v.004-.004zM34.312 69.174l2.427 1.391c.438.251.723.227 1.086.03l2.613-1.489c.147-.09.222-.197.245-.305l-.028.215c-.018.11-.112.2-.228.272l-2.612 1.488c-.363.198-.648.222-1.086-.03l-2.428-1.39c-.15-.087-.293-.147-.307-.319l-.02-.315h.001c.008.173.129.333.337.452M39.051 66.37l2.428 1.391c.438.251.723.227 1.086.03l2.613-1.489c.147-.09.221-.197.245-.305l-.028.215c-.018.11-.112.2-.228.271l-2.613 1.489c-.363.197-.647.222-1.086-.03l-2.427-1.391c-.15-.086-.293-.146-.308-.318l-.019-.315h.001c.007.172.129.333.336.452M50.15 63.234l.008-.06c0 .02-.003.04-.008.06M50.158 63.17v.004-.003z" fill="#DDDDFC"/>
            <path d="m43.78 63.607 2.426 1.39c.439.252.723.228 1.087.03l2.612-1.488c.148-.09.222-.197.245-.305l-.027.214c-.019.11-.112.2-.228.272l-2.613 1.489c-.363.197-.647.221-1.086-.03l-2.427-1.391c-.15-.086-.293-.146-.308-.319l-.02-.315h.002c.007.173.128.334.336.453M54.942 60.47l.008-.06a.401.401 0 0 1-.008.06M54.95 60.407v.003-.003zM48.571 60.843l2.427 1.39c.439.252.723.228 1.087.03l2.612-1.488c.148-.09.222-.197.245-.305l-.028.214c-.018.11-.112.2-.227.272l-2.613 1.489c-.363.197-.648.221-1.086-.03l-2.428-1.391c-.149-.086-.292-.146-.307-.319l-.02-.315h.002c.007.173.128.333.336.453M26.83 82.844l.007-.06c0 .02-.004.04-.008.06M26.837 82.78v.004-.003zM20.458 83.217l2.428 1.39c.438.252.722.228 1.086.03l2.612-1.488c.148-.09.222-.197.245-.305l-.027.214c-.019.11-.112.201-.228.272L23.96 84.82c-.363.197-.647.221-1.086-.03l-2.427-1.391c-.15-.086-.293-.146-.308-.319l-.02-.315h.002c.007.173.129.334.336.453M31.621 80.08l.008-.06a.4.4 0 0 1-.008.06M31.63 80.017l-.001.003v-.003z" fill="#DDDDFC"/>
            <path d="m25.25 80.453 2.428 1.39c.438.252.722.228 1.085.03l2.613-1.488c.148-.09.222-.197.245-.305l-.028.214c-.018.11-.111.201-.227.272l-2.613 1.489c-.363.197-.648.221-1.086-.03l-2.427-1.391c-.15-.086-.293-.146-.308-.319l-.02-.315h.001c.008.173.13.333.337.453M29.99 77.648l2.427 1.391c.438.252.723.228 1.086.03l2.613-1.488c.148-.09.222-.197.245-.306l-.028.215c-.018.11-.112.2-.227.272l-2.613 1.489c-.363.197-.648.22-1.086-.03l-2.428-1.391c-.15-.086-.293-.147-.307-.319l-.02-.315h.001c.008.173.129.333.337.452M40.984 74.37l.008-.06c0 .02-.004.04-.008.06M40.992 74.307v.003-.003M34.613 74.742l2.428 1.391c.438.252.722.228 1.085.03l2.613-1.488c.148-.091.222-.197.245-.305l-.027.214c-.019.11-.112.2-.228.272l-2.613 1.489c-.363.197-.648.221-1.086-.03l-2.427-1.391c-.15-.086-.293-.147-.308-.319l-.02-.315h.002c.007.173.128.333.336.452M45.776 71.605l.008-.06a.404.404 0 0 1-.008.06M45.784 71.542v.004-.004zM39.405 71.978l2.427 1.392c.439.25.723.227 1.086.03l2.613-1.49c.148-.09.222-.196.245-.304l-.028.214c-.018.11-.112.2-.227.272l-2.613 1.489c-.363.197-.648.22-1.086-.03l-2.428-1.392c-.15-.086-.292-.146-.307-.318l-.02-.315h.001c.008.173.13.333.337.452M44.145 69.174l2.427 1.391c.438.251.723.228 1.086.03l2.613-1.489c.147-.09.222-.197.245-.305l-.028.215c-.018.11-.112.2-.228.272l-2.612 1.488c-.363.198-.648.222-1.087-.03l-2.427-1.39c-.15-.087-.293-.147-.307-.319l-.02-.315h.001c.008.173.129.333.337.452M55.244 66.038l.007-.06a.374.374 0 0 1-.007.06M55.251 65.975v.003-.003M48.873 66.41l2.427 1.392c.438.251.722.227 1.086.03l2.613-1.489c.147-.09.221-.197.245-.305l-.028.214c-.018.11-.112.201-.228.272l-2.613 1.489c-.362.197-.647.221-1.086-.03l-2.427-1.391c-.15-.086-.293-.146-.308-.318l-.02-.316h.002c.007.173.129.334.337.453M60.035 63.274l.008-.06a.4.4 0 0 1-.008.06M60.044 63.211l-.001.003v-.003z" fill="#DDDDFC"/>
            <path d="m53.664 63.647 2.427 1.391c.439.251.724.227 1.087.03l2.613-1.49c.147-.09.221-.196.244-.304l-.028.214c-.018.11-.111.201-.227.272l-2.613 1.49c-.363.196-.648.22-1.086-.03l-2.427-1.392c-.15-.086-.293-.146-.308-.318l-.019-.316c.008.173.13.333.337.453M53.31 58.055l7.521 4.179c.439.251.723.227 1.086.03l2.613-1.49c.148-.09.222-.196.245-.305l-.028.215c-.018.11-.112.201-.227.272l-2.613 1.489c-.363.197-.648.221-1.086-.03l-7.52-4.179c-.15-.086-.294-.146-.308-.318l-.02-.316h.001c.008.173.13.334.337.453M31.543 85.648l.008-.06a.398.398 0 0 1-.008.06M31.551 85.585v.003-.003zM25.172 86.02l2.427 1.392c.439.251.723.227 1.086.03l2.613-1.489c.148-.09.222-.197.245-.305l-.028.214c-.018.11-.112.201-.227.272l-2.613 1.489c-.363.197-.648.221-1.086-.03l-2.427-1.391c-.15-.086-.293-.146-.308-.318l-.02-.316h.002c.007.173.128.334.336.453M36.335 82.884l.008-.06a.379.379 0 0 1-.008.06M36.343 82.82v.004-.003zM29.964 83.257l2.427 1.39c.439.252.723.228 1.086.03l2.613-1.488c.148-.09.222-.197.245-.305l-.028.214c-.018.11-.111.201-.227.272l-2.613 1.489c-.363.197-.648.221-1.086-.03l-2.428-1.391c-.15-.086-.292-.146-.307-.318l-.02-.316h.001c.008.173.13.334.337.453M34.704 80.453l2.427 1.39c.438.252.723.228 1.086.03l2.613-1.488c.147-.09.222-.197.245-.306l-.028.215c-.018.11-.112.201-.228.272l-2.612 1.489c-.363.197-.648.221-1.086-.03l-2.428-1.391c-.15-.086-.293-.147-.307-.319l-.02-.315h.001c.008.173.129.333.337.453M45.698 77.174l.008-.06a.395.395 0 0 1-.008.06M45.706 77.11v.004-.003zM39.327 77.547l2.427 1.39c.439.252.723.228 1.086.03l2.613-1.488c.148-.091.222-.197.245-.305l-.028.214c-.018.11-.112.201-.227.272L42.83 79.15c-.363.197-.648.221-1.086-.03l-2.427-1.391c-.15-.086-.293-.146-.308-.318l-.02-.316h.002c.007.173.128.333.336.453M50.49 74.41l.008-.06a.401.401 0 0 1-.008.06M50.498 74.347v.003-.003zM44.119 74.782l2.427 1.392c.439.25.723.227 1.086.03l2.613-1.49c.147-.09.222-.196.245-.304l-.028.214c-.018.11-.112.2-.227.272l-2.613 1.489c-.363.197-.648.221-1.086-.03l-2.428-1.391c-.15-.086-.292-.147-.307-.319l-.02-.315h.001c.008.173.129.333.337.452M48.859 71.978l2.427 1.392c.438.25.723.227 1.086.03l2.613-1.49c.147-.09.221-.197.245-.305l-.028.215c-.018.11-.112.2-.228.272l-2.612 1.488c-.364.198-.648.222-1.087-.03l-2.427-1.39c-.15-.086-.293-.147-.308-.319l-.019-.315h.001c.008.173.129.333.337.452M59.958 68.842l.007-.06c0 .02-.003.04-.007.06M59.966 68.78v.003-.004zM53.586 69.215l2.428 1.39c.438.252.723.228 1.086.031l2.613-1.488c.147-.092.221-.198.245-.306l-.028.214c-.018.11-.112.201-.228.273l-2.613 1.488c-.363.197-.647.222-1.086-.03l-2.427-1.391c-.15-.086-.293-.146-.308-.318l-.02-.315h.002c.008.172.128.333.336.452M64.75 66.078l.007-.06a.382.382 0 0 1-.008.06M64.757 66.015v.004-.004zM58.378 66.451l2.428 1.391c.438.251.722.227 1.086.03l2.612-1.489c.148-.09.222-.197.245-.305l-.027.215c-.019.11-.112.2-.228.271l-2.613 1.49c-.363.196-.647.22-1.086-.03l-2.427-1.392c-.15-.086-.293-.146-.308-.318l-.02-.315h.002c.007.173.128.333.336.452M63.118 63.647l2.427 1.391c.439.251.723.227 1.086.03l2.613-1.489c.148-.09.222-.197.245-.305l-.028.214c-.018.11-.112.201-.227.272l-2.613 1.489c-.363.197-.648.221-1.086-.03l-2.428-1.391c-.15-.086-.292-.146-.307-.318l-.02-.316h.002c.007.173.128.333.336.453M36.635 88.452l.007-.06c0 .02-.003.04-.007.06M36.643 88.39v.002-.003zM30.263 88.825l2.428 1.39c.438.252.723.228 1.086.031l2.613-1.489c.147-.09.221-.197.245-.305l-.028.214c-.019.11-.112.201-.228.272l-2.613 1.49c-.363.196-.647.22-1.086-.03l-2.427-1.392c-.15-.086-.293-.146-.308-.318l-.019-.315h.001c.007.172.129.333.336.452M41.426 85.688l.008-.06a.425.425 0 0 1-.008.06M41.434 85.625v.003-.003zM35.055 86.06l2.428 1.392c.438.251.722.227 1.086.03l2.612-1.489c.148-.09.222-.197.245-.305l-.027.214c-.019.11-.112.201-.228.272l-2.613 1.49c-.363.196-.647.22-1.086-.03l-2.427-1.392c-.15-.086-.293-.146-.308-.318l-.02-.316h.002c.007.173.128.334.336.453M39.795 83.257l2.427 1.39c.439.252.723.228 1.086.03l21.496-12.715c.147-.09.222-.197.245-.305l-.028.214c-.018.11-.112.201-.228.272L43.298 84.86c-.363.197-.648.221-1.086-.03l-2.427-1.391c-.15-.086-.293-.146-.308-.318l-.02-.316h.002c.007.173.128.333.336.453" fill="#DDDDFC"/>
            <path d="m50.79 79.978.007-.06a.398.398 0 0 1-.008.06M50.798 79.915v.003-.003zM55.581 77.214l.008-.06a.379.379 0 0 1-.008.06M55.59 77.15v.004-.003zM65.049 71.646l.008-.06c-.001.02-.004.04-.008.06M65.057 71.583v.004-.004zM69.84 68.882l.008-.06a.34.34 0 0 1-.007.06M69.849 68.82v.002-.003z" fill="#DDDDFC"/>
            <path d="m63.47 69.255 2.427 1.391c.438.251.723.227 1.086.03l2.613-1.489c.147-.09.221-.197.245-.305l-.028.214c-.019.11-.112.201-.228.273l-2.613 1.488c-.363.198-.647.222-1.086-.03l-2.427-1.39c-.15-.087-.293-.147-.307-.32l-.02-.315h.001c.008.174.129.334.337.453M68.209 66.45l2.428 1.392c.438.251.722.227 1.086.03l2.613-1.489c.147-.09.221-.197.245-.305l-.029.215c-.018.109-.111.2-.227.271l-2.613 1.489c-.363.197-.647.221-1.086-.03L68.2 66.632c-.15-.086-.293-.146-.308-.318l-.02-.316h.002c.007.173.128.334.336.453" fill="#DDDDFC"/>
            <path d="m52.79 3.348-.016 41.954c-.053 1.544-1.205 1.97-1.205 1.97L5.286 74.3s-.603.34-1.31.43c-.416.054-.868.022-1.256-.215a1.215 1.215 0 0 1-.11-.075c-.829-.645-.82-2.273-.82-2.273V31.264c.086-1.764 1.57-2.419 1.57-2.419L51.09 1.543s.92-.517 1.322-.061c.428.485.379.78.379 1.866" fill="#F2F2FF"/>
            <path d="m9.286 83.984-1.66-.988c-.257-.154-.41-.522-.266-.783a.548.548 0 0 0-.404.263c-.156.261-.003.64.26.796l1.66.989a.55.55 0 0 0 .485.037.548.548 0 0 0 .272-.228l.008-.015a.545.545 0 0 1-.355-.071" fill="#B6B6DD"/>
            <path d="m9.374 83.272-1.66-.988a.549.549 0 0 0-.354-.071c-.143.261.009.63.266.782l1.66.989c.111.066.236.087.354.071.143-.261-.009-.63-.266-.783" fill="#C7C7EA"/>
        </g>
        <g>
            <path fill="#FFF" d="M40.408 12.031v39.897L15.178 66.33V26.432z"/>
            <path fill="#DDDDFC" d="m40.408 14.97-25.23 14.401v14.476l25.23-14.402zM37.37 39.349v3.842l-5.005 2.843v-3.79zM34.393 35.204v1.131L21.49 43.77v-1.079zM32.213 38.408v.94l-8.59 4.891v-.888zM37.37 43.77v.5l-5.005 2.843v-.448zM36.384 45.52v.5l-3.982 2.285v-.447zM23.843 47.124v3.842l-5.006 2.843v-3.79zM30.259 45.916v1.822l-4.416 2.507v-1.77z"/>
            <path fill="#CECEEF" d="m30.259 45.916-.318-.16-4.362 2.559.264.16z"/>
            <path fill="#E4E4F4" d="m25.843 48.476-.264-.161v1.769l.264.16z"/>
            <path fill="#DDDDFC" d="M23.843 51.545v.5l-5.006 2.843v-.448zM22.819 53.245v.5l-3.982 2.285v-.448z"/>
            <path d="M17.245 26.669c.17.205.12.524-.108.713-.229.189-.552.176-.722-.029-.17-.205-.121-.525.108-.713.23-.19.552-.176.722.029" fill="#E8F0F4"/>
        </g>
    </g>
</svg>
