<svg width="16" height="16" viewBox="0 0 16 16" xmlns="http://www.w3.org/2000/svg">
    <g fill="#E960BE" fill-rule="evenodd">
        <path d="M8 5.176A2.826 2.826 0 0 0 5.171 8 2.826 2.826 0 0 0 8 10.824 2.826 2.826 0 0 0 10.828 8 2.826 2.826 0 0 0 8 5.176z" fill-rule="nonzero"/>
        <path d="M3.448.251a41.383 41.383 0 0 1 9.104 0c1.652.184 2.985 1.484 3.179 3.14a39.614 39.614 0 0 1 0 9.219c-.194 1.655-1.527 2.955-3.179 3.139-3 .335-6.103.335-9.104 0-1.652-.184-2.985-1.484-3.179-3.14a39.615 39.615 0 0 1 0-9.219C.463 1.735 1.796.435 3.448.251zm8.904 2.536a.87.87 0 1 0-.002 1.74.87.87 0 0 0 .002-1.74zM3.866 8A4.13 4.13 0 0 1 8 3.873 4.13 4.13 0 0 1 12.134 8 4.13 4.13 0 0 1 8 12.127 4.13 4.13 0 0 1 3.866 8z"/>
    </g>
</svg>
