<svg width="126" height="84" viewBox="0 0 126 84" xmlns="http://www.w3.org/2000/svg">
    <g fill="none" fill-rule="evenodd">
        <path d="M95.281.052 74.428 0l-2.876 2.47a1.373 1.373 0 0 0-.186 1.886l7.164 9.145 6.46-2.012-5.96-7.503 11.907.005-5.946 7.498 6.332 2.213 7.186-9.3a1.373 1.373 0 0 0-.22-1.902L95.282.052z" fill="#FFD881"/>
        <path d="m108.49 45.912-47.576.023v20.017c-.004 1.13.298 2.17 1.093 2.97a4.226 4.226 0 0 0 3 1.248l39.253-.016a4.239 4.239 0 0 0 4.232-4.246l-.001-19.996zm0-1.29-47.576.028-.013-13.154h47.588l.001 13.126zM60.905 30.206h47.584v-1.342s3.68 2.846 5.622 4.35c.654.505 1.59.403 2.12-.232l9.41-11.273a1.548 1.548 0 0 0-.2-2.18L106.934 4.176a3.84 3.84 0 0 0-2.457-.886l-3.812.005.035 1.242-8.61 10.97-7.098-2.455-7.21 2.254-8.51-10.684.004-1.338H65.48c-.912 0-1.794.324-2.488.916L44.364 20.048a1.544 1.544 0 0 0-.177 2.178l9.063 10.673c.546.644 1.509.726 2.156.184l5.506-4.603-.007 1.726z" fill="#FFD881"/>
        <g transform="translate(60.914 33.185)">
            <path d="M0 .217A.77.77 0 0 1 .535 0h1.924a.768.768 0 0 1 .767.77v.58a.77.77 0 0 0 1.01.732l.52-.172a.767.767 0 0 1 .972.496l.598 1.87a.77.77 0 0 1-.491.967l-.543.18a.77.77 0 0 0-.384 1.181l.344.48c.245.343.17.82-.17 1.07l-1.56 1.15a.768.768 0 0 1-1.079-.171l-.322-.45a.768.768 0 0 0-1.249 0l-.322.45A.77.77 0 0 1 0 9.45V.217z" fill="#FFF"/>
            <path d="M0 3.522c.357-.353.846-.571 1.386-.571 1.089 0 1.973.886 1.973 1.978a1.976 1.976 0 0 1-1.973 1.977c-.54 0-1.03-.218-1.386-.57V3.521z" fill="#FFD881"/>
            <path d="M14.253 9.205a.683.683 0 0 1-.957.152l-1.7-1.253a.684.684 0 0 1-.15-.95l.462-.646a.687.687 0 0 0-.34-1.048l-.738-.243a.684.684 0 0 1-.436-.859l.652-2.034a.682.682 0 0 1 .861-.44l.72.236a.68.68 0 0 0 .893-.65V.685a.686.686 0 0 1 .682-.683H16.3a.68.68 0 0 1 .682.683v.787a.683.683 0 0 0 .894.649l.718-.237a.68.68 0 0 1 .862.44l.652 2.035a.685.685 0 0 1-.437.859l-.737.243a.681.681 0 0 0-.435.437.68.68 0 0 0 .095.611l.463.646a.685.685 0 0 1-.15.95l-1.7 1.253a.68.68 0 0 1-.958-.152l-.444-.62a.68.68 0 0 0-1.107 0l-.444.62z" fill="#FFF"/>
            <ellipse fill="#FFD881" cx="15.251" cy="4.929" rx="1.973" ry="1.978"/>
            <path d="M28.609 9.205a.683.683 0 0 1-.957.152c-.494-.364-1.212-.892-1.7-1.253a.684.684 0 0 1-.15-.95l.462-.646a.687.687 0 0 0-.34-1.048l-.739-.243a.684.684 0 0 1-.436-.859c.189-.586.464-1.446.652-2.034a.682.682 0 0 1 .862-.44l.719.236a.68.68 0 0 0 .894-.65V.685a.686.686 0 0 1 .682-.683h2.097a.68.68 0 0 1 .681.683v.787a.683.683 0 0 0 .895.649l.717-.237a.68.68 0 0 1 .863.44l.652 2.035a.685.685 0 0 1-.437.859l-.737.243a.681.681 0 0 0-.435.437.68.68 0 0 0 .094.611l.463.646a.685.685 0 0 1-.15.95l-1.7 1.253a.68.68 0 0 1-.957-.152l-.445-.62a.68.68 0 0 0-1.107 0l-.443.62z" fill="#FFF"/>
            <ellipse fill="#FFD881" cx="29.606" cy="4.929" rx="1.973" ry="1.978"/>
            <path d="M47.58 8.12a1.482 1.482 0 0 1-.044.035l-1.56 1.15a.768.768 0 0 1-1.079-.172l-.322-.45a.768.768 0 0 0-1.249 0l-.322.45a.767.767 0 0 1-1.078.171l-1.562-1.15a.773.773 0 0 1-.169-1.07l.345-.48a.774.774 0 0 0-.385-1.182l-.543-.179a.77.77 0 0 1-.491-.968l.598-1.869a.768.768 0 0 1 .972-.496l.52.172a.77.77 0 0 0 1.009-.732l.001-.58a.77.77 0 0 1 .768-.77h1.923a.768.768 0 0 1 .769.77v.58a.77.77 0 0 0 1.008.732l.521-.172a.768.768 0 0 1 .37-.027V5.5a.772.772 0 0 0-.219 1.104l.219.304V8.12z" fill="#FFF"/>
            <ellipse fill="#FFD881" cx="43.792" cy="4.929" rx="1.973" ry="1.978"/>
        </g>
        <g>
            <path d="M3.79 59.496C.323 64-1.527 73.222 2.025 76.642c6.42 6.182 14.552 6.027 28.973 5.613 12.578-.36 23.533 1.268 38.922-2.037 9.042-2.904 18.716-7.138 18.485-13.498l-2.846-3.97-81.77-3.254z" fill="#F2F2F2"/>
            <path d="M40.477 44.083c-1.267-1.513-2.537-2.94-3.983-4.098a.15.15 0 0 0-.213.026c-3.637 4.742-5.532 6.881-2.89 13.228l7.086-9.156z" fill="#3974D8"/>
            <path d="M39.327 42.727a.055.055 0 0 0-.055.003c-3.675 2.467-5.14 8.53-8.114 9.622-5.781 2.123-12.229 2.583-16.145.169-2.682-1.654-3.937-6.7-6-7.97a.13.13 0 0 0-.14.003c-1.687 1.164-.7 4.33-2.59 7.573-3.147 5.4-3.662 12.09-.184 15.8 3.762 4.014 9.915 3.966 18.91 2.682 5.83-.832 11.485-.754 17.405.866 15.444 4.228 37.429 3.169 45.9-4.791 1.185-4.944-1.433-7.733-4.723-8.309-5.317-.93-12.207.744-19.007.3a1.297 1.297 0 0 1-.31-.058c-6.773-2.224-17.126-11.857-24.947-15.89z" fill="#4385F5"/>
            <path d="M.117 70.36c-.961 8.073 4.045 11.6 14.02 12.751 8.124.937 14.37-.686 30.583-.252 14.876.4 28.293-.086 40.45-8.594 7.462-5.224 4.95-12.379 1.31-14.64-.553 3.646-.217 7.323.179 10.98-3.913 3.908-11.349 7.201-18.56 8.865-7.432 1.716-15.724 1.63-24.013 1.477-7.405-.196-16.423.268-22.78.332-5.645.058-10.6-.514-14.292-2.153-3.181-1.412-5.763-3.993-6.897-8.765z" fill="#DBDCE0"/>
            <path d="M54.344 52.877c-.723 1.86-1.793 3.296-3.209 4.311-.893.64.233 2.6 2.192 1.448 1.205-.709 2.485-2.606 3.092-4.317l-2.075-1.442zM51.683 50.963l-2.266-1.649c-.668 1.986-1.834 3.501-3.423 4.616-1.102.775.522 2.844 2.335 1.576 1.486-1.039 2.589-2.612 3.354-4.543zM46.329 47.1l-2.285-1.565c-.555 2.272-1.846 3.803-3.572 4.897-.94.596.52 2.914 2.508 1.531a8.416 8.416 0 0 0 3.349-4.862z" fill="#FFF"/>
        </g>
    </g>
</svg>
