<svg width="16" height="16" viewBox="0 0 16 16" xmlns="http://www.w3.org/2000/svg">
    <path d="M15.976 12.574c-.141.349-.847.638-2.042.834-.112.019-.16.212-.224.529-.027.13-.055.258-.09.392a.24.24 0 0 1-.086.142.213.213 0 0 1-.152.046h-.019a1.802 1.802 0 0 1-.338-.046 4.21 4.21 0 0 0-.897-.1c-.218 0-.433.02-.647.058a3.03 3.03 0 0 0-1.227.668A3.44 3.44 0 0 1 8.102 16c-.046 0-.09-.001-.123-.003A.886.886 0 0 1 7.9 16a3.436 3.436 0 0 1-2.152-.903 3.039 3.039 0 0 0-1.227-.668 3.734 3.734 0 0 0-.647-.058c-.301.003-.6.04-.895.108a1.874 1.874 0 0 1-.34.051.223.223 0 0 1-.163-.044.25.25 0 0 1-.093-.15 5.828 5.828 0 0 1-.09-.396c-.066-.318-.113-.512-.225-.53-1.195-.196-1.9-.486-2.042-.836a.342.342 0 0 1-.025-.11.214.214 0 0 1 .042-.14.19.19 0 0 1 .119-.074 4.132 4.132 0 0 0 2.508-1.588c.347-.427.634-.903.856-1.417l.003-.009a.954.954 0 0 0 .082-.766c-.153-.386-.663-.558-1-.672a3.041 3.041 0 0 1-.227-.082c-.3-.125-.79-.392-.725-.759a.703.703 0 0 1 .255-.337.637.637 0 0 1 .393-.116.435.435 0 0 1 .196.041c.252.138.529.216.81.229a.651.651 0 0 0 .469-.153l-.03-.51a9.156 9.156 0 0 1 .193-3.434A4.403 4.403 0 0 1 5.512.715 4.006 4.006 0 0 1 7.836.003L8.158 0a4.012 4.012 0 0 1 2.328.712 4.409 4.409 0 0 1 1.57 1.963c.282 1.12.347 2.29.193 3.439l-.003.054-.025.453c.12.101.27.155.423.151.267-.02.527-.098.765-.227a.572.572 0 0 1 .25-.053c.098 0 .194.02.285.058l.004.002a.524.524 0 0 1 .267.167.58.58 0 0 1 .134.297c.003.178-.12.443-.731.7a3.687 3.687 0 0 1-.226.082c-.339.114-.848.286-1.001.672a.968.968 0 0 0 .08.765l.005.01a5.248 5.248 0 0 0 1.352 1.923 4.835 4.835 0 0 0 2.012 1.082.19.19 0 0 1 .118.074c.03.04.044.09.042.14a.345.345 0 0 1-.025.111v-.001z" fill="#FFDB6E" fill-rule="nonzero"/>
</svg>
