<svg width="36" height="22" viewBox="0 0 36 22" xmlns="http://www.w3.org/2000/svg">
    <g fill="#232020" fill-rule="nonzero">
        <path d="M30.872 0c1.783 0 2.43.186 3.082.534.652.349 1.163.86 1.512 1.512.348.652.534 1.299.534 3.082v11.744c0 1.783-.186 2.43-.534 3.082a3.635 3.635 0 0 1-1.512 1.512c-.652.348-1.299.534-3.082.534H5.128c-1.783 0-2.43-.186-3.082-.534a3.635 3.635 0 0 1-1.512-1.512c-.33-.618-.514-1.23-.532-2.81L0 5.128c0-1.783.186-2.43.534-3.082A3.635 3.635 0 0 1 2.046.534c.618-.33 1.23-.514 2.81-.532L30.872 0zm0 1.5H5.128l-.484.005c-1.036.02-1.458.12-1.89.352-.39.209-.688.506-.897.897-.264.494-.357.975-.357 2.374v11.744l.005.484c.02 1.036.12 1.458.352 1.89.209.39.506.688.897.897.494.264.975.357 2.374.357h25.744l.484-.005c1.036-.02 1.458-.12 1.89-.352.39-.209.688-.506.897-.897.264-.494.357-.975.357-2.374V5.128l-.005-.484c-.02-1.036-.12-1.458-.352-1.89a2.135 2.135 0 0 0-.897-.897c-.494-.264-.975-.357-2.374-.357z"/>
        <path d="m10.5 14.18 1.219-2.102h2.258L13.46 7.86 8.773 16H5.922l6.516-10.656h3.132L17.187 16H14.5l-.242-1.82zM25.078 16H21.93l.492-2.21h2.273c.094 0 .16-.053.196-.157l1.304-5.922c.037-.104-.005-.156-.125-.156h-2.914L21.29 16h-2.64l2.367-10.656h6.43c.536 0 .947.187 1.234.562.297.38.383.834.258 1.36l-1.508 6.812c-.125.537-.396.98-.813 1.328-.458.396-.971.594-1.539.594z"/>
    </g>
</svg>
