<svg width="32" height="27" viewBox="0 0 32 27" xmlns="http://www.w3.org/2000/svg">
    <g fill="#232020" fill-rule="nonzero">
        <path d="M16.464.25c.898 0 1.376.093 1.867.356.456.244.819.607 1.063 1.063.145.272.236.53.29.86a.75.75 0 0 1-1.48.245 1.157 1.157 0 0 0-.132-.397 1.068 1.068 0 0 0-.449-.449c-.245-.13-.487-.178-1.159-.178h-12.9c-.7 0-.94.046-1.187.178a1.068 1.068 0 0 0-.449.449c-.132.247-.178.487-.178 1.187v11.872c0 .7.046.94.178 1.187.105.195.254.344.449.449.247.132.487.178 1.187.178h4.092a.75.75 0 1 1 0 1.5H3.564c-.926 0-1.4-.092-1.895-.356a2.567 2.567 0 0 1-1.063-1.063c-.264-.494-.356-.969-.356-1.895V3.564c0-.926.092-1.4.356-1.895C.85 1.213 1.213.85 1.669.606 2.163.342 2.638.25 3.564.25h12.9z"/>
        <path d="M30.333 5.25H15c-2.626 0-4.75 2.162-4.75 4.821V21.25l.006.137a1.421 1.421 0 0 0 1.41 1.292l6.261-.001 2.446 3.733.068.09a.75.75 0 0 0 1.186-.09l2.445-3.733h6.261c.786 0 1.417-.642 1.417-1.428V6.679c0-.786-.631-1.429-1.417-1.429zm-.083 1.5v14.428h-6.583l-.107.008a.75.75 0 0 0-.52.332L21 24.63l-2.04-3.113-.064-.086a.75.75 0 0 0-.563-.253l-6.583-.001V10.071c0-1.837 1.458-3.321 3.25-3.321h15.25z"/>
        <path d="M22.69 11.762c-.434.071-.87.457-1.04.754L21 13.64l-.65-1.124c-.188-.327-.696-.76-1.171-.766-1.459-.017-2.035 1.893-.61 3.632.256.314.573.612.937.89.39.298.81.558 1.23.776l.264.131.264-.131c.42-.218.84-.478 1.23-.776.364-.278.68-.576.937-.89 1.425-1.74.849-3.649-.61-3.632l-.13.012zm.285-1.51c2.76.104 3.727 3.504 1.617 6.08-.335.41-.736.786-1.187 1.131-.464.355-.957.66-1.45.916l-.277.139a6.35 6.35 0 0 1-.402.18l-.276.109-.276-.11a9.893 9.893 0 0 1-2.13-1.234 7.107 7.107 0 0 1-1.186-1.13c-2.153-2.63-1.101-6.116 1.788-6.083.665.008 1.25.276 1.704.645l.099.085.1-.085c.41-.333.924-.583 1.508-.635l.197-.01.17.002z"/>
    </g>
</svg>
