<svg width="27" height="25" viewBox="0 0 27 25" xmlns="http://www.w3.org/2000/svg">
    <g transform="translate(.25 .25)" fill="#1F6BD3" fill-rule="nonzero">
        <path d="M18.65 11a5.65 5.65 0 1 0 0 11.3 5.65 5.65 0 0 0 0-11.3zm0 1.5a4.15 4.15 0 1 1 0 8.3 4.15 4.15 0 0 1 0-8.3z"/>
        <path d="M21.57 19.57a.75.75 0 0 1 1.06 0l3.65 3.65a.75.75 0 0 1-1.06 1.06l-3.65-3.65a.75.75 0 0 1 0-1.06zM23.95 0c.854 0 1.55.696 1.55 1.55v7.4a.75.75 0 1 1-1.5 0v-7.4a.053.053 0 0 0-.05-.05H1.55a.053.053 0 0 0-.05.05v15.2a4.064 4.064 0 0 0 4.05 4.05h5.873a.75.75 0 0 1 0 1.5H5.55C2.496 22.3 0 19.804 0 16.75V1.55C0 .696.696 0 1.55 0h22.4z"/>
        <path d="M24.75 6v1.5h-24V6z"/>
        <circle cx="7.15" cy="3.75" r="1"/>
        <circle cx="4.03" cy="3.75" r="1"/>
        <circle cx="10.35" cy="3.75" r="1"/>
    </g>
</svg>
