<svg width="10" height="18" viewBox="0 0 10 18" xmlns="http://www.w3.org/2000/svg">
    <path d="M7.217 0C6.008 0 4.849.48 3.995 1.336A4.564 4.564 0 0 0 2.66 4.562v2.54H.222C.099 7.101 0 7.2 0 7.322v3.354c0 .122.1.222.222.222H2.66v6.88c0 .122.1.221.222.221h3.35c.122 0 .221-.1.221-.222v-6.88h2.46c.102 0 .19-.069.215-.167l.838-3.354a.222.222 0 0 0-.215-.276H6.453v-2.54a.765.765 0 0 1 .764-.764h2.561c.123 0 .222-.1.222-.222V.222C10 .099 9.9 0 9.778 0H7.217z" fill="#3789FF" fill-rule="nonzero"/>
</svg>
