<svg width="32" height="27" viewBox="0 0 32 27" xmlns="http://www.w3.org/2000/svg">
    <g stroke="#1F6BD3" stroke-width="2" fill="none" fill-rule="evenodd">
        <path d="M7.656 18H3.564c-.892 0-1.215-.093-1.54-.267a1.817 1.817 0 0 1-.757-.756c-.174-.326-.267-.65-.267-1.54V3.563c0-.892.093-1.215.267-1.54.174-.327.43-.583.756-.757.326-.174.65-.267 1.54-.267h12.901c.858 0 1.187.093 1.513.267.326.174.582.43.756.756.096.18.167.36.212.628" stroke-linecap="round"/>
        <path d="M23.667 21.929 21 26l-2.667-4.071h-6.666A.673.673 0 0 1 11 21.25V10.071C11 7.823 12.79 6 15 6h15.333c.369 0 .667.304.667.679V21.25a.673.673 0 0 1-.667.679h-6.666z" stroke-linecap="round" stroke-linejoin="round"/>
        <path d="M22.812 11c-1.044.012-1.736 1.009-1.812 1.14-.076-.131-.768-1.128-1.812-1.14-2.042-.023-3.086 2.554-1.2 4.858C19.138 17.263 21 18 21 18s1.861-.737 3.012-2.142c1.886-2.304.842-4.881-1.2-4.858"/>
    </g>
</svg>
