<svg width="26" height="25" viewBox="0 0 26 25" xmlns="http://www.w3.org/2000/svg">
    <g fill="#1F6BD3" fill-rule="nonzero">
        <path d="M3.25 12.5V20a3.262 3.262 0 0 0 3.25 3.25h13A3.262 3.262 0 0 0 22.75 20v-7.5h1.5V20a4.762 4.762 0 0 1-4.75 4.75h-13A4.762 4.762 0 0 1 1.75 20v-7.5h1.5z"/>
        <path d="M23.595.25H2.405l-.448 1.924-.688 2.99-.75 3.355C.34 9.369.25 9.847.25 10A3.759 3.759 0 0 0 4 13.75l.199-.005A3.75 3.75 0 0 0 6.957 12.3L7 12.243l.043.058A3.748 3.748 0 0 0 10 13.75l.199-.005a3.75 3.75 0 0 0 2.758-1.444l.042-.058.044.058A3.748 3.748 0 0 0 16 13.75l.199-.005a3.75 3.75 0 0 0 2.758-1.444l.042-.058.044.058A3.748 3.748 0 0 0 22 13.75 3.759 3.759 0 0 0 25.75 10l-.005-.08c-.032-.325-.228-1.265-.596-2.907l-.756-3.325L23.595.25zM3.594 1.75h18.811l.697 3.019.583 2.574c.34 1.528.565 2.583.565 2.657A2.259 2.259 0 0 1 22 12.25 2.259 2.259 0 0 1 19.75 10h-1.5A2.259 2.259 0 0 1 16 12.25 2.259 2.259 0 0 1 13.75 10h-1.5A2.259 2.259 0 0 1 10 12.25 2.259 2.259 0 0 1 7.75 10h-1.5A2.259 2.259 0 0 1 4 12.25 2.259 2.259 0 0 1 1.75 10l.014-.092c.043-.237.182-.895.383-1.807l.584-2.603.512-2.228.351-1.52zM15.75 19.25h-5.5v5.5h5.5v-5.5zm-1.501 1.5v2.5H11.75v-2.5h2.499z"/>
    </g>
</svg>
