<svg width="347" height="212" viewBox="0 0 347 212" xmlns="http://www.w3.org/2000/svg" xmlns:xlink="http://www.w3.org/1999/xlink">
    <defs>
        <filter x="-1.5%" y="-8.3%" width="106.1%" height="133.3%" filterUnits="objectBoundingBox" id="i94qfvgq6a">
            <feOffset dx="5" dy="5" in="SourceAlpha" result="shadowOffsetOuter1"/>
            <feComposite in="shadowOffsetOuter1" in2="SourceAlpha" operator="out" result="shadowOffsetOuter1"/>
            <feColorMatrix values="0 0 0 0 0.945098039 0 0 0 0 0.952941176 0 0 0 0 0.97254902 0 0 0 1 0" in="shadowOffsetOuter1"/>
        </filter>
        <filter x="-4%" y="-8.3%" width="116.1%" height="133.3%" filterUnits="objectBoundingBox" id="usib7d6jnc">
            <feOffset dx="5" dy="5" in="SourceAlpha" result="shadowOffsetOuter1"/>
            <feComposite in="shadowOffsetOuter1" in2="SourceAlpha" operator="out" result="shadowOffsetOuter1"/>
            <feColorMatrix values="0 0 0 0 0.945098039 0 0 0 0 0.952941176 0 0 0 0 0.97254902 0 0 0 1 0" in="shadowOffsetOuter1"/>
        </filter>
        <filter x="-3.5%" y="-8.3%" width="113.9%" height="133.3%" filterUnits="objectBoundingBox" id="levm50iihe">
            <feOffset dx="5" dy="5" in="SourceAlpha" result="shadowOffsetOuter1"/>
            <feComposite in="shadowOffsetOuter1" in2="SourceAlpha" operator="out" result="shadowOffsetOuter1"/>
            <feColorMatrix values="0 0 0 0 0.945098039 0 0 0 0 0.952941176 0 0 0 0 0.97254902 0 0 0 1 0" in="shadowOffsetOuter1"/>
        </filter>
        <filter x="-1.2%" y="-8.3%" width="105%" height="133.3%" filterUnits="objectBoundingBox" id="srzidjrmjg">
            <feOffset dx="5" dy="5" in="SourceAlpha" result="shadowOffsetOuter1"/>
            <feComposite in="shadowOffsetOuter1" in2="SourceAlpha" operator="out" result="shadowOffsetOuter1"/>
            <feColorMatrix values="0 0 0 0 0.945098039 0 0 0 0 0.952941176 0 0 0 0 0.97254902 0 0 0 1 0" in="shadowOffsetOuter1"/>
        </filter>
        <filter x="-6.2%" y="-5.4%" width="112.5%" height="118.5%" filterUnits="objectBoundingBox" id="akx2s1iufi">
            <feMorphology radius=".5" operator="dilate" in="SourceAlpha" result="shadowSpreadOuter1"/>
            <feOffset dy="4" in="shadowSpreadOuter1" result="shadowOffsetOuter1"/>
            <feComposite in="shadowOffsetOuter1" in2="SourceAlpha" operator="out" result="shadowOffsetOuter1"/>
            <feColorMatrix values="0 0 0 0 0.839215686 0 0 0 0 0.862745098 0 0 0 0 0.917647059 0 0 0 1 0" in="shadowOffsetOuter1"/>
        </filter>
        <filter x="-8.4%" y="-8.6%" width="116.9%" height="131%" filterUnits="objectBoundingBox" id="v5o3svyfqk">
            <feMorphology radius=".5" operator="dilate" in="SourceAlpha" result="shadowSpreadOuter1"/>
            <feOffset dy="4" in="shadowSpreadOuter1" result="shadowOffsetOuter1"/>
            <feComposite in="shadowOffsetOuter1" in2="SourceAlpha" operator="out" result="shadowOffsetOuter1"/>
            <feColorMatrix values="0 0 0 0 0.839215686 0 0 0 0 0.862745098 0 0 0 0 0.917647059 0 0 0 1 0" in="shadowOffsetOuter1"/>
        </filter>
        <filter x="-26.1%" y="-9%" width="152.9%" height="132.3%" filterUnits="objectBoundingBox" id="hkmmr70k0m">
            <feMorphology radius=".5" operator="dilate" in="SourceAlpha" result="shadowSpreadOuter1"/>
            <feOffset dy="4" in="shadowSpreadOuter1" result="shadowOffsetOuter1"/>
            <feComposite in="shadowOffsetOuter1" in2="SourceAlpha" operator="out" result="shadowOffsetOuter1"/>
            <feColorMatrix values="0 0 0 0 0.839215686 0 0 0 0 0.862745098 0 0 0 0 0.917647059 0 0 0 1 0" in="shadowOffsetOuter1"/>
        </filter>
        <filter x="-4.1%" y="-4%" width="108.2%" height="114.5%" filterUnits="objectBoundingBox" id="97i6e5rh4o">
            <feMorphology radius=".5" operator="dilate" in="SourceAlpha" result="shadowSpreadOuter1"/>
            <feOffset dy="4" in="shadowSpreadOuter1" result="shadowOffsetOuter1"/>
            <feComposite in="shadowOffsetOuter1" in2="SourceAlpha" operator="out" result="shadowOffsetOuter1"/>
            <feColorMatrix values="0 0 0 0 0.839215686 0 0 0 0 0.862745098 0 0 0 0 0.917647059 0 0 0 1 0" in="shadowOffsetOuter1"/>
        </filter>
        <filter x="-28.1%" y="-4.3%" width="156.2%" height="115.3%" filterUnits="objectBoundingBox" id="xfzoa7skdq">
            <feMorphology radius=".5" operator="dilate" in="SourceAlpha" result="shadowSpreadOuter1"/>
            <feOffset dy="4" in="shadowSpreadOuter1" result="shadowOffsetOuter1"/>
            <feComposite in="shadowOffsetOuter1" in2="SourceAlpha" operator="out" result="shadowOffsetOuter1"/>
            <feColorMatrix values="0 0 0 0 0.839215686 0 0 0 0 0.862745098 0 0 0 0 0.917647059 0 0 0 1 0" in="shadowOffsetOuter1"/>
        </filter>
        <filter x="-6.2%" y="-6.3%" width="112.4%" height="122.5%" filterUnits="objectBoundingBox" id="pe2fuadivs">
            <feMorphology radius=".5" operator="dilate" in="SourceAlpha" result="shadowSpreadOuter1"/>
            <feOffset dy="4" in="shadowSpreadOuter1" result="shadowOffsetOuter1"/>
            <feComposite in="shadowOffsetOuter1" in2="SourceAlpha" operator="out" result="shadowOffsetOuter1"/>
            <feColorMatrix values="0 0 0 0 0.839215686 0 0 0 0 0.862745098 0 0 0 0 0.917647059 0 0 0 1 0" in="shadowOffsetOuter1"/>
        </filter>
        <filter x="-6.2%" y="-6.3%" width="112.4%" height="122.5%" filterUnits="objectBoundingBox" id="myjrvscvku">
            <feMorphology radius=".5" operator="dilate" in="SourceAlpha" result="shadowSpreadOuter1"/>
            <feOffset dy="4" in="shadowSpreadOuter1" result="shadowOffsetOuter1"/>
            <feComposite in="shadowOffsetOuter1" in2="SourceAlpha" operator="out" result="shadowOffsetOuter1"/>
            <feColorMatrix values="0 0 0 0 0.839215686 0 0 0 0 0.862745098 0 0 0 0 0.917647059 0 0 0 1 0" in="shadowOffsetOuter1"/>
        </filter>
        <filter x="-6.5%" y="-4.3%" width="112.9%" height="115.6%" filterUnits="objectBoundingBox" id="94o25g46qw">
            <feMorphology radius=".5" operator="dilate" in="SourceAlpha" result="shadowSpreadOuter1"/>
            <feOffset dy="4" in="shadowSpreadOuter1" result="shadowOffsetOuter1"/>
            <feComposite in="shadowOffsetOuter1" in2="SourceAlpha" operator="out" result="shadowOffsetOuter1"/>
            <feColorMatrix values="0 0 0 0 0.839215686 0 0 0 0 0.862745098 0 0 0 0 0.917647059 0 0 0 1 0" in="shadowOffsetOuter1"/>
        </filter>
        <filter x="-6.7%" y="-6.3%" width="113.7%" height="122.5%" filterUnits="objectBoundingBox" id="ascn29zfdy">
            <feMorphology radius=".5" operator="dilate" in="SourceAlpha" result="shadowSpreadOuter1"/>
            <feOffset dy="4" in="shadowSpreadOuter1" result="shadowOffsetOuter1"/>
            <feComposite in="shadowOffsetOuter1" in2="SourceAlpha" operator="out" result="shadowOffsetOuter1"/>
            <feColorMatrix values="0 0 0 0 0.839215686 0 0 0 0 0.862745098 0 0 0 0 0.917647059 0 0 0 1 0" in="shadowOffsetOuter1"/>
        </filter>
        <path d="M3.846 0h155.308c1.337 0 1.822.14 2.311.4.49.262.873.646 1.134 1.135.262.489.401.974.401 2.31v22.31c0 1.336-.14 1.821-.4 2.31a2.726 2.726 0 0 1-1.135 1.134c-.489.262-.974.401-2.31.401H3.844c-1.336 0-1.821-.14-2.31-.4A2.726 2.726 0 0 1 .4 28.464C.139 27.976 0 27.491 0 26.155V3.844c0-1.336.14-1.821.4-2.31A2.726 2.726 0 0 1 1.536.4C2.024.139 2.509 0 3.845 0z" id="27kcbvq8nb"/>
        <path d="M182.846 177h54.308c1.337 0 1.822.14 2.311.4.49.262.873.646 1.134 1.135.262.489.401.974.401 2.31v22.31c0 1.336-.14 1.821-.4 2.31a2.726 2.726 0 0 1-1.135 1.134c-.489.262-.974.401-2.31.401h-54.31c-1.336 0-1.821-.14-2.31-.4a2.726 2.726 0 0 1-1.134-1.135c-.262-.489-.401-.974-.401-2.31v-22.31c0-1.336.14-1.821.4-2.31a2.726 2.726 0 0 1 1.135-1.134c.489-.262.974-.401 2.31-.401z" id="v3bkclu8yd"/>
        <path d="M3.846 0h64.308c1.337 0 1.822.14 2.311.4.49.262.873.646 1.134 1.135.262.489.401.974.401 2.31v22.31c0 1.336-.14 1.821-.4 2.31a2.726 2.726 0 0 1-1.135 1.134c-.489.262-.974.401-2.31.401H3.844c-1.336 0-1.821-.14-2.31-.4A2.726 2.726 0 0 1 .4 28.464C.139 27.976 0 27.491 0 26.155V3.844c0-1.336.14-1.821.4-2.31A2.726 2.726 0 0 1 1.536.4C2.024.139 2.509 0 3.845 0z" id="fjh78lkxgf"/>
        <path d="M3.846 0h193.308c1.337 0 1.822.14 2.311.4.49.262.873.646 1.134 1.135.262.489.401.974.401 2.31v22.31c0 1.336-.14 1.821-.4 2.31a2.726 2.726 0 0 1-1.135 1.134c-.489.262-.974.401-2.31.401H3.844c-1.336 0-1.821-.14-2.31-.4A2.726 2.726 0 0 1 .4 28.464C.139 27.976 0 27.491 0 26.155V3.844c0-1.336.14-1.821.4-2.31A2.726 2.726 0 0 1 1.536.4C2.024.139 2.509 0 3.845 0z" id="dwiyzgy3zh"/>
        <path id="pusiw0g6bj" d="m19.943 23.993 7.523 3.403L2.392 40.59l9.058-8.83V3.507L0 0v42.02l11.38 7.978L40 32.95V20.66l-25.148-7.706z"/>
        <path d="M14.835 0c8.41 0 14.835 6.278 14.835 14.499S23.245 29 14.835 29 0 22.72 0 14.499 6.425 0 14.835 0z" id="qxl91ly7sl"/>
        <path d="M40 1.436c-2.876-.145-5.715-.287-8.554-.432-.143 6.84-.284 13.713-.425 20.553 1.347.142 2.732.285 4.08.43C36.732 15.112 38.366 8.272 40 1.435zm-9.371 27.53h4.897V24.85c-1.773-.145-3.547-.287-5.323-.43.141 1.54.285 3.044.426 4.546z" id="4isyjxbevn"/>
        <path d="M30.512 0h2.203c7.648.164 15.172 3.207 20.575 8.594-1.995 2.015-4.032 3.948-5.985 5.963-3.035-2.714-6.693-4.811-10.683-5.551-5.903-1.234-12.262-.124-17.209 3.207-5.404 3.495-9.062 9.417-9.851 15.75-.873 6.25.914 12.83 5.03 17.682 3.948 4.729 9.975 7.69 16.21 7.895 5.82.33 11.889-1.44 16.129-5.469 3.325-2.837 4.863-7.155 5.362-11.35-6.9 0-13.8.042-20.7 0v-8.47h29.055c1.496 9.087-.665 19.327-7.649 25.824-4.655 4.605-11.098 7.32-17.666 7.854-6.36.617-12.927-.576-18.58-3.619-6.776-3.577-12.18-9.622-14.84-16.736-2.494-6.539-2.535-13.94-.208-20.52C3.825 15.05 7.9 9.746 13.136 6.044 18.166 2.386 24.276.37 30.512 0z" id="aycinwti8p"/>
        <path d="M197.196 2.138h8.896V60.86c-2.952 0-5.945.04-8.896-.041.042-19.533 0-39.107 0-58.68z" id="rs4267vbvr"/>
        <path d="M80.434 22.493c5.487-1.028 11.43.124 15.962 3.372 4.115 2.879 6.983 7.402 7.856 12.337 1.122 5.716-.291 11.966-4.032 16.49-4.032 5.058-10.641 7.772-17.084 7.36-5.903-.329-11.64-3.248-15.13-8.018-3.95-5.264-4.906-12.501-2.744-18.67 2.161-6.62 8.272-11.678 15.172-12.87m1.247 7.813c-2.245.575-4.323 1.85-5.82 3.66-4.032 4.77-3.782 12.541.665 16.983 2.536 2.549 6.36 3.742 9.893 3.043 3.284-.576 6.152-2.756 7.732-5.634 2.743-4.894 1.954-11.638-2.245-15.462-2.702-2.467-6.65-3.495-10.225-2.59z" id="dppxp4qpht"/>
        <path d="M124.495 22.493c6.277-1.192 13.135.535 17.832 4.894 7.649 6.785 8.48 19.491 1.954 27.305-3.949 4.934-10.35 7.648-16.668 7.36-6.028-.164-11.972-3.125-15.547-8.018-4.032-5.387-4.904-12.79-2.618-19.08 2.286-6.416 8.272-11.31 15.047-12.46m1.247 7.813c-2.245.575-4.323 1.85-5.82 3.618-3.99 4.688-3.824 12.337.458 16.819 2.536 2.673 6.484 3.989 10.142 3.249 3.243-.617 6.152-2.756 7.732-5.634 2.702-4.935 1.912-11.679-2.328-15.503-2.702-2.467-6.65-3.454-10.184-2.55z" id="931z60swov"/>
        <path d="M161.864 24.878c4.78-2.96 11.14-3.783 16.294-1.233 1.622.699 2.952 1.891 4.24 3.084.042-1.11 0-2.262.042-3.413 2.785.041 5.57 0 8.396.041v36.27c-.041 5.468-1.454 11.266-5.445 15.255-4.364 4.4-11.057 5.757-17.084 4.853-6.443-.946-12.055-5.593-14.549-11.473 2.494-1.193 5.113-2.139 7.69-3.249 1.455 3.372 4.406 6.25 8.106 6.908 3.7.658 7.98-.246 10.392-3.29 2.577-3.124 2.577-7.401 2.452-11.225-1.912 1.85-4.115 3.495-6.775 4.112-5.778 1.603-12.138-.37-16.586-4.236-4.489-3.865-7.15-9.828-6.9-15.75.125-6.702 3.95-13.158 9.727-16.654m8.604 5.264c-2.535.411-4.904 1.81-6.526 3.742-3.907 4.606-3.907 11.966.042 16.49 2.245 2.673 5.86 4.153 9.353 3.783 3.283-.329 6.318-2.385 7.939-5.222 2.743-4.812 2.286-11.35-1.413-15.544-2.287-2.591-5.944-3.866-9.395-3.249z" id="y8clr1em1x"/>
        <path d="M216.774 26.976c4.988-4.606 12.678-6.169 19.08-3.742 6.069 2.261 9.934 7.977 11.888 13.858-9.02 3.7-17.999 7.36-27.019 11.061 1.247 2.344 3.16 4.482 5.737 5.346 3.616 1.275 7.939.822 10.973-1.563 1.206-.904 2.162-2.097 3.076-3.248 2.286 1.521 4.573 3.002 6.859 4.523-3.242 4.811-8.688 8.183-14.549 8.718-6.484.781-13.384-1.686-17.583-6.703-6.9-7.895-6.235-21.136 1.538-28.25m4.448 7.607c-1.413 2.015-1.995 4.482-1.954 6.909a3351.677 3351.677 0 0 0 18.082-7.443c-.997-2.303-3.408-3.701-5.86-4.071-3.95-.7-8.065 1.398-10.268 4.605z" id="ls3ak2zslz"/>
    </defs>
    <g fill="none" fill-rule="evenodd">
        <g transform="translate(2 177)">
            <use fill="#000" filter="url(#i94qfvgq6a)" xlink:href="#27kcbvq8nb"/>
            <path stroke="#D6DCEA" d="M159.154.5c1.196 0 1.636.107 2.075.342.4.214.715.528.93.929.234.439.341.88.341 2.075v22.308c0 1.196-.107 1.636-.342 2.075-.214.4-.528.715-.929.93-.439.234-.88.341-2.075.341H3.846c-1.196 0-1.636-.107-2.075-.342a2.233 2.233 0 0 1-.93-.929C.608 27.79.5 27.35.5 26.154V3.846C.5 2.65.607 2.21.842 1.77c.214-.4.528-.715.929-.93C2.21.608 2.65.5 3.846.5z" stroke-linejoin="square" fill="#FFF"/>
        </g>
        <path d="M11 188h125a2 2 0 0 1 0 4H11a2 2 0 1 1 0-4zM11 196h102a2 2 0 0 1 0 4H11a2 2 0 1 1 0-4z" fill="#F1F3F8"/>
        <g transform="translate(1)">
            <use fill="#000" filter="url(#usib7d6jnc)" xlink:href="#v3bkclu8yd"/>
            <path stroke="#D6DCEA" d="M237.154 177.5c1.196 0 1.636.107 2.075.342.4.214.715.528.93.929.234.439.341.88.341 2.075v22.308c0 1.196-.107 1.636-.342 2.075-.214.4-.528.715-.929.93-.439.234-.88.341-2.075.341h-54.308c-1.196 0-1.636-.107-2.075-.342a2.233 2.233 0 0 1-.93-.929c-.234-.439-.341-.88-.341-2.075v-22.308c0-1.196.107-1.636.342-2.075.214-.4.528-.715.929-.93.439-.234.88-.341 2.075-.341z" stroke-linejoin="square" fill="#FFF"/>
        </g>
        <path d="M265.5 136.5v29H54.846c-1.196 0-1.636-.107-2.075-.342a2.233 2.233 0 0 1-.93-.929c-.234-.439-.341-.88-.341-2.075v-22.308c0-1.196.107-1.636.342-2.075.214-.4.528-.715.929-.93.439-.234.88-.341 2.075-.341H265.5z" stroke="#D6DCEA" fill="#FFF"/>
        <path d="M265 136h48.154c1.337 0 1.822.14 2.311.4.49.262.873.646 1.134 1.135.262.489.401.974.401 2.31v22.31c0 1.336-.14 1.821-.4 2.31a2.726 2.726 0 0 1-1.135 1.134c-.489.262-.974.401-2.31.401H265v-30z" fill="#8FBEFF"/>
        <path d="M294.909 153.194a.895.895 0 0 1-.189-1.08 6.234 6.234 0 0 0 .66-3.71c-.34-2.677-2.45-4.88-5.11-5.317a6.226 6.226 0 0 0-7.185 7.18c.434 2.66 2.629 4.77 5.3 5.119a6.214 6.214 0 0 0 3.703-.65.892.892 0 0 1 1.07.186l3.361 3.631c.587.635 1.637.588 2.19-.106.478-.6.342-1.488-.225-2.003l-3.575-3.25zM284.6 149.22a4.617 4.617 0 1 1 9.232 0 4.617 4.617 0 1 1-9.232 0z" fill="#FFF" fill-rule="nonzero"/>
        <text font-family="GothamPro, Gotham Pro" font-size="16" fill="#8FBEFF" transform="translate(51 136)">
                        <tspan x="11" y="19">search</tspan>
                    </text>
        <path stroke="#8FBEFF" stroke-width=".8" stroke-linecap="square" d="M116 143v16"/>
        <g>
            <g transform="translate(37)">
                <use fill="#000" filter="url(#levm50iihe)" xlink:href="#fjh78lkxgf"/>
                <path stroke="#D6DCEA" d="M68.154.5c1.196 0 1.636.107 2.075.342.4.214.715.528.93.929.234.439.341.88.341 2.075v22.308c0 1.196-.107 1.636-.342 2.075-.214.4-.528.715-.929.93-.439.234-.88.341-2.075.341H3.846c-1.196 0-1.636-.107-2.075-.342a2.233 2.233 0 0 1-.93-.929C.608 27.79.5 27.35.5 26.154V3.846C.5 2.65.607 2.21.842 1.77c.214-.4.528-.715.929-.93C2.21.608 2.65.5 3.846.5z" stroke-linejoin="square" fill="#FFF"/>
            </g>
            <path d="M50 9h39a2 2 0 1 1 0 4H50a2 2 0 1 1 0-4zM50 17h29a2 2 0 1 1 0 4H50a2 2 0 1 1 0-4z" fill="#FFE19D"/>
        </g>
        <g>
            <g transform="translate(129)">
                <use fill="#000" filter="url(#srzidjrmjg)" xlink:href="#dwiyzgy3zh"/>
                <path stroke="#D6DCEA" d="M197.154.5c1.196 0 1.636.107 2.075.342.4.214.715.528.93.929.234.439.341.88.341 2.075v22.308c0 1.196-.107 1.636-.342 2.075-.214.4-.528.715-.929.93-.439.234-.88.341-2.075.341H3.846c-1.196 0-1.636-.107-2.075-.342a2.233 2.233 0 0 1-.93-.929C.608 27.79.5 27.35.5 26.154V3.846C.5 2.65.607 2.21.842 1.77c.214-.4.528-.715.929-.93C2.21.608 2.65.5 3.846.5z" stroke-linejoin="square" fill="#FFF"/>
            </g>
            <path d="M142.57 11h146.86c1.006 0 1.546.14 2.035.4.49.262.873.646 1.134 1.135.262.489.401 1.029.401 2.036v.858c0 1.007-.14 1.547-.4 2.036a2.726 2.726 0 0 1-1.135 1.134c-.489.262-1.029.401-2.036.401H142.571c-1.007 0-1.547-.14-2.036-.4a2.726 2.726 0 0 1-1.134-1.135c-.262-.489-.401-1.029-.401-2.036v-.858c0-1.007.14-1.547.4-2.036a2.726 2.726 0 0 1 1.135-1.134c.489-.262 1.029-.401 2.036-.401z" fill="#F1F3F8"/>
        </g>
        <g fill-rule="nonzero">
            <g transform="translate(1 116)">
                <use fill="#000" filter="url(#akx2s1iufi)" xlink:href="#pusiw0g6bj"/>
                <use stroke="#D6DCEA" fill="#FFF" xlink:href="#pusiw0g6bj"/>
            </g>
        </g>
        <g fill-rule="nonzero">
            <g transform="translate(262 177)">
                <use fill="#000" filter="url(#v5o3svyfqk)" xlink:href="#qxl91ly7sl"/>
                <use stroke="#D6DCEA" fill="#FFF" xlink:href="#qxl91ly7sl"/>
            </g>
            <path d="M276.198 186.527c.034-.503.07-1.004.14-1.504h-11.285v1.504c1.134.071 2.236.18 3.372.25 2.129 2.614 4.257 5.227 6.423 7.875v4.047c-1.207.108-2.414.18-3.62.287v1.323h11.144v-1.323c-1.206-.073-2.413-.108-3.62-.144.037-1.431.07-2.899.107-4.332 2.092-1.863 4.153-3.723 6.211-5.585 1.063-.072 2.129-.143 3.228-.25v-1.755c-3.157.036-6.281.07-9.439.142v1.47c1.17.071 2.343.105 3.513.142-1.525 1.325-3.053 2.614-4.578 3.939-1.562-1.934-3.124-3.902-4.686-5.836 1.03-.108 2.058-.179 3.09-.25z" fill="#D6DCEA"/>
            <g transform="translate(262 177)">
                <use fill="#000" filter="url(#hkmmr70k0m)" xlink:href="#4isyjxbevn"/>
                <use stroke="#D6DCEA" fill="#FFF" xlink:href="#4isyjxbevn"/>
            </g>
        </g>
        <g fill-rule="nonzero">
            <g transform="translate(37 41)">
                <use fill="#000" filter="url(#97i6e5rh4o)" xlink:href="#aycinwti8p"/>
                <use stroke="#D6DCEA" fill="#FFF" xlink:href="#aycinwti8p"/>
            </g>
            <g transform="translate(37 41)">
                <use fill="#000" filter="url(#xfzoa7skdq)" xlink:href="#rs4267vbvr"/>
                <use stroke="#D6DCEA" fill="#FFF" xlink:href="#rs4267vbvr"/>
            </g>
            <g transform="translate(37 41)">
                <use fill="#000" filter="url(#pe2fuadivs)" xlink:href="#dppxp4qpht"/>
                <use stroke="#D6DCEA" fill="#FFF" xlink:href="#dppxp4qpht"/>
            </g>
            <g transform="translate(37 41)">
                <use fill="#000" filter="url(#myjrvscvku)" xlink:href="#931z60swov"/>
                <use stroke="#D6DCEA" fill="#FFF" xlink:href="#931z60swov"/>
            </g>
            <g transform="translate(37 41)">
                <use fill="#000" filter="url(#94o25g46qw)" xlink:href="#y8clr1em1x"/>
                <use stroke="#D6DCEA" fill="#FFF" xlink:href="#y8clr1em1x"/>
            </g>
            <g transform="translate(37 41)">
                <use fill="#000" filter="url(#ascn29zfdy)" xlink:href="#ls3ak2zslz"/>
                <use stroke="#D6DCEA" fill="#FFF" xlink:href="#ls3ak2zslz"/>
            </g>
        </g>
        <g>
            <g fill-rule="nonzero">
                <path d="m308.22 20.925-1.026-4.113a1.59 1.59 0 0 0-3.085.769l1.025 4.113a1.59 1.59 0 1 0 3.085-.77zm-5.842 5.877a1.59 1.59 0 0 0-1.122-1.957l-4.685-1.27a1.59 1.59 0 1 0-.83 3.069l4.686 1.27c.26.075.536.082.8.019a1.585 1.585 0 0 0 1.15-1.13zm-3.931 11.131 3.6-3.082a1.59 1.59 0 1 0-2.066-2.416l-3.6 3.082a1.59 1.59 0 0 0 2.066 2.416zm18.002-15.41 3.6-3.082a1.59 1.59 0 0 0-2.066-2.416l-3.6 3.082a1.59 1.59 0 0 0 2.066 2.416z" fill="#D6DCEA"/>
                <path d="m313.624 29.025 18.001 8.6a2.573 2.573 0 0 1-.5 4.82l-5.365 1.337a5.186 5.186 0 0 0-3.516 2.993l-2.165 5.081a2.586 2.586 0 0 1-4.852-.256l-5.747-19.048a2.967 2.967 0 0 1 4.144-3.527z" stroke="#FFF" stroke-width="4" fill="#CEEAD6"/>
            </g>
            <path d="M318.572 37.42a2.662 2.662 0 0 0-.46 3.737l9.836 12.588a2.662 2.662 0 0 0 4.196-3.278l-9.835-12.588a2.662 2.662 0 0 0-3.737-.46z" fill="#CEEAD6"/>
        </g>
    </g>
</svg>
