<svg width="31" height="24" viewBox="0 0 31 24" xmlns="http://www.w3.org/2000/svg">
    <g fill="#232020" fill-rule="nonzero">
        <path d="M25.872 11c1.783 0 2.43.186 3.082.534.652.349 1.163.86 1.512 1.512.348.652.534 1.299.534 3.082v2.744c0 1.783-.186 2.43-.534 3.082a3.635 3.635 0 0 1-1.512 1.512c-.652.348-1.299.534-3.082.534H5.128c-1.783 0-2.43-.186-3.082-.534a3.635 3.635 0 0 1-1.512-1.512c-.33-.618-.514-1.23-.532-2.81L0 16.128c0-1.783.186-2.43.534-3.082a3.635 3.635 0 0 1 1.512-1.512c.618-.33 1.23-.514 2.81-.532L25.872 11zm0 1.5H5.128l-.484.005c-1.036.02-1.458.12-1.89.352-.39.209-.688.506-.897.897-.264.494-.357.975-.357 2.374v2.744l.005.484c.02 1.036.12 1.458.352 1.89.209.39.506.688.897.897.494.264.975.357 2.374.357h20.744l.484-.005c1.036-.02 1.458-.12 1.89-.352.39-.209.688-.506.897-.897.264-.494.357-.975.357-2.374v-2.744l-.005-.484c-.02-1.036-.12-1.458-.352-1.89a2.135 2.135 0 0 0-.897-.897c-.494-.264-.975-.357-2.374-.357zM26.368 0c1.188 0 1.934.186 2.586.534.652.349 1.163.86 1.512 1.512.348.652.534 1.398.534 2.586v.736c0 1.188-.186 1.934-.534 2.586a3.635 3.635 0 0 1-1.512 1.512c-.652.348-1.398.534-2.586.534H4.632c-1.188 0-1.934-.186-2.586-.534A3.635 3.635 0 0 1 .534 7.954C.186 7.302 0 6.556 0 5.368v-.736c0-1.188.186-1.934.534-2.586A3.635 3.635 0 0 1 2.046.534C2.698.186 3.444 0 4.632 0h21.736zM4.632 1.5c-.899 0-1.422.113-1.878.357-.39.209-.688.506-.897.897-.244.456-.357.979-.357 1.878v.736c0 .899.113 1.422.357 1.878.209.39.506.688.897.897.456.244.979.357 1.878.357h21.736c.899 0 1.422-.113 1.878-.357.39-.209.688-.506.897-.897.244-.456.357-.979.357-1.878v-.736c0-.899-.113-1.422-.357-1.878a2.135 2.135 0 0 0-.897-.897c-.456-.244-.979-.357-1.878-.357H4.632z"/>
        <path d="M19.147 14.942a.75.75 0 1 1 0 1.5H6.382a.75.75 0 1 1 0-1.5h12.765zM14 4.25a.75.75 0 1 1 0 1.5H6a.75.75 0 0 1 0-1.5h8zM10.382 18.635a.75.75 0 1 1 0 1.5h-4a.75.75 0 0 1 0-1.5h4z"/>
    </g>
</svg>
