<svg width="65" height="65" viewBox="0 0 65 65" xmlns="http://www.w3.org/2000/svg" xmlns:xlink="http://www.w3.org/1999/xlink">
    <defs>
        <filter x="-36.7%" y="-30%" width="173.3%" height="173.3%" filterUnits="objectBoundingBox" id="v1x4grvlfa">
            <feOffset dy="3" in="SourceAlpha" result="shadowOffsetOuter1"/>
            <feGaussianBlur stdDeviation="5" in="shadowOffsetOuter1" result="shadowBlurOuter1"/>
            <feColorMatrix values="0 0 0 0 0.164705882 0 0 0 0 0.262745098 0 0 0 0 0.517647059 0 0 0 0.1 0" in="shadowBlurOuter1"/>
        </filter>
        <circle id="b0emcai4rb" cx="22.5" cy="22.5" r="22.5"/>
    </defs>
    <g fill="none" fill-rule="evenodd">
        <g transform="translate(10 7)">
            <use fill="#000" filter="url(#v1x4grvlfa)" xlink:href="#b0emcai4rb"/>
            <use fill="#FFF" xlink:href="#b0emcai4rb"/>
        </g>
        <path d="M29.573 16c3.617.01 6.628 1.969 8.002 5.03.371.827.613 1.714.718 2.637.078.692.09 1.15.045 1.795-.221 3.13-1.892 5.868-4.522 7.815a.027.027 0 0 0 .003.046l.227.124c1.849 1.022 3.346 2.088 4.496 3.302.08.084.157.168.233.253a.032.032 0 0 0 .047 0c.075-.086.151-.17.23-.255 1.138-1.224 2.624-2.303 4.463-3.34.683-.386 1.387-.75 2.194-1.144.122-.06.27.022.271.15l.02 3.974a.171.171 0 0 1-.12.16c-2.834.984-4.854 3.485-4.961 5.276-.005.09-.086.16-.184.16L36.937 42c-.111 0-.205-.079-.212-.182-.127-1.741-1.772-3.438-4.8-5.112-.598-.33-1.226-.649-1.954-.996l-.015-.008c-1.112-.562-2.765-1.157-4.86-2.644-2.456-1.906-4.02-4.528-4.262-7.521a8.768 8.768 0 0 1 .027-1.796 8.876 8.876 0 0 1 .69-2.642c1.344-3.074 4.335-5.058 7.952-5.098l.018-.001h.052zm-5.59 19.125c.867.637 1.954 1.234 3.26 1.792.195.083.212.316.031.42-2.547 1.464-3.928 2.92-4.042 4.422-.01.127-.133.226-.281.227L19.284 42c-.16 0-.289-.112-.284-.249.06-1.744.885-3.336 2.315-4.771.657-.66 1.427-1.274 2.311-1.863a.318.318 0 0 1 .356.008zM29.556 19.8c-1.914.02-3.443 1.035-4.18 2.718a5.32 5.32 0 0 0-.41 1.584 5.33 5.33 0 0 0-.02 1.153c.206 2.557 1.934 4.733 4.647 6.021a.04.04 0 0 1 .007.003c.009.004.02.005.028 0a.09.09 0 0 1 .007-.003c2.7-1.311 4.405-3.501 4.586-6.06.03-.426.024-.669-.032-1.153a5.317 5.317 0 0 0-.427-1.58c-.752-1.677-2.291-2.679-4.206-2.683z" fill="#0169FF"/>
    </g>
</svg>
