<svg width="47" height="47" viewBox="0 0 47 47" xmlns="http://www.w3.org/2000/svg" xmlns:xlink="http://www.w3.org/1999/xlink">
    <defs>
        <filter x="-61.1%" y="-50%" width="222.2%" height="222.2%" filterUnits="objectBoundingBox" id="e9k104bada">
            <feOffset dy="3" in="SourceAlpha" result="shadowOffsetOuter1"/>
            <feGaussianBlur stdDeviation="5" in="shadowOffsetOuter1" result="shadowBlurOuter1"/>
            <feColorMatrix values="0 0 0 0 0.164705882 0 0 0 0 0.262745098 0 0 0 0 0.517647059 0 0 0 0.1 0" in="shadowBlurOuter1"/>
        </filter>
        <circle id="lny3rk4zvb" cx="13.5" cy="13.5" r="13.5"/>
    </defs>
    <g fill="none" fill-rule="evenodd">
        <g transform="translate(10 7)">
            <use fill="#000" filter="url(#e9k104bada)" xlink:href="#lny3rk4zvb"/>
            <use fill="#FFF" xlink:href="#lny3rk4zvb"/>
        </g>
        <g fill-rule="nonzero">
            <path d="M24.34 25.373c0-.053.11-.266.233-.469.39-.609 3.17-5.253 3.37-5.637.155-.288.167-.384.044-.523-.111-.139-.411-.16-1.89-.118-1.725.043-1.757.032-1.757-.181 0-.299.678-4.58.722-4.634.122-.106 2.08.342 2.87.651 1.1.439 2.08 1.303 2.569 2.275.69 1.356.655 4.366-.045 5.712-.856 1.622-2.825 2.722-5.272 2.935-.467.043-.844.032-.844-.01z" fill="#161540"/>
            <path d="M18 20.922v-6.769l.9-.118c1.135-.16 5.094-.384 5.184-.31.033.033-1.001 1.752-2.303 3.812-1.29 2.061-2.335 3.822-2.313 3.93.033.16.223.181 1.813.202l1.78.022-.023.298c-.056.705-.712 5.52-.767 5.605-.034.043-1.002.085-2.169.085H18v-6.757z" fill="#52C0A7"/>
            <path d="M22.26 27.712c.078-.331.745-5.242.778-5.723l.022-.298-1.78-.022c-1.59-.021-1.779-.043-1.812-.203-.022-.107 1.001-1.857 2.28-3.896 1.268-2.05 2.425-3.908 2.558-4.143.167-.31.3-.427.49-.427.244 0 .266.043.244.427-.011.235-.19 1.484-.412 2.776-.21 1.292-.389 2.392-.4 2.445 0 .042.79.075 1.757.064.957-.022 1.813-.022 1.89-.011.212.022.157.342-.121.811-2.247 3.716-3.414 5.744-3.414 5.904 0 .107-.256.61-.568 1.1a19.444 19.444 0 0 0-.734 1.196c-.122.213-.244.288-.5.288-.312 0-.334-.022-.278-.288z" fill="#F9FBFB"/>
        </g>
    </g>
</svg>
