<svg width="50" height="50" viewBox="0 0 50 50" xmlns="http://www.w3.org/2000/svg" xmlns:xlink="http://www.w3.org/1999/xlink">
    <defs>
        <filter x="-55%" y="-45%" width="210%" height="210%" filterUnits="objectBoundingBox" id="w67fersfea">
            <feOffset dy="3" in="SourceAlpha" result="shadowOffsetOuter1"/>
            <feGaussianBlur stdDeviation="5" in="shadowOffsetOuter1" result="shadowBlurOuter1"/>
            <feColorMatrix values="0 0 0 0 0.164705882 0 0 0 0 0.262745098 0 0 0 0 0.517647059 0 0 0 0.1 0" in="shadowBlurOuter1"/>
        </filter>
        <circle id="ce9bd0vcyb" cx="15" cy="15" r="15"/>
    </defs>
    <g fill="none" fill-rule="evenodd">
        <g transform="translate(10 7)">
            <use fill="#000" filter="url(#w67fersfea)" xlink:href="#ce9bd0vcyb"/>
            <use fill="#FFF" xlink:href="#ce9bd0vcyb"/>
        </g>
        <path d="m23.556 17.126.161-1.367a7.029 7.029 0 0 0-1.472-.471l-.676 1.198-1.367-.008-.668-1.198a6.823 6.823 0 0 0-1.512.487l.16 1.367-1.11.799-1.254-.576a6.372 6.372 0 0 0-.933 1.279l.941 1.007-.426 1.294-1.352.264a6.958 6.958 0 0 0-.048.823c0 .256.016.503.048.751l1.36.264.418 1.294-.941 1.007c.265.464.579.895.941 1.287l1.255-.576 1.11.8-.17 1.366a6.96 6.96 0 0 0 1.513.487l.668-1.206h1.367l.676 1.198a6.446 6.446 0 0 0 1.512-.495l-.169-1.367" stroke="#F25252"/>
        <path d="M22.728 18.188a4.272 4.272 0 0 0-4.577.552 4.21 4.21 0 0 0-.547 5.953 4.27 4.27 0 0 0 5.124 1.103" stroke="#B74242"/>
        <path d="M23.54 19.539a3.64 3.64 0 0 0-4.971-.32 3.582 3.582 0 0 0-.467 5.066 3.639 3.639 0 0 0 5.1.464c.08-.048.161-.12.233-.192l.105-.112" stroke="#F25252"/>
        <g>
            <path d="M35.952 22.807a7.23 7.23 0 0 0 0-1.654l-1.416-.272-.442-1.35.973-1.055a7.234 7.234 0 0 0-.981-1.334l-1.304.607-1.158-.831.169-1.423A7.5 7.5 0 0 0 30.257 15l-.708 1.255-1.432-.008-.7-1.247a7.474 7.474 0 0 0-1.584.503L26 16.926l-1.158.83-1.311-.598c-.378.4-.708.847-.981 1.334l.981 1.047-.442 1.35-1.416.28c-.032.28-.048.567-.048.863 0 .264.016.527.048.791l1.416.28.442 1.35-.981 1.047c.273.48.603.935.981 1.342l1.311-.607 1.158.831-.168 1.423c.498.223 1.03.4 1.576.511l.7-1.255h1.432l.7 1.255a7.42 7.42 0 0 0 1.576-.511l-.177-1.423 1.159-.839 1.31.6c.379-.408.7-.856.974-1.335l-.981-1.047.434-1.35 1.416-.288z" stroke="#F25252"/>
            <path d="M32.227 19.18a4.47 4.47 0 0 0-6.258-.576 4.392 4.392 0 0 0-.57 6.217 4.467 4.467 0 0 0 6.25.575 4.393 4.393 0 0 0 .578-6.217z" stroke="#B74242"/>
            <path d="M31.72 19.603a3.796 3.796 0 0 0-5.324-.488 3.744 3.744 0 0 0-.491 5.29 3.803 3.803 0 0 0 5.325.488 3.738 3.738 0 0 0 .49-5.29z" stroke="#F25252"/>
        </g>
    </g>
</svg>
