<svg width="77" height="77" viewBox="0 0 77 77" xmlns="http://www.w3.org/2000/svg" xmlns:xlink="http://www.w3.org/1999/xlink">
    <defs>
        <circle id="gbqmdubnjb" cx="28.5" cy="28.5" r="28.5"/>
        <circle id="xixnmk3fac" cx="17" cy="17" r="17"/>
        <filter x="-28.9%" y="-23.7%" width="157.9%" height="157.9%" filterUnits="objectBoundingBox" id="jca1w5rp3a">
            <feOffset dy="3" in="SourceAlpha" result="shadowOffsetOuter1"/>
            <feGaussianBlur stdDeviation="5" in="shadowOffsetOuter1" result="shadowBlurOuter1"/>
            <feColorMatrix values="0 0 0 0 0.164705882 0 0 0 0 0.262745098 0 0 0 0 0.517647059 0 0 0 0.1 0" in="shadowBlurOuter1"/>
        </filter>
    </defs>
    <g fill="none" fill-rule="evenodd">
        <g transform="translate(10 7)">
            <use fill="#000" filter="url(#jca1w5rp3a)" xlink:href="#gbqmdubnjb"/>
            <use fill="#FFF" xlink:href="#gbqmdubnjb"/>
        </g>
        <g transform="translate(21 18)">
            <mask id="ih911a4hvd" fill="#fff">
                <use xlink:href="#xixnmk3fac"/>
            </mask>
            <path d="M31.962-1.888c.09-.006.175.039.219.115.044.076.04.17-.01.243l-9.05 12.049a.353.353 0 0 1-.522 0l-3.191-3.487a.375.375 0 0 0-.576.052l-1.935 2.41a.395.395 0 0 0 .052.41l5.754 5.844a.353.353 0 0 0 .523 0l11.3-12.458a.245.245 0 0 1 .261-.06.237.237 0 0 1 .157.213v30.3a.24.24 0 0 1-.072.186.25.25 0 0 1-.19.07H.262a.25.25 0 0 1-.19-.07.24.24 0 0 1-.072-.186V-1.632a.24.24 0 0 1 .072-.186.25.25 0 0 1 .19-.07h31.7zM23.07 18.568a5.769 5.769 0 0 0-4.154 1.655 5.535 5.535 0 0 0-1.652 4.087c0 3.537 2.616 5.793 6.016 5.793a7.304 7.304 0 0 0 4.394-1.333.313.313 0 0 0 .052-.41l-.941-1.384a.321.321 0 0 0-.419-.052 5.183 5.183 0 0 1-2.772.872c-1.831 0-2.982-1.128-3.191-2.46a.111.111 0 0 1 .104-.103h7.9a.334.334 0 0 0 .313-.308v-.308c0-3.588-2.302-6.05-5.65-6.05zm-7.794-1.948a8.485 8.485 0 0 0-5.65-1.846c-3.557 0-5.754 2.05-5.754 4.511 0 5.589 8.684 3.794 8.684 6.409 0 .82-.837 1.64-2.616 1.64a6.647 6.647 0 0 1-4.55-1.742.354.354 0 0 0-.524.05l-1.36 1.846a.313.313 0 0 0 .053.41c1.412 1.282 3.4 2.154 6.172 2.154 4.08 0 6.068-2.05 6.173-4.717 0-5.537-8.684-3.948-8.684-6.306 0-.871.785-1.487 2.145-1.487 1.5-.02 2.96.47 4.133 1.385a.336.336 0 0 0 .47-.052l1.36-1.794a.32.32 0 0 0-.052-.461zm7.847 4.204c1.423-.078 2.65.966 2.772 2.358a.111.111 0 0 1-.104.102h-5.336a.111.111 0 0 1-.105-.102c.175-1.364 1.37-2.38 2.773-2.358z" fill="#2CB134" fill-rule="nonzero" mask="url(#ih911a4hvd)"/>
        </g>
    </g>
</svg>
