<svg width="57" height="42" viewBox="0 0 57 42" xmlns="http://www.w3.org/2000/svg">
    <g stroke="#232020" stroke-width="2" fill="none" fill-rule="evenodd">
        <path d="M38.333 12.15A19.611 19.611 0 0 0 20.596 1C9.773 1 1 9.69 1 20.412c0 10.72 8.773 19.412 19.596 19.412 1.512 0 2.984-.17 4.398-.491" stroke-linecap="round"/>
        <path d="M9 24c.834 4 4.33 7 8.515 7 4.136 0 7.599-2.93 8.485-6.858M27 16c-.373-1.72-1.8-3-3.502-3-1.696 0-3.118 1.27-3.498 2.978M16 16c-.373-1.72-1.8-3-3.502-3C10.802 13 9.38 14.27 9 15.978" stroke-linecap="round"/>
        <path d="M44 17c3.314 0 6.314 1.343 8.485 3.515A11.962 11.962 0 0 1 56 29c0 3.314-1.343 6.314-3.515 8.485A11.962 11.962 0 0 1 44 41c-2.458 0-5.602-1.481-9.462-4.292L32 38.985V29c0-3.314 1.343-6.314 3.515-8.485A11.962 11.962 0 0 1 44 17z"/>
        <path stroke-linecap="round" d="M40 27h9M40 31h4"/>
    </g>
</svg>
