<svg width="96" height="31" viewBox="0 0 96 31" xmlns="http://www.w3.org/2000/svg">
    <g fill-rule="nonzero" fill="none">
        <path d="M11.823 0h.854c2.964.064 5.88 1.243 7.973 3.33-.773.781-1.562 1.53-2.32 2.31-1.175-1.05-2.593-1.864-4.139-2.15-2.287-.478-4.752-.048-6.668 1.243-2.094 1.354-3.512 3.649-3.818 6.103-.338 2.422.355 4.971 1.95 6.851a8.655 8.655 0 0 0 6.281 3.06c2.255.127 4.607-.558 6.25-2.12 1.288-1.099 1.884-2.772 2.077-4.397-2.673 0-5.347.016-8.021 0v-3.283h11.259c.58 3.522-.258 7.49-2.964 10.007-1.804 1.785-4.3 2.836-6.845 3.043-2.465.24-5.01-.223-7.2-1.402-2.626-1.386-4.72-3.728-5.75-6.485-.967-2.534-.983-5.402-.081-7.951.821-2.327 2.4-4.383 4.43-5.817C7.038.924 9.406.143 11.822 0z" fill="#4285F4"/>
        <path d="M76.414.829h3.446v22.754c-1.143 0-2.303.016-3.446-.016.016-7.569 0-15.154 0-22.738z" fill="#34A853"/>
        <path d="M31.168 8.716c2.126-.398 4.43.048 6.185 1.307a7.476 7.476 0 0 1 3.045 4.78c.434 2.215-.113 4.637-1.563 6.39-1.562 1.96-4.123 3.012-6.62 2.852-2.287-.127-4.51-1.259-5.863-3.107-1.53-2.04-1.9-4.844-1.063-7.234.838-2.566 3.205-4.526 5.88-4.988m.482 3.028a4.336 4.336 0 0 0-2.255 1.418c-1.562 1.848-1.465 4.86.258 6.58.983.989 2.464 1.451 3.834 1.18 1.272-.223 2.383-1.068 2.996-2.183 1.063-1.896.757-4.51-.87-5.991-1.047-.956-2.577-1.355-3.963-1.004z" fill="#EA4335"/>
        <path d="M48.242 8.716c2.432-.462 5.09.207 6.91 1.896 2.964 2.63 3.286 7.553.757 10.581-1.53 1.912-4.01 2.964-6.46 2.852-2.335-.063-4.638-1.21-6.023-3.107-1.563-2.087-1.9-4.956-1.015-7.394.886-2.485 3.205-4.382 5.83-4.828m.484 3.028a4.41 4.41 0 0 0-2.255 1.402c-1.546 1.817-1.482 4.78.177 6.517.983 1.036 2.513 1.546 3.93 1.26a4.415 4.415 0 0 0 2.996-2.184c1.047-1.912.741-4.525-.902-6.007a4.351 4.351 0 0 0-3.946-.988z" fill="#FBBC05"/>
        <path d="M62.722 9.64c1.853-1.147 4.317-1.466 6.314-.478.629.271 1.144.733 1.643 1.195.016-.43 0-.876.016-1.322 1.08.016 2.159 0 3.254.016v14.054c-.016 2.12-.564 4.366-2.11 5.912-1.691 1.705-4.284 2.23-6.62 1.88-2.497-.366-4.671-2.167-5.638-4.446.967-.462 1.982-.828 2.98-1.258.564 1.306 1.708 2.422 3.141 2.677 1.434.255 3.093-.096 4.027-1.275.999-1.211.999-2.868.95-4.35-.74.717-1.594 1.354-2.625 1.593-2.24.622-4.704-.143-6.427-1.641-1.74-1.498-2.77-3.809-2.674-6.103.049-2.597 1.53-5.1 3.77-6.454m3.334 2.04c-.983.16-1.901.701-2.53 1.45-1.513 1.785-1.513 4.637.017 6.39a4.237 4.237 0 0 0 3.624 1.466c1.272-.128 2.448-.924 3.076-2.024 1.064-1.864.886-4.398-.547-6.023-.886-1.004-2.304-1.498-3.64-1.259z" fill="#4285F4"/>
        <path d="M84 10.453c1.933-1.785 4.913-2.39 7.393-1.45 2.352.876 3.85 3.091 4.607 5.37-3.495 1.434-6.974 2.852-10.47 4.286.483.909 1.224 1.737 2.223 2.072 1.401.494 3.077.319 4.252-.606.468-.35.838-.812 1.192-1.258.886.59 1.772 1.163 2.658 1.752-1.256 1.865-3.366 3.171-5.638 3.378-2.512.303-5.186-.653-6.813-2.597-2.674-3.06-2.416-8.19.596-10.947m1.724 2.948c-.548.78-.774 1.737-.758 2.677 2.336-.956 4.672-1.912 7.007-2.884-.386-.893-1.32-1.434-2.271-1.578-1.53-.27-3.125.542-3.978 1.785z" fill="#EA4335"/>
    </g>
</svg>
