<svg width="54" height="50" viewBox="0 0 54 50" xmlns="http://www.w3.org/2000/svg" xmlns:xlink="http://www.w3.org/1999/xlink">
    <defs>
        <path d="M26.41 26h20.18c2.23 0 3.037.232 3.852.668a4.543 4.543 0 0 1 1.89 1.89c.436.815.668 1.623.668 3.852v10.18c0 2.23-.232 3.037-.668 3.852a4.543 4.543 0 0 1-1.89 1.89c-.815.436-1.623.668-3.852.668H26.41c-2.23 0-3.037-.232-3.852-.668a4.543 4.543 0 0 1-1.89-1.89C20.232 45.627 20 44.82 20 42.59V32.41c0-2.23.232-3.037.668-3.852a4.543 4.543 0 0 1 1.89-1.89c.815-.436 1.623-.668 3.852-.668z" id="d0p4p4ooka"/>
        <mask id="g1mbmazfkb" maskContentUnits="userSpaceOnUse" maskUnits="objectBoundingBox" x="0" y="0" width="33" height="23" fill="#fff">
            <use xlink:href="#d0p4p4ooka"/>
        </mask>
    </defs>
    <g transform="translate(1 1)" fill="none" fill-rule="evenodd">
        <path d="M15.89 41.425H9.483c-3.298 0-4.493-.344-5.699-.988A6.721 6.721 0 0 1 .988 37.64C.343 36.435 0 35.24 0 31.942V9.482C0 6.186.343 4.99.988 3.785A6.721 6.721 0 0 1 3.784.988C4.99.343 6.185 0 9.483 0h29.856c3.297 0 4.493.343 5.699.988a6.721 6.721 0 0 1 2.796 2.796c.645 1.206.988 2.401.988 5.699v12.392" stroke="#232020" stroke-width="2" stroke-linecap="round"/>
        <use stroke="#232020" mask="url(#g1mbmazfkb)" stroke-width="4" stroke-linecap="round" stroke-dasharray="1" xlink:href="#d0p4p4ooka"/>
        <path stroke="#232020" stroke-width="2" stroke-linecap="round" d="M.74 14.315h48.082M7.397 22.192h8.877"/>
        <circle stroke="#232020" stroke-width="2" cx="9" cy="7" r="2"/>
        <circle stroke="#232020" stroke-width="2" cx="17" cy="7" r="2"/>
        <path fill="#232020" fill-rule="nonzero" d="M29.056 42v-8.4h1.848V42zM33.004 42v-8.4h3.432c.992 0 1.776.268 2.352.804.576.536.864 1.244.864 2.124 0 .936-.32 1.662-.96 2.178-.64.516-1.452.774-2.436.774h-1.404V42h-1.848zm1.848-4.164h1.464c.456 0 .814-.12 1.074-.36.26-.24.39-.552.39-.936 0-.408-.132-.722-.396-.942-.264-.22-.632-.33-1.104-.33h-1.428v2.568zM43.084 42.12c-1.016 0-1.936-.324-2.76-.972l.78-1.2c.704.512 1.38.768 2.028.768.512 0 .768-.168.768-.504 0-.04-.006-.08-.018-.12a.255.255 0 0 0-.066-.108.762.762 0 0 0-.246-.174l-.156-.072a3.77 3.77 0 0 0-.39-.138 45.625 45.625 0 0 1-.456-.132 5.564 5.564 0 0 1-.69-.246 3.5 3.5 0 0 1-.594-.348 1.437 1.437 0 0 1-.474-.564 1.846 1.846 0 0 1-.162-.798c0-.632.224-1.13.672-1.494.448-.364 1.008-.546 1.68-.546.864 0 1.664.248 2.4.744l-.696 1.26c-.68-.4-1.26-.6-1.74-.6-.448 0-.672.156-.672.468 0 .216.368.448 1.104.696l.204.072c.216.072.4.14.552.204.152.064.324.152.516.264.192.112.346.23.462.354a1.638 1.638 0 0 1 .414 1.11c0 .688-.226 1.206-.678 1.554-.452.348-1.046.522-1.782.522z"/>
    </g>
</svg>
