<svg width="123" height="26" viewBox="0 0 123 26" xmlns="http://www.w3.org/2000/svg">
    <g fill="none" fill-rule="evenodd">
        <path d="M2.586 23.433h117.828V2.567H2.586v20.866zM0 26h123V0H0v26z" fill="#CC2436"/>
        <path fill="#CC2436" d="M8.664 7.162h3.9v8.273h5.483v3.31H8.664V7.161M23.347 7.162h4.367l2.267 6.502 2.266-6.502h4.3l-4.733 11.665h-3.733L23.347 7.162M36.697 7.162h9.95v3.177h-6.116v1.175h5.7v2.796h-5.7v1.257h6.2v3.177H36.697V7.162"/>
        <path fill="#090907" d="M51.348 7.162h3.65l4.15 5.113V7.162h3.866v11.582h-3.466L55.214 13.4v5.344h-3.866V7.162"/>
        <path d="m70.715 14.442-1.067-2.813-1.067 2.813h2.134zM67.748 7.08h3.867l4.916 11.665h-4.233l-.617-1.555h-4.083l-.6 1.555h-4.167L67.748 7.08zM77.165 10.438H73.73V7.162h10.767v3.276h-3.433v8.306h-3.9v-8.306M85.081 18.744h3.9V7.162h-3.9zM98.548 12.986v-.033c0-1.373-.95-2.614-2.45-2.614-1.483 0-2.417 1.224-2.417 2.581v.033c0 1.373.95 2.614 2.45 2.614 1.484 0 2.417-1.224 2.417-2.58zm-8.8 0v-.033c0-3.359 2.783-6.04 6.383-6.04s6.35 2.648 6.35 6.007v.033c0 3.359-2.783 6.04-6.383 6.04s-6.35-2.648-6.35-6.007zM102.882 7.162h3.65l4.15 5.113V7.162h3.866v11.582h-3.466l-4.334-5.344v5.344h-3.866V7.162M24.752 4.81l-.3-.524c-.048-.088-.13-.02-.13-.02s-.257.19-.394.281c-.137.093-.127.197-.127.255 0 .057-.044.4-.044.4a.342.342 0 0 1-.08.18l-2.24 1.723-.28.064-.691.333.04-.468c.049.028.127.099.182.107.066.01.168-.018.168-.018s-.038-.09-.038-.143c0-.052.012-.133.012-.133s.107.064.183.065a.277.277 0 0 0 .167-.05.793.793 0 0 0 .075-.071s-.13-.08-.173-.123c-.03-.034-.076-.084-.045-.084.065.002.16-.09.16-.09s-.069-.04-.12-.084a.317.317 0 0 1-.109-.154.818.818 0 0 1-.035-.115s.04.052.13.051c.078-.003.147-.05.147-.05s-.06-.035-.1-.076a.415.415 0 0 1-.096-.16c-.027-.09-.04-.134-.064-.204-.01-.033-.017-.086-.044-.174-.03-.2-.117-.285-.117-.285-.264-.349-.866-.442-.866-.442-.308-.065-.615.333-.739.733-.205.66-.144 1.31-.144 1.31s.01.124.12.193c.064.04.323.099.323.099l-.028.539-.64.055-.878-.522-1.78-1.308s-.074-.047-.084-.186c0 0-.044-.341-.044-.4 0-.057.01-.161-.128-.255a15.31 15.31 0 0 1-.392-.28s-.082-.069-.132.019l-.3.526.131.5s.056.1.135.191l.113.115.66.586.014.005 1.08.958.31.298s.022.038.022.097c0 .059-.006.243-.006.243s-.004.056.03.088c.038.035.617.504.617.504s.041.033.041.116l.104 3.456s0 .053.056.053l.186.07.423 3.774.813 2.495-1.294.622s-.046.023-.07.08c0 0-.076.145-.076.174 0 .05.04.06.04.06l1.93.004-.184.498-.048.133s-.068.254.043.293c.11.036.454.05.603.042.19-.01.533-.036.588-.09.05-.052.075-.282-.201-1.814l-.165-5.896.494-3.695c.045-.409.101-.455.101-.455s.524-.388.574-.434c.052-.047.042-.122.042-.122V7.86c0-.08.032-.134.032-.134l.426-.409.128-.129 1.365-1.3.239-.27.115-.115c.08-.092.131-.189.131-.189s.097-.244.133-.327c.035-.084 0-.176 0-.176M117.427 8.004c.11 0 .168-.058.168-.138V7.86c0-.094-.066-.142-.173-.142h-.21v.285h.215zm-.431-.473h.434c.132 0 .233.037.302.105a.29.29 0 0 1 .081.212v.005a.302.302 0 0 1-.21.3l.238.348h-.251l-.208-.313h-.17v.313h-.216v-.97zm1.19.511v-.005a.799.799 0 0 0-.81-.806.805.805 0 0 0-.814.811v.005c0 .446.348.806.81.806a.805.805 0 0 0 .814-.811zm-1.73.005v-.005c0-.496.405-.912.92-.912.516 0 .917.41.917.907v.005a.917.917 0 0 1-.921.912.909.909 0 0 1-.917-.907z" fill="#090907"/>
    </g>
</svg>
