<svg width="90" height="54" viewBox="0 0 90 54" xmlns="http://www.w3.org/2000/svg">
    <g fill-rule="nonzero" fill="none">
        <path d="m27.235 20.697.475.727c-.513.554-1.234.88-2.126 1.033l-.247.325-.038.535.627 2.22 1.063 2.007c.303.479 1.916 1.837 4.84 4.094l1.27 1.378.93.096c.722-.594 1.349-.957 1.937-1.033l.114-2.87-.646-4.285.21-7.364.644-.9c-.19 1.263-.19 2.2-.038 2.793v13.62l.57.9.342-6.524c.19-3.462.209-5.7.132-6.675l-.132-1.627.209-1.205.967-1.281-.38 3.653-.606 14.653-.4 2.946h1.253l.55-8.838c.172-4.82.324-7.938.475-9.315.076-.804.323-1.99.703-3.539l.227-.325.114.325.019.937-.626 15.475-.342 2.41.095 2.87h1.272l1.65-20.831 1.045-.421-1.386 21.252h1.86l1.329-20.831.55-.728.57.594-.968 20.965h1.575l.342-10.177 1.12.478-.247 9.7h1.613v-6.64l.436-2.926c.228 0 .475-.172.721-.535l-.588 10.1h1.044l1.082-16.795a14.234 14.234 0 0 0-.721-4.974l.854.746.607 4.763-1.215 16.26h.95l.057-.67 1.385-.382c.854-.746 4.232-2.774 10.172-6.083l3.057-3.118-.248-1.148-2.258-3.252-2.79-2.43-.74-.936-3.397-2.392-4.328-1.97c-.74-.363-1.765-.727-3.112-1.11l-.342-.23-1.461-.534c-1.082-.307-.968-.593.323-.937.702-.23 1.043-.498 1.081-.804 0-.249-.113-.535-.322-.785l.057-.42.455-.785a4.884 4.884 0 0 1-.19-1.358l.607-.325.19-.402-.132-.363-.912-.765a4.583 4.583 0 0 0-.227-1.683l-.266-.938c-.038-.23.171-.784.607-1.702L49.707.956l-.38-.344L48 .669C47.58.306 46.899.096 45.873 0l-1.879.401L42.4.536l-.911.745-1.196.65c-.417.862-.816 1.359-1.271 1.493l-.608 1.664 1.272 4.686 1.139 1.626.57.536v.995h-.267l-1.442 1.147-4.252.613-5.181 2.678-7.534 4.935-.665 1.148-.056 1.912 1.328 2.62 2.258 2.316c2.98 1.855 5.96 3.672 8.92 5.47l.665.765-.475 1.378h1.651c.245-.62.362-1.285.342-1.952 0-.516-.132-.994-.436-1.473H34.22l-1.271-.611c-.74-.575-1.652-1.168-2.695-1.78-.988-.573-1.993-1.281-3.018-2.027-1.842-1.473-3.132-2.87-3.853-4.19l-.247-1.014.057-1.166.323-.631 1.271-1.225 2.126-1.205.323.058zm2.164.803v-.42l5.352-3.253.019.46-4.46 3.309-.532.191-.38-.287h.001zm-.683-1.855-.114-.364 6.472-3.481-.323.612-4.308 2.544-1.727.689zm6.111 1.186-.19.344-3.53 2.085-.19.306-.19-.306.114-.344 3.113-2.468.797-.076.076.459zm-.512 2.085c.076 1.07.152 2.104.303 3.098l.665 5.395-.513.133-.683.058a22.378 22.378 0 0 1-2.904-2.946 19.522 19.522 0 0 1-1.955-3.118l.171-.268a51.378 51.378 0 0 1 2.79-1.683c.626-.306 1.29-.612 1.974-.86l.152.191zm25.033-1.225-.056.345-.665-.134-3.606-2.257h-.57l-.607-.479-.19-.745a8.577 8.577 0 0 1 1.709.745l3.985 2.526zm.93-1.07-.93-.307-3.852-2.697c-1.14-.478-1.728-.727-1.841-.727l-.076-.554 1.214.172 5.77 3.921-.285.191zM48.796 5.374l-.19.249-1.594.726.38.631 1.46.25.893-.192.664.593-.57.421-.455.191.456.517v.229l-.74.153-.494.517.057.44.664-.173.266-.019.114.192-.474.23c-.076 0-.19.153-.304.535h.209l.284.536c.038.172-.133.286-.436.343l-2.126-.401-2.259.057-.872.536v.383l1.157.956-.095 1.607c0 .23-.19.191-.607-.077l-2.22-1.396L42 12.05l.285-.057.589-2.658-.78-1.033-.094-1.205.399-.44.797-.134.987.86h.531l.228-1.033 2.126-1.339h1.461l.266.364zm-4.86 12.09c0-.154.096-.25.285-.25.171 0 .247.096.247.25 0 .21-.076.286-.247.286-.19 0-.284-.076-.284-.287zm.4 3.309c0 .21-.095.306-.285.306-.19 0-.304-.096-.304-.306 0-.192.114-.269.304-.269s.285.077.285.269zm3.663-3.77.19-.056.74 1.549.057 1.072-.134 2.41h-1.214l.36-4.974zm2.372.747.797-.536-.133 4.821h-.778l.114-4.285zm7.724 5.375.285.517-.474.344-2.449-1.262-1.29-2.086 3.929 2.487zm-2.998 2.391.114-1.205c.474.134.91.306 1.29.536 1.329.784 2.6 1.607 3.834 2.505-1.404 1.474-2.866 2.831-4.46 4.075a10.217 10.217 0 0 1-2.581 1.588l.797-2.41 1.005-5.089zm-1.12-1.262-.02-1.741c0-.306.115-.363.343-.153.095.153.19.516.208 1.09l-.341 3.233-.531 2.257.341-4.686zm-2.677-.88v.268h-3.662v-.268H51.3zm0-.804v.345h-3.662v-.345H51.3l1.994 12.683.019-1.684 1.803-.21 6.434-5.911-2.126-2.18 1.385-2.009.551.057 2.733 3.558-.152.727a39.63 39.63 0 0 1-4.574 3.75c-1.974 1.415-3.966 2.735-6.073 3.902L51.3 22.57z" fill="#161413"/>
        <path fill="#828080" d="m43.33 6.981-.855-.018-.208.42.133.326.323-.058.19.345.284.325.285-.02.133-.67z"/>
        <path d="M30.367 42.063h-3.265v2.984h-1.328v2.946h1.328v4.266c0 .42.171.822.475 1.129.36.306.74.458 1.177.458h3.492V50.92h-1.139c-.474 0-.721-.268-.721-.784v-2.143h1.253v-2.946h-1.253l-.02-2.984zM42 41.26h-3.245V52.26c0 1.072.512 1.587 1.594 1.587h4.84V50.92h-2.43c-.493 0-.759-.268-.759-.784V41.26zm43.482 3.558c-1.082 0-1.613.516-1.613 1.607v7.421h3.264V48.49c0-.478.247-.726.74-.726h1.709v-2.946h-4.1zM1.67 41.28c-.456 0-.836.173-1.196.479A1.7 1.7 0 0 0 0 42.943v10.903h3.303v-4.475h1.746v-2.946H3.303v-1.416c0-.536.265-.784.74-.784h2.43v-2.946H1.67zm12.032 4.763c-.892-.899-1.973-1.338-3.207-1.338-1.31 0-2.372.439-3.265 1.338-.91.918-1.366 2.028-1.366 3.271 0 1.32.456 2.391 1.366 3.29.911.918 1.993 1.397 3.265 1.397 1.234 0 2.315-.479 3.207-1.397.911-.918 1.367-2.008 1.367-3.29 0-1.243-.456-2.353-1.367-3.271zM9.11 49.313c0-.88.474-1.32 1.386-1.32.873 0 1.328.44 1.328 1.32 0 .9-.455 1.34-1.328 1.34-.912 0-1.386-.441-1.386-1.34zm14.69-3.271c-.892-.899-1.974-1.338-3.207-1.338-1.291 0-2.373.439-3.265 1.338-.91.918-1.366 2.028-1.366 3.271 0 1.32.455 2.391 1.366 3.29.912.918 1.993 1.397 3.265 1.397 1.233 0 2.315-.479 3.207-1.397.911-.918 1.367-2.008 1.367-3.29 0-1.243-.456-2.353-1.367-3.271zm-4.593 3.271c0-.88.475-1.32 1.386-1.32.892 0 1.328.44 1.328 1.32 0 .9-.436 1.34-1.328 1.34-.911 0-1.386-.441-1.386-1.34zm34.561-3.271c-.892-.899-1.973-1.338-3.264-1.338-1.271 0-2.335.439-3.245 1.338a4.556 4.556 0 0 0-1.329 3.271c0 1.32.436 2.391 1.329 3.29.91.918 1.974 1.397 3.245 1.397 1.29 0 2.373-.479 3.264-1.397.912-.899 1.348-1.97 1.348-3.29a4.498 4.498 0 0 0-1.348-3.271zm-4.194 2.334c.266-.249.57-.383.93-.383.892 0 1.329.44 1.329 1.32 0 .9-.437 1.34-1.329 1.34-.892 0-1.31-.441-1.31-1.34 0-.325.133-.631.38-.937zm7.915-2.334c-.912.918-1.367 2.028-1.367 3.271 0 1.32.456 2.391 1.367 3.29.91.918 1.992 1.397 3.264 1.397 1.632 0 2.923-.727 3.853-2.142l-2.772-1.798c-.265.401-.607.592-1.08.592-.912 0-1.387-.44-1.387-1.339 0-.88.475-1.32 1.386-1.32.474 0 .816.21 1.081.632l2.772-1.78c-.93-1.415-2.221-2.141-3.853-2.141-1.31 0-2.372.439-3.264 1.338zm31.657 6.083c-.55 0-.836.287-.836.86 0 .594.285.861.836.861.588 0 .854-.267.854-.86 0-.574-.266-.861-.854-.861zm-.684.86c0-.459.21-.707.684-.707.475 0 .721.249.721.708 0 .478-.246.727-.721.727s-.684-.25-.684-.727z" fill="#E52935"/>
        <path d="M89.583 52.794c0-.19-.096-.267-.323-.267h-.437v.937h.133v-.42h.17l.266.42h.19l-.303-.42c.208 0 .304-.077.304-.25zm-.627.116v-.25h.247l.246.077c0 .115-.113.173-.322.173h-.17zm-20.289-5.472V41.26h-3.302v12.586h3.302v-2.658l2.183 2.658h3.815l-3.872-4.686 3.075-3.787h-3.55l-1.65 2.065z" fill="#E52935"/>
        <path d="M82.959 48.969c0-.766-.304-1.588-.93-2.487-.798-1.109-1.898-1.722-3.34-1.798-1.747-.096-3.095.517-4.062 1.875-.608.842-.911 1.76-.911 2.754 0 1.32.474 2.391 1.385 3.29.911.918 1.993 1.397 3.264 1.397 1.064 0 2.013-.306 2.81-.957l1.1-1.185-2.656-1.722-.324.383c-.436.362-.93.439-1.46.248l-.665-.516 5.789-1.282zm-5.05-1.129c.647-.191 1.159-.02 1.576.479l-2.562.593c.171-.517.493-.861.987-1.072z" fill="#E52935"/>
    </g>
</svg>
