<svg width="100" height="26" viewBox="0 0 100 26" xmlns="http://www.w3.org/2000/svg">
    <path d="M10.544 14.98c-.337 1.684-.997 2.979-1.98 3.885-.984.907-2.072 1.36-3.265 1.36-1.42 0-2.659-.609-3.715-1.827S0 15.534 0 13.46c0-2.008.585-3.64 1.755-4.896 1.17-1.255 2.574-1.883 4.213-1.883 1.23 0 2.24.333 3.032.998.792.665 1.188 1.355 1.188 2.071 0 .353-.111.64-.334.858-.223.218-.535.328-.936.328-.537 0-.942-.177-1.215-.53-.155-.196-.257-.568-.307-1.116-.05-.549-.235-.967-.554-1.256-.318-.279-.76-.418-1.324-.418-.91 0-1.644.344-2.2 1.032-.737.911-1.106 2.116-1.106 3.613 0 1.525.367 2.87 1.1 4.038.733 1.167 1.723 1.75 2.97 1.75.893 0 1.694-.311 2.404-.934.5-.428.988-1.204 1.462-2.33l.396.196zm5.435-8.299v2.874c1.047-1.916 2.122-2.874 3.223-2.874.501 0 .915.156 1.243.468.328.311.492.671.492 1.08 0 .363-.118.67-.355.921a1.124 1.124 0 0 1-.847.377c-.319 0-.676-.16-1.072-.481-.396-.321-.69-.482-.881-.482-.164 0-.341.093-.533.28-.41.38-.833 1.008-1.27 1.882v6.124c0 .707.087 1.241.26 1.604.118.251.327.46.628.628.3.167.733.25 1.297.25v.503H11.76v-.502c.637 0 1.11-.103 1.42-.307.228-.149.387-.386.478-.712.046-.158.069-.609.069-1.353V12.01c0-1.488-.03-2.374-.089-2.658-.06-.283-.168-.49-.328-.62a.908.908 0 0 0-.594-.196c-.282 0-.6.07-.956.21l-.137-.502 3.784-1.563h.573zm12.77 11.313c-1.284 1.013-2.09 1.599-2.417 1.757a3.628 3.628 0 0 1-1.571.349c-.865 0-1.577-.302-2.137-.907-.56-.604-.84-1.4-.84-2.385 0-.623.136-1.162.41-1.618.373-.632 1.021-1.228 1.946-1.785.924-.558 2.46-1.237 4.609-2.037v-.502c0-1.274-.198-2.148-.594-2.622-.396-.475-.972-.712-1.728-.712-.573 0-1.029.158-1.366.474-.346.317-.519.68-.519 1.088l.028.81c0 .427-.107.757-.321.99-.214.232-.494.349-.84.349-.337 0-.612-.121-.826-.363-.214-.242-.321-.572-.321-.99 0-.8.4-1.535 1.202-2.204.8-.67 1.925-1.005 3.373-1.005 1.11 0 2.021.191 2.731.572.538.289.934.74 1.189 1.353.163.4.245 1.218.245 2.455V15.4c0 1.218.023 1.965.069 2.239.045.274.12.458.225.55.105.094.225.14.362.14a.733.733 0 0 0 .382-.097c.192-.121.56-.46 1.107-1.019v.782c-1.02 1.394-1.994 2.092-2.923 2.092-.446 0-.801-.158-1.065-.474-.264-.317-.401-.856-.41-1.618zm0-.907v-4.868c-1.375.558-2.263.953-2.663 1.186-.72.409-1.234.836-1.544 1.283-.31.446-.464.934-.464 1.464 0 .67.196 1.226.587 1.667.392.442.843.663 1.352.663.692 0 1.603-.465 2.732-1.395zM37.244 0c.382 0 .708.137.976.411.27.275.403.607.403.998 0 .39-.134.725-.403 1.004a1.305 1.305 0 0 1-.976.419c-.383 0-.71-.14-.983-.419a1.384 1.384 0 0 1-.41-1.004c0-.39.134-.723.403-.998.268-.274.598-.411.99-.411zm1.133 6.681v10.266c0 .8.057 1.333.171 1.598.114.265.282.462.506.592.223.13.63.196 1.222.196v.502h-6.078v-.502c.61 0 1.02-.06 1.23-.182.209-.12.375-.32.498-.6.123-.278.184-.813.184-1.604v-4.923c0-1.386-.04-2.283-.123-2.692-.063-.298-.163-.505-.3-.621-.137-.116-.323-.175-.56-.175-.255 0-.564.07-.929.21l-.19-.502 3.769-1.563h.6zm6.788 8.495c-.764-.381-1.352-.914-1.761-1.597a4.325 4.325 0 0 1-.615-2.267c0-1.264.467-2.352 1.4-3.264.933-.911 2.128-1.367 3.585-1.367 1.193 0 2.226.298 3.1.893h2.65c.391 0 .619.012.683.035.063.023.109.063.136.118.055.084.082.233.082.447 0 .242-.023.409-.068.502a.282.282 0 0 1-.144.112c-.068.027-.298.041-.69.041h-1.625c.51.67.765 1.525.765 2.567 0 1.19-.446 2.208-1.338 3.055-.892.846-2.09 1.269-3.592 1.269-.62 0-1.252-.093-1.898-.28-.401.354-.672.663-.813.929-.141.265-.212.49-.212.676 0 .158.075.312.226.46.15.15.443.256.88.321.255.037.893.07 1.913.098 1.875.046 3.09.111 3.646.195.847.121 1.523.442 2.028.963.506.52.758 1.162.758 1.924 0 1.051-.482 2.037-1.448 2.957C51.393 25.321 49.54 26 47.255 26c-1.757 0-3.241-.405-4.452-1.214-.683-.464-1.025-.948-1.025-1.45 0-.223.05-.447.15-.67.155-.344.474-.823.957-1.436.063-.084.528-.586 1.393-1.507-.474-.288-.808-.546-1.004-.774a1.156 1.156 0 0 1-.294-.774c0-.326.13-.707.39-1.144.259-.437.858-1.055 1.795-1.855zm2.377-7.825c-.674 0-1.239.274-1.694.823-.455.548-.683 1.39-.683 2.524 0 1.47.31 2.609.929 3.418.474.614 1.074.92 1.803.92.692 0 1.26-.265 1.707-.795.446-.53.67-1.362.67-2.496 0-1.479-.315-2.637-.943-3.474-.465-.613-1.06-.92-1.79-.92zm-2.513 12.484c-.428.474-.751.916-.97 1.325-.218.409-.328.786-.328 1.13 0 .446.264.837.792 1.171.91.577 2.227.865 3.947.865 1.64 0 2.848-.295 3.627-.886.778-.59 1.167-1.22 1.167-1.89 0-.483-.232-.827-.696-1.032-.474-.204-1.412-.325-2.814-.362-2.048-.056-3.624-.163-4.725-.321zM63.889 6.68v4.352h-.45c-.346-1.367-.79-2.297-1.332-2.79-.541-.492-1.231-.739-2.069-.739-.637 0-1.152.172-1.543.516-.392.345-.587.726-.587 1.144 0 .521.145.967.437 1.34.282.38.856.785 1.72 1.213l1.995.99c1.848.92 2.772 2.134 2.772 3.64 0 1.163-.43 2.1-1.29 2.811-.861.712-1.824 1.067-2.89 1.067-.764 0-1.638-.14-2.621-.418-.3-.093-.547-.14-.738-.14-.21 0-.373.121-.492.363h-.45V15.47h.45c.255 1.302.742 2.283 1.462 2.943.719.66 1.525.99 2.417.99.628 0 1.14-.188 1.537-.565a1.81 1.81 0 0 0 .594-1.36c0-.641-.221-1.18-.663-1.618-.441-.437-1.322-.99-2.642-1.66-1.32-.669-2.186-1.273-2.595-1.813-.41-.53-.615-1.2-.615-2.008 0-1.051.353-1.93 1.059-2.637.705-.706 1.618-1.06 2.738-1.06.492 0 1.088.107 1.789.321.464.14.774.21.929.21.145 0 .26-.033.341-.098.082-.065.178-.21.287-.433h.45zM70.979 0v16.947c0 .8.057 1.33.17 1.59.114.261.29.459.526.593.237.135.679.203 1.325.203v.502h-6.132v-.502c.574 0 .965-.06 1.175-.182.209-.12.373-.32.491-.6.119-.278.178-.813.178-1.604V5.342c0-1.441-.032-2.327-.096-2.657-.064-.33-.166-.556-.307-.676a.8.8 0 0 0-.54-.182c-.236 0-.537.075-.901.223l-.232-.488L70.363 0h.615zm6.637 0c.383 0 .708.137.977.411.269.275.403.607.403.998 0 .39-.134.725-.403 1.004a1.305 1.305 0 0 1-.977.419c-.382 0-.71-.14-.983-.419a1.384 1.384 0 0 1-.41-1.004c0-.39.135-.723.403-.998.269-.274.599-.411.99-.411zm1.134 6.681v10.266c0 .8.057 1.333.17 1.598.115.265.283.462.506.592.223.13.63.196 1.222.196v.502H74.57v-.502c.61 0 1.02-.06 1.229-.182.21-.12.376-.32.498-.6.123-.278.185-.813.185-1.604v-4.923c0-1.386-.041-2.283-.123-2.692-.064-.298-.164-.505-.3-.621-.137-.116-.324-.175-.56-.175-.255 0-.565.07-.93.21l-.19-.502 3.77-1.563h.6zm11.527 0v4.352h-.45c-.347-1.367-.79-2.297-1.332-2.79-.542-.492-1.232-.739-2.07-.739-.637 0-1.151.172-1.543.516-.391.345-.587.726-.587 1.144 0 .52.146.967.437 1.34.282.38.856.785 1.72 1.213l1.995.99c1.848.92 2.772 2.134 2.772 3.64 0 1.163-.43 2.1-1.29 2.811-.86.712-1.824 1.067-2.889 1.067-.765 0-1.639-.14-2.622-.418-.3-.093-.546-.14-.738-.14-.21 0-.373.121-.491.363h-.451V15.47h.45c.256 1.302.743 2.283 1.462 2.943.72.66 1.525.99 2.417.99.629 0 1.14-.188 1.537-.565a1.81 1.81 0 0 0 .594-1.36c0-.641-.22-1.18-.662-1.618-.442-.437-1.323-.99-2.643-1.66-1.32-.669-2.185-1.273-2.595-1.813-.41-.53-.615-1.2-.615-2.008 0-1.051.353-1.93 1.059-2.637.705-.706 1.618-1.06 2.738-1.06.492 0 1.088.107 1.79.321.464.14.773.21.928.21.146 0 .26-.033.341-.098.082-.065.178-.21.287-.433h.45zm6.419-3.822v4.199h2.923v.976h-2.923v8.286c0 .827.116 1.385.348 1.674.232.288.53.432.895.432.3 0 .592-.095.874-.286.282-.19.5-.472.655-.844H100c-.319.911-.77 1.597-1.352 2.058-.583.46-1.184.69-1.803.69-.419 0-.828-.119-1.229-.356a2.136 2.136 0 0 1-.888-1.018c-.191-.442-.287-1.123-.287-2.043V8.034h-1.98v-.46c.5-.205 1.013-.55 1.537-1.04a8.226 8.226 0 0 0 1.4-1.736c.209-.353.5-1 .874-1.939h.423z" fill="#572C89" fill-rule="nonzero"/>
</svg>
