<svg width="121" height="22" viewBox="0 0 121 22" xmlns="http://www.w3.org/2000/svg">
    <defs>
        <linearGradient x1="4.653%" y1="50.055%" x2="100%" y2="50%" id="qz9se9g7ga">
            <stop stop-color="#FDB845" stop-opacity="0" offset="0%"/>
            <stop stop-color="#FDB845" offset="100%"/>
        </linearGradient>
    </defs>
    <g fill="none" fill-rule="evenodd">
        <path fill="url(#qz9se9g7ga)" d="M.858 18.216 0 22h113.464l.789-3.784z"/>
        <path d="M79.082 14.762h-.036c-1.033 1.273-2.053 1.998-3.706 1.998-2.068 0-3.541-1.141-3.541-3.227 0-3.738 4.231-4.033 7.034-4.033h1.053c.091-.304.091-.63.091-.967 0-1.146-1.25-1.467-2.299-1.467-1.31 0-2.58.321-3.76.876l.415-2.354c1.27-.438 2.57-.68 3.905-.68 2.298 0 4.453.833 4.453 3.498 0 1.509-1.134 5.95-1.402 8.096h-2.517l.31-1.74zM76.17 14.6c2.224 0 2.913-1.515 3.386-3.335h-1.053c-1.444 0-3.849.238-3.849 2.147 0 .8.75 1.188 1.516 1.188zM1.689 5.16h2.153l.52-2.328 3.21-1.043-.734 3.372h2.668l-.468 2.154H6.364l-1.09 4.948c-.09.361-.135.733-.132 1.105 0 .681.47 1.09 1.128 1.09.543 0 1.079-.104 1.456-.255l-.516 2.283c-.512.11-1.095.258-1.598.258-2.032 0-3.46-.78-3.46-2.96 0-.886.181-1.74.38-2.643l.85-3.826h-2.17l.477-2.154zm9.049 0h2.982l-2.452 11.327H8.285l2.453-11.326zM11.823.28h2.985l-.627 2.815h-2.976L11.823.28zm10.904 7.475c-.578-.38-1.356-.567-2.178-.567-2.389 0-3.723 2.193-3.723 4.334 0 1.465.489 2.937 2.549 2.937.73 0 1.64-.197 2.422-.571l-.337 2.328c-.91.444-1.888.528-2.867.528-2.964 0-4.88-1.952-4.88-4.875 0-3.96 2.647-6.972 6.77-6.972 1.119 0 2.18.197 2.985.438l-.74 2.42zM26.014 0h2.979l-1.978 9.268h.037l4.173-4.107h3.87l-5.502 5.17 3.455 6.156h-3.363l-2.964-6.005h-.046l-1.293 6.005H22.46L26.014 0zm19.845 5.16h2.163l.513-2.328 3.202-1.043-.734 3.372h2.68l-.463 2.154h-2.672l-1.097 4.948a4.43 4.43 0 0 0-.137 1.105c0 .681.463 1.09 1.136 1.09a4.1 4.1 0 0 0 1.447-.255l-.518 2.283c-.505.11-1.081.258-1.602.258-2.025 0-3.448-.78-3.448-2.96 0-.886.18-1.74.373-2.643l.856-3.826h-2.165l.466-2.154z" fill="#005A9B"/>
        <path d="M44.856 9.207c0-2.874-1.864-4.308-4.684-4.308-3.776 0-6.539 3.388-6.539 6.904 0 3.365 2.233 4.942 5.526 4.942 1.225 0 2.493-.278 3.658-.635l.374-2.327c-1.121.503-2.295.812-3.519.812-1.91 0-3.024-.667-3.17-2.456-.007-.096-.018-.2-.018-.304l.002-.064-.002-.033h.003a6.14 6.14 0 0 1 .486-2.252c.578-1.44 1.384-2.436 3.143-2.436 1.243 0 1.894.684 1.894 1.889 0 .267-.02.51-.061.77H37.86a7.182 7.182 0 0 0-.322 2.028h7.033c.177-.842.284-1.675.284-2.53zM54.97 6.414c.084-.437.171-.9.248-1.253h2.786l-.268 1.515h.038c.812-1.161 2.116-1.778 3.52-1.778 1.359 0 2.76.792 2.923 2.152h.042c.76-1.47 2.426-2.152 4.032-2.152 1.72 0 3.192 1.385 3.192 3.097 0 1.015-.273 2.156-.516 3.087l-1.201 5.405H66.78l1.2-5.524c.16-.68.383-1.73.383-2.413 0-.842-.65-1.362-1.405-1.362-2.077 0-2.584 2.37-2.96 3.91l-1.19 5.39H59.82l1.213-5.525c.15-.68.378-1.73.378-2.413 0-.842-.653-1.362-1.408-1.362-2.026 0-2.586 2.392-2.963 3.91l-1.183 5.39h-2.983L54.97 6.413zm36.593 1.055c-.32-.172-1.146-.418-1.998-.418-.884 0-2.001.246-2.001 1.145 0 1.431 3.878 1.955 3.878 4.727 0 2.955-2.606 3.822-5.162 3.822-1.208 0-2.414-.165-3.509-.672l.65-2.356c.846.462 1.69.88 2.858.88.992 0 2.043-.333 2.043-1.248 0-1.826-3.876-2.01-3.876-4.848 0-2.654 2.61-3.602 4.97-3.602 1.086 0 2.204.197 2.794.35l-.647 2.22zm1.9-2.308h2.162l.51-2.329L99.35 1.79l-.742 3.372h2.684l-.477 2.154h-2.672l-1.088 4.948c-.096.36-.143.732-.141 1.105 0 .681.476 1.09 1.15 1.09.533 0 1.06-.104 1.437-.255l-.507 2.283c-.519.11-1.097.258-1.604.258-2.034 0-3.457-.78-3.457-2.96 0-.886.19-1.74.383-2.643l.85-3.826h-2.165l.46-2.154zm20.244 1.516c.089-.482.178-.986.27-1.515h2.85l-.396 2.136h.039c.533-1.231 2.012-2.399 3.388-2.399.38 0 .78.023 1.142.112l-.627 2.878a3.962 3.962 0 0 0-1.141-.18c-2.115 0-3.13 1.872-3.51 3.699l-1.073 5.08h-2.991l2.049-9.811zm-2.07 2.53c0-2.874-1.869-4.308-4.703-4.308-3.767 0-6.53 3.388-6.53 6.904 0 3.365 2.234 4.942 5.528 4.942 1.22 0 2.503-.278 3.658-.635l.381-2.327c-1.112.503-2.3.812-3.519.812-1.916 0-3.033-.667-3.177-2.456-.004-.096-.017-.2-.017-.304 0-.024.003-.041.003-.064 0-.013-.003-.02-.003-.033h.003a6.073 6.073 0 0 1 .488-2.252c.573-1.44 1.38-2.436 3.145-2.436 1.241 0 1.888.684 1.888 1.889 0 .267-.018.51-.067.77h-4.084c-.269.893-.31 1.493-.31 2.028h7.026c.177-.842.29-1.675.29-2.53z" fill="#005A9B"/>
        <path d="M106.068 6.724c.004-.02.004-.02.004-.041l-.004.041z" fill="#828080"/>
    </g>
</svg>
