<svg width="93" height="28" viewBox="0 0 93 28" xmlns="http://www.w3.org/2000/svg">
    <g fill-rule="nonzero" fill="none">
        <path d="M57.693 21.897C52.308 25.88 44.477 28 37.723 28c-9.464 0-17.948-3.492-24.41-9.3-.489-.458-.065-1.078.555-.719 6.95 4.047 15.533 6.462 24.409 6.462 5.971 0 12.563-1.24 18.632-3.818.914-.36 1.665.62.784 1.272z" fill="#F90"/>
        <path d="M59.944 19.32c-.685-.882-4.568-.425-6.298-.196-.522.065-.62-.392-.13-.718 3.1-2.187 8.158-1.534 8.745-.816.587.718-.163 5.809-3.067 8.224-.457.358-.881.163-.686-.327.653-1.632 2.121-5.254 1.436-6.168z" fill="#F90"/>
        <path d="M53.744 3.068V.946c0-.326.229-.522.522-.522h9.463c.294 0 .555.229.555.522v1.795c0 .294-.26.686-.718 1.338l-4.894 6.984c1.827-.033 3.752.228 5.384 1.142.359.196.457.522.49.816v2.252c0 .326-.327.685-.686.49-2.904-1.535-6.787-1.698-9.985.032-.327.163-.686-.163-.686-.49v-2.153c0-.327 0-.914.36-1.436l5.677-8.126H54.3c-.294 0-.555-.229-.555-.522zM19.253 16.219H16.38c-.261-.033-.49-.228-.522-.49V.98c0-.294.261-.522.555-.522h2.675c.294 0 .49.228.523.49v1.925h.065C20.362 1.012 21.7.13 23.462.13c1.795 0 2.937.88 3.72 2.74.685-1.86 2.284-2.74 3.981-2.74 1.208 0 2.513.489 3.329 1.631.913 1.24.717 3.035.717 4.634v9.334c0 .293-.26.522-.554.522h-2.84c-.293-.033-.521-.261-.521-.522V7.897c0-.62.065-2.186-.066-2.773-.228-.98-.848-1.273-1.696-1.273-.686 0-1.436.457-1.73 1.207-.294.75-.26 1.991-.26 2.84v7.832c0 .293-.262.522-.556.522h-2.871c-.294-.033-.522-.261-.522-.522V7.897c0-1.631.26-4.079-1.762-4.079-2.056 0-1.991 2.35-1.991 4.08v7.832a.573.573 0 0 1-.587.49zM72.443.131c4.274 0 6.59 3.655 6.59 8.321 0 4.504-2.545 8.093-6.59 8.093-4.178 0-6.462-3.655-6.462-8.223C65.948 3.72 68.265.13 72.442.13zm0 3.035c-2.122 0-2.252 2.904-2.252 4.699s-.033 5.645 2.218 5.645c2.22 0 2.35-3.1 2.35-4.993 0-1.24-.065-2.74-.424-3.916-.327-1.044-.98-1.435-1.893-1.435zm12.105 13.053h-2.871c-.294-.033-.522-.261-.522-.522V.914a.564.564 0 0 1 .554-.49h2.676c.261 0 .457.196.522.424V3.1h.066c.815-2.023 1.925-2.97 3.915-2.97 1.273 0 2.546.457 3.361 1.73C93 3.035 93 5.026 93 6.462v9.3c-.033.261-.261.457-.555.457h-2.871c-.261-.033-.49-.228-.522-.457V7.734c0-1.631.195-3.981-1.795-3.981-.685 0-1.338.457-1.664 1.175-.392.913-.457 1.795-.457 2.806v7.963a.598.598 0 0 1-.588.522zM44.673 0c1.403 0 3.23.359 4.34 1.436 1.342 1.249 1.28 2.915 1.273 4.714v4.717c0 1.338.554 1.926 1.076 2.676.196.261.229.588 0 .75-.62.49-1.664 1.404-2.251 1.893a.59.59 0 0 1-.686.066c-.946-.783-1.142-1.175-1.664-1.926-1.566 1.6-2.708 2.089-4.732 2.089-2.414 0-4.307-1.501-4.307-4.47 0-2.35 1.273-3.917 3.067-4.7 1.567-.686 3.753-.816 5.417-1.012v-.359c0-.685.066-1.501-.359-2.088-.359-.523-1.011-.751-1.599-.751-1.11 0-2.088.555-2.316 1.73-.066.26-.229.522-.49.522l-2.774-.294c-.228-.065-.49-.228-.424-.587C38.897 1.012 41.932 0 44.673 0zm1.533 8.55c-2.088 0-4.274.457-4.274 2.905 0 1.24.652 2.088 1.762 2.088.815 0 1.533-.49 1.99-1.305.47-.856.518-1.666.522-2.566zM6.951 0c1.403 0 3.23.359 4.34 1.436 1.342 1.249 1.28 2.915 1.273 4.714v4.717c0 1.338.554 1.926 1.076 2.676.196.261.228.588 0 .75-.62.49-1.664 1.404-2.252 1.893a.59.59 0 0 1-.685.066c-.946-.783-1.142-1.175-1.664-1.926-1.566 1.6-2.708 2.089-4.732 2.089-2.414 0-4.307-1.501-4.307-4.47 0-2.35 1.273-3.917 3.067-4.7 1.567-.686 3.753-.816 5.417-1.012v-.359c0-.685.065-1.501-.359-2.088-.359-.523-1.011-.751-1.599-.751-1.11 0-2.088.555-2.317 1.73-.065.26-.228.522-.489.522L.946 4.993c-.228-.065-.49-.228-.424-.587C1.175 1.012 4.21 0 6.951 0zm1.566 8.55c-2.089 0-4.275.457-4.275 2.905 0 1.24.653 2.088 1.762 2.088.816 0 1.534-.49 1.99-1.305.555-1.012.523-1.958.523-3.068z" fill="#221F1F"/>
    </g>
</svg>
