<svg width="60" height="42" viewBox="0 0 60 42" xmlns="http://www.w3.org/2000/svg">
    <g fill="#FF1F00" fill-rule="nonzero">
        <path d="M42.844 31.312c1.412 0 2.164-1.235 2.164-2.5 0-1.715-1.052-2.438-2.494-2.378v4.848l.33.03zm-32.689 5.72C9.585 39.952 7.241 42 4.056 42c-1.352 0-2.734-.12-3.996-.632v-6.142c.721 1.084 2.013 2.168 3.365 2.168.721 0 1.562-.452 1.562-1.295 0-.452-.15-.813-.42-1.084a3.496 3.496 0 0 0-.871-.753c-1.052-.813-1.953-1.565-2.644-2.499C.42 30.86 0 29.776 0 28.331c0-2.288 1.442-6.262 5.979-6.262 1.172 0 2.404.331 3.485.843v5.51c-.69-.874-1.772-1.687-2.824-1.687-.6 0-1.382.422-1.382 1.205 0 .421.24.783.51 1.084.271.3.692.572.962.813 1.112.782 2.013 1.505 2.614 2.408a4.64 4.64 0 0 1 .811 1.837V22.249h5.559l2.523 8.792v-8.792h5.108v19.6h-4.357l-3.695-9.604v9.604h-5.138v-4.817zm27.07-14.813h5.139c3.755 0 6.67.904 7.631 4.065.63-2.047 2.313-4.245 5.679-4.245 1.261 0 2.643.21 3.785.813v5.96c-.63-.993-1.893-2.107-3.124-2.107-.631 0-1.383.452-1.383 1.205 0 .421.24.782.511 1.084.27.3.691.572.962.812 1.111.783 2.013 1.506 2.614 2.41.63.872.961 1.926.961 3.401C60 39.26 57.446 42 53.75 42c-.84 0-1.712-.03-2.523-.21l.03.06h-5.769l-3.004-8.1c.03.964.09 1.927.09 2.89v5.21h-9.945l-3.215-8.4v8.4h-5.288v-19.6h5.288v5.66l2.674-5.69h5.138zm0 .994L33.56 30.8l3.666 8.791V23.213zm12.83 7.346c-.39 1.385-1.322 2.53-2.794 3.131l2.464 5.058v-3.522c.72 1.084 2.013 2.168 3.365 2.168.72 0 1.562-.452 1.562-1.295 0-.452-.15-.813-.42-1.084-.241-.27-.541-.512-.872-.753-1.052-.813-1.953-1.565-2.644-2.499-.27-.391-.51-.782-.66-1.204zM21.813 7.858c-2.464.632-4.417.572-5.559-.24-2.884-2.108-.69-6.353.09-7.618-1.412 1.535-2.824 3.101-3.905 4.787-1.713 2.65-2.464 5.54-1.292 7.376 2.073 3.342 7.09 1.807 10.305.452L51.107.12 21.813 7.858z"/>
    </g>
</svg>
