<svg width="96" height="32" viewBox="0 0 96 32" xmlns="http://www.w3.org/2000/svg">
    <g fill-rule="nonzero" fill="none">
        <path d="M14.316 14.317H8.42V16h5.895v6.738H5.053l-3.369-3.369V1.684h6.737V7.58h5.895v6.738zm25.263 8.42h-20.21L16 19.37V7.58h6.737V16h1.684V7.579h6.737V16h1.684V7.579h6.737v15.159zM41.263 7.58H48v15.158h-6.737V7.579zm0-5.895H48v4.21h-6.737v-4.21zm21.053 12.633H56.42V16h5.895v6.738h-9.263l-3.369-3.369V1.684h6.737V7.58h5.895v6.738zm15.158 0h-6.737V16h6.737v6.738H67.368L64 19.369v-8.42l3.368-3.37h10.106v6.738zm16.842 8.42h-6.737v-8.42h-1.684v8.42h-6.737V1.685h6.737V7.58h5.052l3.369 3.37v11.789z" fill="#FFF"/>
        <path d="M91.79 5.895h-4.211V0h-9.246l-4.251 5.895h-7.556L64 8.42V5.895h-5.895V0H39.58v5.895H13.516L9.263 0H0v20.21L11.79 32h11.789v-3.368L26.947 32h22.737v-3.368L53.053 32H64v-3.368L67.368 32h21.053L96 24.421V10.105l-4.21-4.21zm-77.474 8.42H8.42V16h5.895v6.737H5.053l-3.369-3.369V1.684h6.737V7.58h5.895v6.737zm25.263 8.422h-20.21L16 19.368V7.578h6.737V16h1.684V7.579h6.737V16h1.684V7.579h6.737v15.158zm8.421 0h-6.737V7.579H48v15.158zm0-16.842h-6.737v-4.21H48v4.21zm14.316 8.42H56.42V16h5.895v6.737h-9.263l-3.369-3.369V1.684h6.737V7.58h5.895v6.737zm15.158 0h-6.737V16h6.737v6.737H67.368L64 19.368v-8.42l3.368-3.37h10.106v6.738zm16.842 8.422h-6.737v-8.421h-1.684v8.42h-6.737V1.685h6.737V7.58h5.052l3.369 3.368v11.79z" fill="#6441A5"/>
    </g>
</svg>
