<svg width="112" height="32" viewBox="0 0 112 32" xmlns="http://www.w3.org/2000/svg">
    <g fill-rule="nonzero" fill="none">
        <path d="M24.257 6.06a.305.305 0 0 0-.276-.256c-.114-.01-2.348-.044-2.348-.044s-1.868-1.82-2.053-2.005c-.185-.185-.545-.13-.685-.087l-.938.291a6.611 6.611 0 0 0-.45-1.106C16.842 1.579 15.867.906 14.69.904h-.005c-.082 0-.162.008-.244.015a3.606 3.606 0 0 0-.106-.123c-.513-.55-1.171-.818-1.959-.795-1.52.044-3.034 1.145-4.261 3.1-.865 1.377-1.521 3.106-1.708 4.445l-2.993.93c-.88.278-.909.304-1.024 1.138C2.306 10.244 0 28.124 0 28.124l19.321 3.351 8.374-2.087S24.278 6.219 24.257 6.06zm-7.269-1.8-1.499.465c-.011-.771-.102-1.846-.461-2.774 1.153.22 1.72 1.528 1.96 2.31zm-2.51.78-3.225 1.002c.311-1.198.902-2.39 1.629-3.171.27-.291.648-.615 1.095-.8.42.88.512 2.126.501 2.97V5.04zm-2.07-4.024c.356-.008.657.07.913.24a4.399 4.399 0 0 0-1.18.922c-.966 1.04-1.706 2.652-2 4.208l-2.65.823c.523-2.45 2.57-6.125 4.916-6.193z" fill="#95BF47"/>
        <path d="M23.982 5.805c-.114-.01-2.348-.044-2.348-.044s-1.868-1.82-2.053-2.005a.456.456 0 0 0-.26-.12l.001 27.838 8.374-2.086S24.279 6.22 24.257 6.062a.305.305 0 0 0-.275-.258v.001z" fill="#5E8E3E"/>
        <path d="m14.68 10.123-.973 3.649s-1.084-.495-2.37-.414c-1.886.12-1.906 1.313-1.887 1.612.103 1.632 4.383 1.988 4.624 5.812.189 3.007-1.59 5.065-4.155 5.227-3.078.194-4.772-1.626-4.772-1.626L5.8 21.6s1.706 1.29 3.07 1.204c.893-.057 1.212-.784 1.18-1.298-.135-2.13-3.62-2.004-3.841-5.502-.186-2.943 1.742-5.927 5.995-6.195 1.639-.106 2.477.313 2.477.313z" fill="#FFF"/>
        <path d="M38.722 17.765c-.963-.525-1.458-.966-1.458-1.574 0-.772.687-1.268 1.761-1.268 1.25 0 2.365.524 2.365.524l.88-2.704s-.809-.635-3.19-.635c-3.315 0-5.612 1.904-5.612 4.58 0 1.517 1.072 2.676 2.504 3.503 1.155.662 1.568 1.131 1.568 1.82 0 .718-.578 1.298-1.65 1.298-1.599 0-3.108-.828-3.108-.828l-.936 2.703s1.395.938 3.741.938c3.411 0 5.86-1.682 5.86-4.717-.002-1.626-1.239-2.786-2.725-3.64zM52.31 12.08c-1.678 0-2.999.8-4.016 2.014l-.055-.028 1.458-7.642h-3.796l-3.686 19.45h3.796l1.266-6.649c.495-2.511 1.788-4.055 2.998-4.055.852 0 1.183.58 1.183 1.407a8.73 8.73 0 0 1-.165 1.683l-1.43 7.614h3.796l1.485-7.862c.166-.829.276-1.82.276-2.484-.002-2.152-1.13-3.448-3.11-3.448zm11.69 0c-4.567 0-7.591 4.138-7.591 8.745 0 2.952 1.814 5.324 5.226 5.324 4.483 0 7.51-4.027 7.51-8.745 0-2.73-1.597-5.324-5.145-5.324zm-1.87 11.146c-1.293 0-1.844-1.104-1.844-2.483 0-2.18 1.129-5.738 3.191-5.738 1.348 0 1.788 1.16 1.788 2.29 0 2.345-1.127 5.931-3.135 5.931zm16.724-11.146c-2.563 0-4.017 2.262-4.017 2.262h-.054l.22-2.04h-3.356a81.662 81.662 0 0 1-.77 5.047l-2.64 13.932h3.796l1.044-5.628h.084s.778.496 2.228.496c4.455 0 7.37-4.579 7.37-9.214 0-2.565-1.127-4.855-3.905-4.855zm-3.631 11.2c-.986 0-1.569-.551-1.569-.551l.633-3.559c.44-2.372 1.678-3.945 2.999-3.945 1.155 0 1.512 1.076 1.512 2.097 0 2.455-1.457 5.959-3.575 5.959zM88.18 6.62c-1.21 0-2.173.965-2.173 2.206 0 1.132.715 1.904 1.788 1.904h.055c1.183 0 2.2-.8 2.228-2.207 0-1.103-.743-1.904-1.898-1.904zM82.87 25.875h3.795l2.587-13.49h-3.824l-2.558 13.49zm16.037-13.518h-2.641l.137-.635c.22-1.296.99-2.455 2.256-2.455.41.001.819.066 1.21.193l.742-2.98s-.66-.33-2.063-.33c-1.348 0-2.695.386-3.713 1.269-1.293 1.103-1.898 2.703-2.2 4.303l-.11.635h-1.761l-.55 2.87h1.76l-2.007 10.649h3.796l2.008-10.65h2.613l.523-2.869zm9.132.028s-2.374 5.997-3.439 9.27h-.055c-.073-1.055-.936-9.27-.936-9.27h-3.988l2.284 12.386c.055.276.028.442-.083.635-.44.855-1.183 1.683-2.063 2.29-.715.524-1.513.855-2.145 1.076L98.66 32c.77-.165 2.365-.8 3.713-2.069 1.733-1.628 3.328-4.139 4.978-7.56L112 12.385h-3.96v.001z" fill="#000"/>
    </g>
</svg>
