<svg width="99" height="19" viewBox="0 0 99 19" xmlns="http://www.w3.org/2000/svg">
    <path d="M6.272 18.707h-3.73V9.486H0V6.484h2.541V4.347C2.541 1.816 3.665 0 7.385 0c.787 0 2.023.157 2.023.157v2.788H8.11c-1.322 0-1.838.399-1.838 1.501v2.038h3.086l-.275 3.002H6.272v9.221zm8.56-12.463-.166.003c-3.46 0-5.042 2.58-5.042 6.242 0 4.614 2.053 6.46 5.069 6.46 1.725 0 2.859-.72 3.548-2.063v1.822h3.548V6.485H18.24v1.88c-.563-1.21-1.728-2.107-3.41-2.121zm.901 2.888c1.453 0 2.325 1.005 2.325 2.714l.004 1.746c0 1.152-.72 2.5-2.329 2.5-2.472 0-2.406-2.647-2.406-3.529 0-2.965 1.317-3.431 2.406-3.431zm7.489 3.465c0-1.485-.072-6.345 6.314-6.345 2.563 0 3.634.808 3.634.808l-.86 2.646s-1.07-.584-2.462-.584c-1.784 0-2.923 1.026-2.923 2.83l.002 1.294c0 1.734 1.099 2.891 2.924 2.891 1.27 0 2.439-.59 2.439-.59l.858 2.592s-.979.813-3.594.813c-6.08 0-6.332-4.36-6.332-6.355zm30.752-6.35c3.46 0 5.067 2.58 5.067 6.242 0 4.614-2.053 6.46-5.07 6.46-1.725 0-3-.72-3.69-2.063v1.822h-3.503V.371l3.72-.322v8.149c.537-1.426 2.301-1.952 3.476-1.952zm-1.043 2.885c-1.453 0-2.433 1.005-2.433 2.714l-.003 1.746c-.002 1.152.678 2.5 2.436 2.5 2.472 0 2.406-2.647 2.406-3.529 0-2.965-1.317-3.431-2.406-3.431zM39.624 6.257c-3.923 0-5.995 2.121-5.995 5.89v.701c0 4.892 2.91 6.152 6.377 6.152 3.37 0 4.896-.935 4.896-.935l-.696-2.49s-1.794.758-3.754.758c-2.032 0-2.905-.514-3.13-2.45H45.2v-1.997c0-4.089-2.325-5.629-5.576-5.629zm.095 2.493c1.358 0 2.238.826 2.19 2.74h-4.58c.08-2.015 1.029-2.74 2.39-2.74zm26.739-2.51c-4.03 0-6.15 2.252-6.15 6.286 0 5.536 3.656 6.427 6.157 6.427 3.66 0 6.096-1.954 6.096-6.376 0-4.603-2.739-6.337-6.103-6.337zm-.05 2.902c1.77 0 2.473 1.315 2.473 2.811v1.287c0 1.813-.982 2.862-2.48 2.862-1.402 0-2.386-.981-2.386-2.862v-1.287c0-2.005 1.171-2.811 2.392-2.811zM79.97 6.24c-4.029 0-6.15 2.252-6.15 6.286 0 5.536 3.656 6.427 6.157 6.427 3.66 0 6.096-1.954 6.096-6.376 0-4.603-2.738-6.337-6.103-6.337zm-.05 2.902c1.771 0 2.473 1.315 2.473 2.811v1.287c0 1.813-.982 2.862-2.48 2.862-1.401 0-2.386-.981-2.386-2.862v-1.287c0-2.005 1.172-2.811 2.393-2.811zm7.559 9.565V.372L91.21.05v12.29l3.701-5.856h3.94l-3.86 6.065L99 18.707h-3.951l-3.839-5.98v5.98h-3.73z" fill="#1877F2" fill-rule="nonzero"/>
</svg>
