<svg width="95" height="29" viewBox="0 0 95 29" xmlns="http://www.w3.org/2000/svg">
    <g fill-rule="nonzero" fill="none">
        <path d="M14.559 19.434c2.73 0 5.055-2.215 5.055-5.035a5.058 5.058 0 0 0-5.055-5.035c-2.73 0-5.055 2.215-5.055 5.035 0 2.72 2.324 5.035 5.055 5.035zm0 4.632a9.622 9.622 0 0 0 6.792-2.801 9.544 9.544 0 0 0 2.813-6.765c0-5.237-4.348-9.566-9.605-9.566-5.256 0-9.605 4.33-9.605 9.566 0 5.237 4.338 9.566 9.605 9.566zM0 14.5C0 6.443 6.571 0 14.559 0c7.987 0 14.558 6.544 14.558 14.5S22.547 29 14.56 29C6.57 29 0 22.557 0 14.5z" fill="#EB2D2D"/>
        <path d="M37.688 10.627v10.436h-3.155V10.627h-3.598v-2.64H41.35v2.64h-3.662zm19.251 0h-2.903v2.64h2.586c.947 0 1.579-.377 1.579-1.32.063-.943-.57-1.32-1.263-1.32h.001zm-5.996-2.64h6.122c3.472 0 3.977 2.389 3.977 3.772 0 2.02-1.704 3.017-1.894 3.081 0 0 1.578.566 1.578 2.263v2.452c0 .943.568 1.257.694 1.508h-2.525c-1.2-.126-1.136-1.069-1.136-1.571v-2.13c-.064-.503-.19-1.069-1.262-1.069h-2.525v4.778h-2.959V7.996l-.07-.009zm32 4.972h-5.365v-2.332h6.312v-2.64h-9.404v13.075h9.405v-2.64H77.58v-2.947h5.365v-2.516zm8.207 8.111V10.627H95v-2.64H84.332v2.64h3.725v10.436l3.093.007zm-46.583-8.424-1.074 3.395h2.272l-1.198-3.395zm-1.775-4.651H46.2l4.607 13.013h-3.273l-.947-2.694h-3.85l-.947 2.694h-3.219l4.22-13.013zm30.613 5.783h-5.618v2.515h2.705c0 .504.064 1.006-.568 1.768-.253.253-.947.817-1.957.817-.883 0-1.515-.253-2.028-.69-1.2-1.007-1.515-2.83-1.515-3.898 0-1.257.505-4.276 3.471-4.401 0 0 2.083-.126 2.587 2.326h2.84C73.26 10.958 71.807 7.5 67.957 7.5c-1.325 0-3.03.378-4.482 1.823-1.01 1.006-1.957 2.767-1.957 5.155 0 2.64.947 4.338 1.83 5.281 1.579 1.635 3.156 1.768 3.977 1.768.631 0 1.893-.126 3.471-1.195l.38.754h2.146l.083-7.308z" fill="#000"/>
    </g>
</svg>
