<svg width="110" height="24" viewBox="0 0 110 24" xmlns="http://www.w3.org/2000/svg">
    <g fill-rule="nonzero" fill="none">
        <path d="m18.315 23.97-7.196-.131c-2.33-.045-4.666.045-6.95-.425C.694 22.712.448 19.27.19 16.381a48.808 48.808 0 0 1 .452-12.22C1.02 1.9 2.51.554 4.81.407 12.58-.126 20.4-.063 28.15.186c.82.022 1.643.147 2.45.288 3.985.691 4.083 4.593 4.34 7.877a44.172 44.172 0 0 1-.343 9.95c-.395 2.73-1.151 5.017-4.34 5.238-3.996.289-7.9.52-11.908.447 0-.017-.022-.017-.034-.017zm-4.23-6.91c3.01-1.71 5.965-3.391 8.959-5.09-3.017-1.71-5.965-3.392-8.96-5.09v10.18z" fill="red"/>
        <g fill="#232323">
            <path d="M92.847 20.866c-.137.555-.257.991-.377 1.455h-2.817V.831h3.286V8.76c.172-.215.258-.306.332-.402.561-.764 1.288-1.263 2.227-1.455 1.494-.29 2.77.362 3.223 1.783.292.884.481 1.83.504 2.753.046 2.372.011 4.74-.074 7.112-.035.725-.258 1.467-.539 2.146-.921 2.243-3.933 2.582-5.427.64-.091-.119-.177-.25-.338-.47zm.16-5.912v3.93c0 .64.344 1.03.991 1.178.636.147 1.15-.096 1.408-.68.11-.243.218-.498.224-.753.063-2.4.12-4.802.137-7.208 0-.448-.109-.912-.246-1.348-.258-.787-.968-1.02-1.666-.56-.527.35-.847.849-.847 1.511v3.93zm-8.93-7.746h3.44v15.125h-2.684c-.098-.572-.195-1.161-.31-1.852-.183.266-.291.436-.406.606-.893 1.274-2.158 1.71-3.652 1.478-1.277-.204-2.044-1.178-2.216-2.775a13.342 13.342 0 0 1-.074-1.433c-.012-3.539 0-7.09 0-10.629v-.532h3.48v.617c0 3.42-.011 6.835.012 10.256 0 .487.051.99.137 1.478.097.498.464.68.956.645.796-.062 1.346-.645 1.346-1.427V7.875c-.03-.22-.03-.424-.03-.667zm-23.69-.012h3.458v.64c0 3.403-.011 6.801.012 10.193 0 .487.045.991.148 1.467.132.56.464.741 1.03.668.785-.108 1.26-.646 1.266-1.433V7.218h3.44v15.115h-2.673c-.097-.56-.194-1.138-.32-1.869-.172.255-.27.402-.367.555-.893 1.297-2.147 1.772-3.675 1.54-1.225-.181-1.975-1.076-2.204-2.542a10.046 10.046 0 0 1-.109-1.37c-.011-3.676-.011-7.368-.011-11.043l.005-.408zm-1.774 8.075c-.012.51-.046 1.02-.075 1.53-.131 1.528-.194 3.697-1.442 4.813-.796.702-1.804.957-2.846.99a8.867 8.867 0 0 1-1.397-.05c-2.192-.329-3.211-1.286-3.578-3.67-.418-2.752-.452-5.55.046-8.301.515-2.849 2.29-3.857 5.05-3.67 2.576.181 3.726 1.852 4.03 4.23.166 1.365.246 2.747.212 4.128zm-3.504-.52c0-.969.023-1.943-.011-2.911a9.876 9.876 0 0 0-.218-1.682c-.137-.64-.55-.946-1.065-.935-.504.012-.859.318-1.042.912-.063.221-.131.448-.131.668 0 1.518-.012 3.041-.023 4.559-.012 1.416-.195 2.9.257 4.253.138.413.493.64.956.64.453 0 .75-.221.916-.618.132-.306.246-.64.246-.968.04-1.303.115-2.61.115-3.919zM44.226 11.9c.303-1.466.59-2.898.904-4.337.396-1.829.836-3.658 1.226-5.493.097-.447.28-.555.71-.543.921.034 1.86.011 2.845.011-.32 1.167-.636 2.277-.945 3.37-.979 3.431-1.958 6.874-2.925 10.317a3.147 3.147 0 0 0-.109.838c-.011 1.88 0 3.754 0 5.634v.612h-3.36c-.012-.17-.035-.34-.035-.51 0-1.064-.086-2.134.012-3.188.246-2.531-.567-4.858-1.226-7.214-.87-3.115-1.751-6.24-2.622-9.355-.045-.147-.063-.306-.108-.487h3.429c.721 3.437 1.448 6.875 2.204 10.346zm65.75 3.948h-5.793c.063 1.15.086 2.242.206 3.324.086.753.504 1.076 1.162 1.081.687.012 1.088-.328 1.248-1.075.052-.244.086-.487.109-.737.023-.22.034-.458.051-.775.98.05 1.935.107 2.88.147.55 1.614-.44 3.686-2.107 4.326-1.31.51-2.656.51-3.996.12-.99-.29-1.729-.913-2.06-1.87-.31-.894-.602-1.829-.665-2.763-.172-2.305-.235-4.632.12-6.943.063-.385.172-.753.292-1.126.481-1.54 1.529-2.486 3.149-2.645a10.22 10.22 0 0 1 2.662.096c1.408.244 2.158 1.246 2.485 2.56.149.617.257 1.251.28 1.88.006 1.444-.023 2.877-.023 4.4zm-3.291-1.988c0-1.138.011-2.208-.012-3.284 0-.255-.097-.521-.195-.765-.194-.475-.6-.606-1.087-.606s-.796.244-.916.68c-.367 1.308-.246 2.644-.235 3.987.876-.012 1.672-.012 2.445-.012z"/>
            <path d="M72.398 4.314h-3.406v-2.73h10.167v2.713h-3.383V22.31h-3.372z"/>
        </g>
    </g>
</svg>
