<svg width="80" height="31" viewBox="0 0 80 31" xmlns="http://www.w3.org/2000/svg">
    <g fill-rule="nonzero" fill="none">
        <path d="M10.345 6.764C4.702 6.764 0 9.078 0 16.064c0 5.533 3.162 9.017 10.49 9.017 8.626 0 9.18-5.495 9.18-5.495h-4.18s-.897 2.959-5.255 2.959c-3.55 0-6.102-2.32-6.102-5.57h15.973v-2.039c0-3.215-2.11-8.172-9.761-8.172zm-.146 2.606c3.379 0 5.682 2.002 5.682 5.002H4.225c0-3.185 3.007-5.002 5.974-5.002z" fill="#E53238"/>
        <path d="M20.104 0v21.573c0 1.225-.09 2.944-.09 2.944h3.985s.144-1.234.144-2.363c0 0 1.97 2.98 7.325 2.98 5.64 0 9.47-3.787 9.47-9.212 0-5.047-3.518-9.106-9.461-9.106-5.565 0-7.294 2.906-7.294 2.906V0h-4.08zm10.344 9.485c3.83 0 6.265 2.749 6.265 6.437 0 3.956-2.813 6.544-6.237 6.544-4.088 0-6.293-3.087-6.293-6.509 0-3.188 1.978-6.472 6.265-6.472z" fill="#0064D2"/>
        <path d="M50.846 6.764c-8.489 0-9.033 4.495-9.033 5.213h4.225s.221-2.624 4.517-2.624c2.79 0 4.953 1.235 4.953 3.61v.846h-4.953c-6.577 0-10.054 1.86-10.054 5.636 0 3.716 3.213 5.737 7.554 5.737 5.916 0 7.822-3.161 7.822-3.161 0 1.257.1 2.497.1 2.497h3.756s-.145-1.536-.145-2.519v-8.494c0-5.57-4.645-6.741-8.742-6.741zm4.662 9.581v1.127c0 1.47-.938 5.126-6.46 5.126-3.025 0-4.321-1.46-4.321-3.153 0-3.08 4.366-3.1 10.781-3.1z" fill="#F5AF02"/>
        <path fill="#86B817" d="M57.313 7.469h4.753l6.822 13.217L75.694 7.47H80L67.603 31h-4.517l3.577-6.56z"/>
    </g>
</svg>
