<svg width="123" height="29" viewBox="0 0 123 29" xmlns="http://www.w3.org/2000/svg">
    <g fill-rule="nonzero" fill="none">
        <path d="M108.922 9.763c.69 0 1.259-.354 1.336-.81l.681-7.587c0-.75-.892-1.366-2.015-1.366-1.122 0-2.014.616-2.014 1.366l.682 7.587c.075.456.643.81 1.332.81h-.002m-4.168 2.37c.347-.588.32-1.249-.045-1.542l-6.338-4.375c-.659-.376-1.647.076-2.208 1.033-.562.956-.463 2.023.195 2.399l7.018 3.215c.439.16 1.037-.148 1.38-.735l-.002.004m8.34-.004c.345.588.94.896 1.38.736l7.017-3.216c.662-.375.756-1.443.198-2.398-.563-.956-1.553-1.41-2.21-1.034l-6.339 4.375c-.362.293-.39.954-.045 1.542l-.002-.005m-4.171 7.112c.69 0 1.259.35 1.336.807l.681 7.586c0 .753-.892 1.367-2.015 1.367-1.122 0-2.014-.614-2.014-1.367l.682-7.586c.075-.457.643-.807 1.332-.807h-.002m4.171-2.37c.346-.59.941-.895 1.38-.733l7.018 3.213c.662.376.756 1.445.198 2.401-.563.953-1.553 1.407-2.21 1.032l-6.339-4.37c-.362-.296-.39-.957-.045-1.544h-.002m-8.339 0c.347.587.32 1.248-.045 1.544l-6.338 4.37c-.659.376-1.647-.079-2.208-1.031-.562-.957-.463-2.025.195-2.401l7.018-3.213c.439-.162 1.037.143 1.38.732h-.002" fill="#FEAE3D"/>
        <path d="M68.942 18.399c0 .233-.02.473-.085.684-.27.876-1.191 1.616-2.344 1.616-.962 0-1.725-.537-1.725-1.672 0-1.737 1.943-2.217 4.155-2.205V18.4zm3.47-3.027c0-2.865-1.244-5.385-5.447-5.385-2.158 0-3.87.596-4.805 1.127l.685 2.303c.854-.53 2.215-.97 3.504-.97 2.132-.006 2.481 1.188 2.481 1.952v.181c-4.647-.007-7.585 1.577-7.585 4.802 0 1.971 1.496 3.817 4.097 3.817 1.598 0 2.937-.628 3.738-1.634h.08s.53 2.185 3.456 1.349c-.153-.909-.203-1.879-.203-3.045v-4.497M0 6.086S3.037 18.33 3.522 20.317c.566 2.32 1.585 3.173 4.523 2.597l1.897-7.591c.48-1.886.802-3.231 1.112-5.149h.054c.218 1.938.526 3.268.922 5.155 0 0 .771 3.447 1.167 5.256.396 1.81 1.5 2.95 4.378 2.329l4.518-16.829h-3.647l-1.543 7.276c-.415 2.117-.791 3.774-1.082 5.71h-.051c-.264-1.92-.6-3.508-1.021-5.571l-1.606-7.415h-3.8l-1.719 7.228c-.486 2.197-.942 3.97-1.231 5.842H6.34a203.33 203.33 0 0 0-1.118-6.118s-1.02-5.17-1.38-6.952H0M28.992 18.4c0 .233-.021.473-.087.684-.268.876-1.19 1.616-2.344 1.616-.961 0-1.724-.537-1.724-1.672 0-1.737 1.943-2.217 4.155-2.205V18.4zm3.47-3.027c0-2.865-1.245-5.385-5.447-5.385-2.158 0-3.872.596-4.806 1.127l.684 2.303c.854-.53 2.215-.97 3.504-.97 2.133-.006 2.483 1.188 2.483 1.952v.181c-4.65-.007-7.586 1.577-7.586 4.802 0 1.971 1.495 3.817 4.094 3.817 1.6 0 2.939-.628 3.74-1.634h.079s.531 2.185 3.457 1.349c-.153-.909-.203-1.879-.203-3.045v-4.497m5.79 3.97V6.086h-3.474v16.829h3.474v-3.573M83.695 6.086V18.5c0 1.712.328 2.91 1.028 3.644.613.641 1.62 1.056 2.828 1.056 1.027 0 2.037-.192 2.514-.366l-.045-2.67a5.39 5.39 0 0 1-1.32.154c-1.183 0-1.579-.746-1.579-2.283v-4.75h3.025v-3.22h-3.025v-3.98h-3.426m-8.967 4.187v12.643h3.584V16.44c0-.35.021-.654.078-.933.265-1.357 1.319-2.223 2.832-2.223.415 0 .712.044 1.034.09v-3.31a3.545 3.545 0 0 0-.79-.078c-1.336 0-2.858.849-3.496 2.67h-.097v-2.385h-3.145m-34.044 0v12.643h3.49V15.5c0-.348.042-.716.165-1.035.29-.746.995-1.62 2.122-1.62 1.41 0 2.067 1.171 2.067 2.863v7.205h3.489V15.41c0-.332.046-.732.146-1.025.286-.85 1.047-1.54 2.094-1.54 1.428 0 2.114 1.151 2.114 3.142v6.926h3.49v-7.446c0-3.927-2.026-5.481-4.314-5.481-1.012 0-1.812.25-2.535.685-.607.369-1.152.89-1.628 1.576h-.051c-.552-1.362-1.85-2.26-3.541-2.26-2.173 0-3.15 1.083-3.742 2.002h-.052v-1.717h-3.314" fill="#1172BE"/>
    </g>
</svg>
