<svg width="105" height="28" viewBox="0 0 105 28" xmlns="http://www.w3.org/2000/svg">
    <g fill="none" fill-rule="evenodd">
        <path d="M77.364 2.006C77.364.898 78.278 0 79.406 0h23.552C104.086 0 105 .898 105 2.006v23.988c0 1.108-.914 2.006-2.042 2.006H79.406c-1.128 0-2.042-.898-2.042-2.006V2.006z" fill="#069" fill-rule="nonzero"/>
        <path fill="#000" d="M0 23.454h11.534v-3.812h-7.36V5.098H0zM17.373 23.454V10.81h-4.174v12.643h4.174zm-2.087-14.37c1.455 0 2.361-.97 2.361-2.185-.027-1.24-.906-2.183-2.334-2.183s-2.361.943-2.361 2.183c0 1.215.906 2.185 2.306 2.185h.028zM19.31 23.454h4.175v-7.06c0-.379.027-.756.138-1.026.301-.755.988-1.537 2.141-1.537 1.51 0 2.115 1.16 2.115 2.858v6.765h4.174v-7.25c0-3.883-2.06-5.69-4.806-5.69-2.252 0-3.24 1.267-3.79 2.13h.028V10.81h-4.174c.055 1.186 0 12.643 0 12.643zM37.941 5.098h-4.174v18.356h4.174v-4.1l1.044-1.321 3.268 5.42h5.135l-5.492-7.847 4.805-5.34h-5.025s-3.432 4.777-3.735 5.344V5.098z"/>
        <path d="M58.55 18.18c.056-.325.138-.948.138-1.652 0-3.268-1.648-6.586-5.987-6.586-4.64 0-6.782 3.695-6.782 7.047 0 4.145 2.608 6.734 7.167 6.734 1.812 0 3.487-.27 4.86-.836l-.549-2.775c-1.126.376-2.28.564-3.707.564-1.95 0-3.652-.806-3.79-2.523l8.65.026v.001zm-8.677-2.843c.11-1.079.824-2.67 2.609-2.67 1.894 0 2.334 1.7 2.334 2.67h-4.943zM68.991 5.098v6.354h-.054c-.605-.89-1.868-1.483-3.543-1.483-3.213 0-6.041 2.59-6.014 7.012 0 4.1 2.554 6.77 5.74 6.77 1.73 0 3.377-.756 4.2-2.212h.083l.165 1.915h3.708c-.055-.89-.11-2.428-.11-3.938V5.098H68.99zm0 12.504c0 .323-.027.647-.082.916a2.462 2.462 0 0 1-2.444 1.969c-1.73 0-2.856-1.402-2.856-3.614 0-2.076.961-3.748 2.883-3.748 1.29 0 2.197.89 2.445 1.995.054.243.054.513.054.755v1.727z" fill="#000"/>
        <path d="M85.741 23.439V10.795h-4.174V23.44h4.174zm-2.087-14.37c1.456 0 2.362-.97 2.362-2.184-.028-1.24-.906-2.185-2.335-2.185-1.427 0-2.361.944-2.361 2.185 0 1.213.906 2.184 2.307 2.184h.027zM88.05 23.439h4.175v-7.06c0-.379.027-.756.137-1.026.302-.755.989-1.537 2.142-1.537 1.51 0 2.115 1.16 2.115 2.859v6.764h4.174v-7.25c0-3.883-2.06-5.69-4.806-5.69-2.252 0-3.24 1.267-3.79 2.13h.028v-1.834h-4.174c.055 1.187 0 12.644 0 12.644z" fill="#FFF"/>
    </g>
</svg>
