<svg width="97" height="26" viewBox="0 0 97 26" xmlns="http://www.w3.org/2000/svg">
    <path d="M65.947 6.884h3.833v.73c2.306-.926 4.547-1.369 6.363.639 1.034-.43 1.976-.991 2.997-1.225 2.97-.692 5.037 1.074 4.667 4.051-.37 2.977-.956 5.943-1.446 8.926h-3.884c.212-1.329.41-2.618.637-3.909.237-1.433.49-2.867.73-4.297a.12.12 0 0 1 .011-.064c.147-1.083-.225-1.903-.967-2.111-.809-.222-1.816.221-2.174 1.197-.358.977-.492 2.015-.683 3.037-.332 1.916-.623 3.856-.969 5.774a.65.65 0 0 1-.423.403c-1.141.039-2.295.012-3.515.012.24-1.485.479-2.931.716-4.378.226-1.394.479-2.775.683-4.163.12-.756-.225-1.498-.808-1.784-.584-.286-1.34-.105-1.923.455-.742.717-.781 1.668-.941 2.58-.41 2.417-.796 4.834-1.207 7.271h-3.87c.729-4.4 1.445-8.74 2.173-13.144zM31 18.69c-.41 2.502-.809 4.887-1.22 7.311h-3.885c1.06-6.385 2.109-12.73 3.169-19.102h3.885c-.04.325-.093.624-.12.885.796-.3 1.565-.716 2.386-.885 2.785-.587 5.092.846 5.876 3.543 1.126 3.87-1.66 8.495-5.676 9.375-1.618.333-3.076.007-4.415-1.127zm6.178-5.629c.013-1.477-.557-2.45-1.503-2.801-.947-.352-2.042.039-2.85 1.003a4.197 4.197 0 0 0-.995 3.193c.092.964.504 1.772 1.503 2.11.956.326 1.776-.026 2.48-.663a4.12 4.12 0 0 0 1.365-2.842zM0 16.787c.888-.73 1.75-1.433 2.613-2.15.383.432.716.874 1.113 1.24.957.899 2.081.91 3.28.508 1.153-.39 1.895-1.147 2.106-2.36.137-.82-.105-1.51-.834-1.967-.517-.325-1.074-.587-1.618-.873-.33-.169-.675-.326-1.007-.482C.98 8.461 1.75 3.433 5.118 1.111 7.36-.426 9.68-.232 12.013.864c.503.235.968.56 1.503.873-.755.925-1.458 1.785-2.148 2.619-.623-.269-1.206-.586-1.83-.769-1.47-.443-2.796.156-3.473 1.512-.45.912-.252 1.733.636 2.242.888.509 1.803.898 2.692 1.367 1.657.874 2.869 2.11 3.129 4.028.41 2.945-1.094 5.498-3.871 6.715-3.295 1.415-6.66.41-8.651-2.664zm15.487-9.903h3.898c-.465 2.788-.902 5.552-1.367 8.3-.185 1.108.137 1.538 1.26 1.63 1.405.116 2.05-.403 2.267-1.746.437-2.712.902-5.422 1.367-8.184h3.884c-.265 1.655-.53 3.284-.809 4.926-.186 1.133-.385 2.267-.583 3.4-.437 2.54-2.162 4.249-4.733 4.665-1.46.235-2.904.247-4.31-.268-1.71-.638-2.611-2.215-2.306-4 .476-2.872.941-5.764 1.432-8.723zm47.942 7.128h-8.335c-.105 1.355.557 2.71 1.552 3.023 1.658.537 2.518-.56 3.327-1.734.916.34 1.818.672 2.718 1.003-1.114 2.32-4.44 4.627-7.756 3.546-2.333-.756-3.447-2.541-3.672-4.862-.356-3.582 2.354-7.218 5.894-8 3.076-.67 5.781 1.075 6.245 4.164.132.905.027 1.87.027 2.86zm-7.983-2.346h4.8c-.397-1.477-1.18-2.255-2.186-2.267-1.101-.013-2.175.912-2.614 2.267zm38.013 3.635c.914.34 1.802.672 2.692.991-1.578 3.179-6.218 5.187-9.361 2.697-1.804-1.433-2.346-3.388-1.988-5.55.49-3.063 2.213-5.278 5.25-6.294 3.486-1.173 6.695 1.003 6.92 4.626.053.73.014 1.458.014 2.241h-8.42c-.145 1.277.558 2.619 1.539 3.023 1.06.455 1.976 0 3.354-1.734zm.186-3.596c-.067-1.208-1.034-2.283-2.082-2.319-1.14-.039-2.479 1.147-2.596 2.32h4.678zM51.761 6.871l-.994 3.31a4.302 4.302 0 0 1-.424-.078c-1.843-.561-3.434.364-3.78 2.253-.423 2.307-.781 4.613-1.166 6.92-.04.234-.093.469-.137.73h-3.867c.73-4.392 1.446-8.744 2.174-13.122h3.845c-.012.3-.04.587-.065.925 1.339-.99 2.81-1.12 4.414-.938z" fill="#FE0000" fill-rule="nonzero"/>
</svg>
