<svg width="75" height="75" viewBox="0 0 75 75" xmlns="http://www.w3.org/2000/svg">
    <g fill="none" fill-rule="evenodd">
        <circle fill="#DFFBED" cx="37.5" cy="37.5" r="37.5"/>
        <g transform="translate(15.25 16.25)" fill="#65AB88">
            <path d="M33.25 19.75c6.351 0 11.5 5.149 11.5 11.5s-5.149 11.5-11.5 11.5-11.5-5.149-11.5-11.5 5.149-11.5 11.5-11.5zm0 1.5c-5.523 0-10 4.477-10 10s4.477 10 10 10 10-4.477 10-10-4.477-10-10-10z" fill-rule="nonzero"/>
            <path d="M33.25 27c-1.744 0-3.275.739-4.574 1.952-.766.714-1.293 1.428-1.577 1.926a.75.75 0 0 0 0 .744c.284.498.811 1.212 1.577 1.926 1.3 1.213 2.83 1.952 4.574 1.952 1.744 0 3.275-.739 4.574-1.952.766-.714 1.293-1.428 1.577-1.926a.75.75 0 0 0 0-.744c-.284-.498-.811-1.212-1.577-1.926-1.3-1.213-2.83-1.952-4.574-1.952zm0 1.5c1.318 0 2.507.574 3.55 1.548l.273.267c.263.27.499.552.706.834l.074.1-.074.102a8.05 8.05 0 0 1-.978 1.1C35.757 33.427 34.568 34 33.25 34s-2.507-.574-3.55-1.548l-.273-.267c-.263-.27-.499-.552-.706-.834l-.075-.101.075-.101a8.05 8.05 0 0 1 .978-1.1c1.044-.975 2.233-1.549 3.551-1.549z" fill-rule="nonzero"/>
            <circle cx="33.25" cy="31.25" r="1.5"/>
            <path d="M25.913 0c2.28 0 3.351.207 4.462.801A5.596 5.596 0 0 1 32.7 3.125c.594 1.111.801 2.181.801 4.462v8.744a.75.75 0 1 1-1.5 0V7.587l-.005-.581c-.03-1.64-.203-2.396-.619-3.174a4.096 4.096 0 0 0-1.708-1.708c-.864-.462-1.7-.624-3.755-.624H7.587c-2.054 0-2.89.162-3.755.624a4.096 4.096 0 0 0-1.708 1.708c-.462.864-.624 1.7-.624 3.755v18.326c0 2.054.162 2.89.624 3.755.395.738.97 1.313 1.708 1.708.864.462 1.7.624 3.755.624h10.234a.75.75 0 1 1 0 1.5H7.587c-2.28 0-3.351-.207-4.462-.801A5.596 5.596 0 0 1 .8 30.375C.207 29.264 0 28.194 0 25.913V7.587c0-2.28.207-3.351.801-4.462A5.596 5.596 0 0 1 3.125.8C4.236.207 5.306 0 7.587 0h18.326z" fill-rule="nonzero"/>
            <path d="M23.24 12.2a.75.75 0 0 1 1.02 1.1l-5.884 5.458-4.353-3.729-4.772 4.28a.75.75 0 0 1-.98.019l-.08-.077a.75.75 0 0 1 .058-1.06L14 13.036l4.335 3.714L23.24 12.2z" fill-rule="nonzero"/>
        </g>
    </g>
</svg>
