<svg width="75" height="75" viewBox="0 0 75 75" xmlns="http://www.w3.org/2000/svg">
    <g fill="none" fill-rule="evenodd">
        <circle fill="#FBEAF8" cx="37.5" cy="37.5" r="37.5"/>
        <g fill="#BE7FB3">
            <path d="M58.734 40.598a.75.75 0 0 1 0 1.5h-2.51a.75.75 0 1 1 0-1.5h2.51zM57.359 44.53a.75.75 0 1 1 0 1.5h-1.803a.75.75 0 1 1 0-1.5h1.803zM55.771 48.462c1.518 0 2.7 1.1 2.795 2.45.1 1.425-1.01 2.48-2.796 2.553l-.284.005c-.314.002-.73 0-1.236-.011l-.26-.007a64.725 64.725 0 0 1-2.995-.15c-2.915-.214-5.81-.612-8.52-1.241a37.087 37.087 0 0 1-3.137-.868.75.75 0 0 1 .466-1.425c.95.31 1.956.587 3.01.832 2.628.61 5.447.997 8.29 1.205.831.061 1.626.104 2.374.13l1.042.029c.23.004.438.006.62.006l.416-.001c1.1 0 1.552-.406 1.513-.95-.04-.565-.568-1.057-1.298-1.057h-.961a.75.75 0 1 1 0-1.5h.961z" fill-rule="nonzero"/>
            <path d="M57.24 46.023c-.88-.115-.84-1.493.119-1.493h1.375c.809 0 1.29-.517 1.296-1.223.006-.659-.404-1.145-1.144-1.203l-.272-.013c-.878-.115-.838-1.493.12-1.493h.212c.827 0 1.303-.513 1.304-1.216 0-.704-.474-1.216-1.304-1.216h-9.83a.75.75 0 0 1-.69-1.045c1.833-4.287 1.601-7.615.072-9.34-.984-1.111-1.835-.993-1.801.042l.007.12c.245 2.687-1.061 5.425-3.36 8.089a24.52 24.52 0 0 1-2.85 2.795l-.472.378a.75.75 0 0 1-.902-1.199l.254-.2.334-.278a23.036 23.036 0 0 0 2.501-2.477c1.979-2.293 3.112-4.597 3.019-6.719l-.018-.254c-.258-2.842 2.554-3.387 4.41-1.293 1.764 1.99 2.16 5.393.717 9.552l-.117.328 8.726.001c1.622 0 2.722 1.12 2.8 2.55l.004.167c0 .782-.303 1.483-.828 1.977l-.098.085c.423.452.672 1.047.703 1.71l.003.166c-.01 1.113-.628 2.063-1.623 2.482l-.112.043.015.026c.203.358.324.769.348 1.209l.004.166c-.001 1.508-1.123 2.715-2.803 2.715h-1.588a.75.75 0 1 1 0-1.5h1.588c.826 0 1.303-.513 1.303-1.216.001-.66-.416-1.15-1.152-1.21l-.27-.013z" fill-rule="nonzero"/>
            <path d="M39.57 36.641h-8.15a.75.75 0 0 0-.75.75V53c0 .414.336.75.75.75h8.15a.75.75 0 0 0 .75-.75V37.391a.75.75 0 0 0-.75-.75zm-.75 1.5V52.25h-6.65V38.141h6.65zM27.85 21.68l-1.43 3.04-3.18.488-.104.023a.75.75 0 0 0-.32 1.243l2.324 2.374-.55 3.364-.01.102a.75.75 0 0 0 1.113.676l2.836-1.566 2.837 1.566.092.043a.75.75 0 0 0 1.01-.82l-.55-3.365 2.324-2.374.068-.08a.75.75 0 0 0-.49-1.186l-3.183-.488-1.429-3.04a.75.75 0 0 0-1.357 0zm.679 2.082.921 1.958.052.093a.75.75 0 0 0 .513.33l2.133.326-1.566 1.602-.066.077a.75.75 0 0 0-.139.568l.362 2.215-1.847-1.02-.1-.046a.75.75 0 0 0-.625.046l-1.848 1.019.362-2.214.01-.1a.75.75 0 0 0-.214-.545l-1.567-1.602 2.134-.327a.75.75 0 0 0 .565-.422l.92-1.958z" fill-rule="nonzero"/>
            <path d="m16.294 34.212 1.018 2.164 2.276.35-1.647 1.683.389 2.379-2.036-1.124-2.036 1.124.39-2.379L13 36.726l2.276-.35z"/>
            <path d="m21.33 45.165-.869 1.838-1.927.295-.103.023a.75.75 0 0 0-.32 1.244l1.414 1.439-.334 2.044-.01.1a.75.75 0 0 0 1.111.678l1.716-.943 1.716.943.093.043a.75.75 0 0 0 1.009-.821l-.335-2.043 1.414-1.44.069-.08a.75.75 0 0 0-.491-1.187l-1.928-.295-.868-1.838a.75.75 0 0 0-1.357 0zm.678 2.076.36.764.053.092a.75.75 0 0 0 .513.33l.873.133-.653.666-.066.077a.75.75 0 0 0-.139.57l.146.895-.725-.398-.1-.046a.75.75 0 0 0-.623.046l-.727.398.148-.895.01-.102a.75.75 0 0 0-.215-.545l-.654-.666.874-.134a.75.75 0 0 0 .565-.421l.36-.764z" fill-rule="nonzero"/>
        </g>
    </g>
</svg>
