<svg width="75" height="75" viewBox="0 0 75 75" xmlns="http://www.w3.org/2000/svg">
    <g fill="none" fill-rule="evenodd">
        <circle fill="#FFEBBE" cx="37.5" cy="37.5" r="37.5"/>
        <g fill="#C19D4D" fill-rule="nonzero">
            <path d="m23.885 41.475 1.39.566-.495 1.214L21.152 53.3l4.865-.925a.75.75 0 0 1 .652.189l.07.075 3.129 3.852 2.973-8.325 1.413.505-3.421 9.58a.75.75 0 0 1-1.289.22l-3.687-4.539-5.717 1.088a.75.75 0 0 1-.873-.895l.028-.096 4.085-11.313.505-1.242zM49.883 42.891c.39-.14.82.061.96.45l3.862 10.689a.75.75 0 0 1-.845.991l-5.718-1.088-3.686 4.54a.75.75 0 0 1-1.25-.131l-.042-.1-3.074-9a.75.75 0 0 1 1.42-.484l2.635 7.717 3.116-3.835a.75.75 0 0 1 .62-.277l.102.013 4.864.926-3.415-9.45a.75.75 0 0 1 .358-.92l.093-.04z"/>
            <path d="M38 16.25c-9.25 0-16.75 7.5-16.75 16.75S28.75 49.75 38 49.75 54.75 42.25 54.75 33 47.25 16.25 38 16.25zm0 1.5c8.422 0 15.25 6.828 15.25 15.25S46.422 48.25 38 48.25 22.75 41.422 22.75 33 29.578 17.75 38 17.75z"/>
            <path d="M32.109 27.965a7.75 7.75 0 0 1 9.045-2.044.75.75 0 0 1-.61 1.37 6.25 6.25 0 1 0 3.706 5.713v-.644a.75.75 0 0 1 1.5 0v.644a7.75 7.75 0 1 1-13.641-5.04z"/>
            <path d="M44.449 26.896a.75.75 0 0 1 1.102 1.017l-6.461 7a.75.75 0 0 1-1.102 0l-1.939-2.097a.75.75 0 0 1 1.102-1.018l1.387 1.5 5.91-6.402z"/>
        </g>
    </g>
</svg>
