<svg width="75" height="75" viewBox="0 0 75 75" xmlns="http://www.w3.org/2000/svg">
    <g fill="none" fill-rule="evenodd">
        <circle fill="#FDEAE7" cx="37.5" cy="37.5" r="37.5"/>
        <g fill="#CC8F86" fill-rule="nonzero">
            <path d="M29.686 43h7.084v-1.512h-4.662l2.016-1.68c1.722-1.428 2.548-2.254 2.548-3.794 0-1.778-1.316-2.954-3.234-2.954-1.75 0-2.674.742-3.612 2.058l1.218.952c.756-.98 1.372-1.47 2.268-1.47.896 0 1.582.56 1.582 1.526 0 .882-.49 1.512-1.834 2.646l-3.374 2.87V43zM43.07 43h1.652v-2.198h1.4v-1.414h-1.4V33.13h-1.47l-5.446 6.44.322 1.232h4.942V43zm-3.22-3.612 3.22-3.878v3.878h-3.22zM53.33 43.662a.75.75 0 1 1 1.34.676l-1.03 2.035c-2.646 4.277-6.619 7.264-11.135 8.284l-.344.076a.75.75 0 1 1-.322-1.466l.34-.074c4.105-.927 7.745-3.664 10.154-7.553l.997-1.978z"/>
            <path d="M37.481 19.25c8.622 0 15.92 6.25 17.26 14.632a.75.75 0 0 1-1.482.236c-1.224-7.656-7.895-13.368-15.778-13.368-7.803 0-14.428 5.6-15.742 13.156a.75.75 0 1 1-1.478-.257c1.44-8.274 8.686-14.399 17.22-14.399zM40.55 51.25h-3.1c-1.22 0-2.2 1.013-2.2 2.25l.007.179c.109 1.18 1.05 2.071 2.194 2.071h3.098c1.222 0 2.201-1.013 2.201-2.25s-.98-2.25-2.2-2.25zm0 1.5c.38 0 .7.33.7.75s-.32.75-.7.75h-3.1c-.355 0-.66-.289-.697-.674l-.004-.11a.72.72 0 0 1 .702-.716h3.098z"/>
            <path d="M54.239 33.25h-2.243a.75.75 0 0 0-.75.75v10.001c0 .414.336.75.75.75h2.243c1.894 0 3.511-1.136 3.511-2.69v-6.12c0-1.555-1.617-2.691-3.511-2.691zm-1.493 10.001V34.75h1.493c1.156 0 2.011.601 2.011 1.19v6.121c0 .59-.855 1.19-2.011 1.19h-1.493zM20.758 33.25H23a.75.75 0 0 1 .75.75v10.001a.75.75 0 0 1-.75.75h-2.242c-1.894 0-3.512-1.136-3.512-2.69v-6.12c0-1.555 1.618-2.691 3.512-2.691zm1.492 10.001V34.75h-1.492c-1.156 0-2.012.601-2.012 1.19v6.121c0 .59.856 1.19 2.012 1.19h1.492z"/>
        </g>
    </g>
</svg>
