<svg width="75" height="75" viewBox="0 0 75 75" xmlns="http://www.w3.org/2000/svg">
    <g fill="none" fill-rule="evenodd">
        <circle fill="#F1F1F5" cx="37.5" cy="37.5" r="37.5"/>
        <g transform="translate(16.25 19.25)" fill="#A7A7B2" fill-rule="nonzero">
            <path d="M37.687 0c1.115 0 2.024.909 2.024 2.024v13.558a.75.75 0 0 1-1.5 0V2.024a.527.527 0 0 0-.524-.524H2.024a.527.527 0 0 0-.524.524v24.2c0 3.79 3.103 6.892 6.892 6.892h10.285a.75.75 0 1 1 0 1.5H8.392C3.775 34.616 0 30.841 0 26.224v-24.2C0 .909.909 0 2.024 0h35.663z"/>
            <path d="M38.961 9.553v1.5H.75v-1.5z"/>
            <circle cx="9.984" cy="5.654" r="1"/>
            <path d="M9.984 4.267a1.387 1.387 0 1 0 0 2.774 1.387 1.387 0 0 0 0-2.774z"/>
            <circle cx="5.017" cy="5.654" r="1"/>
            <path d="M5.017 4.267a1.387 1.387 0 1 0 0 2.774 1.387 1.387 0 0 0 0-2.774z"/>
            <circle cx="15.079" cy="5.654" r="1"/>
            <path d="M15.08 4.267a1.387 1.387 0 1 0 0 2.774 1.387 1.387 0 0 0 0-2.774zM35.02 19h-3.54a1.5 1.5 0 0 0-1.492 1.353l-.007.144a1.496 1.496 0 0 1-2.101 1.358l-.142-.072a1.495 1.495 0 0 0-2.039.54l-1.5 2.594a1.498 1.498 0 0 0 .432 1.967l.121.078a1.489 1.489 0 0 1 .122 2.506l-.122.078a1.497 1.497 0 0 0-.544 2.046l1.495 2.58a1.497 1.497 0 0 0 1.914.609l.128-.066a1.502 1.502 0 0 1 1.387-.056l.15.076c.381.223.649.649.695 1.123l.006.144a1.5 1.5 0 0 0 1.498 1.498h3.544c.778 0 1.417-.594 1.49-1.353l.007-.144a1.496 1.496 0 0 1 2.1-1.351l.14.071c.711.41 1.62.17 2.037-.538l1.5-2.592a1.497 1.497 0 0 0-.425-1.969l-.125-.08a1.492 1.492 0 0 1-.12-2.507l.121-.079c.715-.419.955-1.33.543-2.043l-1.491-2.583a1.495 1.495 0 0 0-1.913-.609l-.128.066a1.494 1.494 0 0 1-2.236-1.148l-.008-.145A1.5 1.5 0 0 0 35.02 19zm-3.54 1.5h3.537a2.998 2.998 0 0 0 1.502 2.59l.188.1c.827.4 1.792.4 2.618-.003l.182-.097 1.486 2.573a2.992 2.992 0 0 0-1.489 2.589l.007.2c.061.925.55 1.77 1.32 2.287l.168.105-1.492 2.577a2.993 2.993 0 0 0-4.483 2.58h-3.54a2.988 2.988 0 0 0-1.488-2.584l-.207-.106-.196-.084a3.009 3.009 0 0 0-2.412.09l-.184.097-1.49-2.573a2.981 2.981 0 0 0 1.494-2.587l-.007-.2a2.989 2.989 0 0 0-1.326-2.288l-.167-.104 1.49-2.579a2.99 2.99 0 0 0 2.986.003A2.997 2.997 0 0 0 31.48 20.5z"/>
            <path d="M33.25 25.264a2.988 2.988 0 1 0 .001 5.976 2.988 2.988 0 0 0-.001-5.976zm0 1.5a1.488 1.488 0 1 1-.002 2.976 1.488 1.488 0 0 1 .002-2.976z"/>
        </g>
    </g>
</svg>
