<svg width="75" height="75" viewBox="0 0 75 75" xmlns="http://www.w3.org/2000/svg">
    <g fill="none" fill-rule="evenodd">
        <circle fill="#D1E4FF" cx="37.5" cy="37.5" r="37.5"/>
        <g fill="#5B81B6" fill-rule="nonzero">
            <path d="M51.75 32.25h-27.5c-1.113 0-2 .946-2 2.083V49c0 4.804 3.7 8.75 8.25 8.75h15c4.55 0 8.25-3.946 8.25-8.75V34.333c0-1.137-.887-2.083-2-2.083zm0 1.5c.262 0 .5.254.5.583V49c0 3.996-3.05 7.25-6.75 7.25h-15c-3.7 0-6.75-3.254-6.75-7.25V34.333c0-.33.238-.583.5-.583h27.5z"/>
            <path d="M38 18.25c5.912 0 10.75 4.764 10.75 10.596v4.033a.75.75 0 0 1-1.5 0v-4.033c0-4.998-4.162-9.096-9.25-9.096s-9.25 4.098-9.25 9.096v3.783a.75.75 0 0 1-1.5 0v-3.783c0-5.832 4.838-10.596 10.75-10.596zM32.869 40.615a6.75 6.75 0 0 1 7.878-1.78.75.75 0 0 1-.61 1.37 5.25 5.25 0 1 0 3.113 4.798v-.552a.75.75 0 0 1 1.5 0v.553a6.75 6.75 0 1 1-11.881-4.39z"/>
            <path d="M43.449 39.695a.75.75 0 1 1 1.102 1.018l-5.538 6a.75.75 0 0 1-1.102 0l-1.662-1.798a.75.75 0 1 1 1.102-1.018l1.11 1.2 4.988-5.402z"/>
        </g>
    </g>
</svg>
